/* XPM */
static char * closed_exit_xpm[] = {
"32 32 56 1",
" 	c #4FAD7A",
".	c #20D6C7",
"+	c #63E9D1",
"@	c #A6FCDB",
"#	c #22BBD2",
"$	c #2BB8C9",
"%	c #45BB97",
"&	c #52A971",
"*	c #5B973F",
"=	c #5C9631",
"-	c #5DA054",
";	c #7CC18C",
">	c #3EC2A5",
",	c #24D4C4",
"'	c #589E54",
")	c #5B983C",
"!	c #A2F6D4",
"~	c #FFFFFF",
"{	c #33CBB5",
"]	c #3BB1B3",
"^	c #39C7AD",
"/	c #50AC79",
"(	c #3DC3A7",
"_	c #25D4C3",
":	c #5B993E",
"<	c #37C8B0",
"[	c #2ECFBB",
"}	c #4EAF80",
"|	c #27D3C2",
"1	c #589D51",
"2	c #56A15C",
"3	c #22D5C6",
"4	c #5EB886",
"5	c #62E1C6",
"6	c #3FAEAC",
"7	c #32CCB6",
"8	c #2AD1BF",
"9	c #2FCEB9",
"0	c #A3F8D7",
"a	c #5C9A3F",
"b	c #4AA793",
"c	c #45AA9F",
"d	c #5A9941",
"e	c #31CCB7",
"f	c #42BD9C",
"g	c #62DEC1",
"h	c #98E8C2",
"i	c #31CDB8",
"j	c #38C8AF",
"k	c #5A9A43",
"l	c #5C9A41",
"m	c #5DAB6E",
"n	c #80C795",
"o	c #61D2B0",
"p	c #62DCBF",
"q	c #63E7CE",
" ...........+@..#$%&*==-;>,.....",
"'..........+...........##@+.....",
").........+................+@...",
"=!++@@+++++..................~@+",
"={.######+...................++]",
"=^.......#+.................+##/",
"=(........+................+.._:",
"=<........@~+++@+........++...>=",
"=[.......@++..###+@@+++@@@....}=",
"=|.....+++...........####+@...1=",
"2.....+...................+@.3==",
"4++@@+@....................++5==",
"6###+@...................@++.7==",
"8...##@..............@@++....<==",
"......+............++###.....9==",
".......+..........+.........._==",
".......+@+......++............1=",
".....++++++@@+@+..............}=",
".+@@+..#####+@##..............>=",
"+...........#++..............+0a",
"...............++..........++##b",
"................@+.......+@....[",
"...............@@@++@+++@@......",
"..............++.###.####+@.....",
"............++...........##++...",
"..........+@...............##+@.",
"@++++@@@+@@...................+@",
"c...#####++@..................@@",
"d........##++................++#",
"=e..........++..............++..",
"=f...........gh<<i........++....",
"=f........j}k=====lmnopq+@......"};
