/* XPM */
static char * collectable_xpm[] = {
"32 32 322 2",
"  	c #292323",
". 	c #22150A",
"+ 	c #2A1A0D",
"@ 	c #382313",
"# 	c #3B2614",
"$ 	c #3D2715",
"% 	c #311F0F",
"& 	c #27180B",
"* 	c #2B1A0D",
"= 	c #442C17",
"- 	c #452D18",
"; 	c #533821",
"> 	c #49301C",
", 	c #51351D",
"' 	c #4D321B",
") 	c #321F10",
"! 	c #472E19",
"~ 	c #573A21",
"{ 	c #604127",
"] 	c #63442B",
"^ 	c #5A3C22",
"/ 	c #51351E",
"( 	c #2B1B0D",
"_ 	c #402917",
": 	c #5E4027",
"< 	c #593B21",
"[ 	c #66472C",
"} 	c #55381E",
"| 	c #311F10",
"1 	c #2F1D0F",
"2 	c #412A16",
"3 	c #53371E",
"4 	c #624329",
"5 	c #65462B",
"6 	c #573920",
"7 	c #482F1A",
"8 	c #352211",
"9 	c #382312",
"0 	c #50341C",
"a 	c #55371E",
"b 	c #63442A",
"c 	c #5B3D23",
"d 	c #5E4026",
"e 	c #583B22",
"f 	c #412A15",
"g 	c #27180C",
"h 	c #26170B",
"i 	c #332010",
"j 	c #54371E",
"k 	c #66462C",
"l 	c #614228",
"m 	c #5C3D24",
"n 	c #3F2814",
"o 	c #24160A",
"p 	c #28190C",
"q 	c #3C2614",
"r 	c #4B311A",
"s 	c #634429",
"t 	c #68492E",
"u 	c #6B4B30",
"v 	c #573B22",
"w 	c #322010",
"x 	c #372312",
"y 	c #3F2815",
"z 	c #352111",
"A 	c #2C1C0E",
"B 	c #492F19",
"C 	c #452C17",
"D 	c #3B2514",
"E 	c #5F4027",
"F 	c #5F4026",
"G 	c #5D3F25",
"H 	c #68482E",
"I 	c #543820",
"J 	c #362212",
"K 	c #4E341E",
"L 	c #50341D",
"M 	c #342111",
"N 	c #442C18",
"O 	c #5A3D25",
"P 	c #452D19",
"Q 	c #66482D",
"R 	c #6B4B2F",
"S 	c #68482D",
"T 	c #694A2F",
"U 	c #51361F",
"V 	c #4B311B",
"W 	c #5D4028",
"X 	c #322011",
"Y 	c #6D4E2F",
"Z 	c #AC804E",
"` 	c #BB8B55",
" .	c #B58752",
"..	c #85613B",
"+.	c #3D2917",
"@.	c #4C311A",
"#.	c #432B17",
"$.	c #3A2514",
"%.	c #3E2919",
"&.	c #9D7447",
"*.	c #CF9B5E",
"=.	c #D19D5F",
"-.	c #CE9B5E",
";.	c #D49F60",
">.	c #B38551",
",.	c #563C25",
"'.	c #543822",
").	c #472E1A",
"!.	c #382412",
"~.	c #52351C",
"{.	c #563920",
"].	c #3F2A19",
"^.	c #A07648",
"/.	c #D09C5E",
"(.	c #D19C5F",
"_.	c #CD9A5D",
":.	c #B88954",
"<.	c #583D26",
"[.	c #5A3E27",
"}.	c #573A20",
"|.	c #472D18",
"1.	c #25160B",
"2.	c #51351C",
"3.	c #64452B",
"4.	c #B88953",
"5.	c #583E26",
"6.	c #583A21",
"7.	c #211409",
"8.	c #2D1C0E",
"9.	c #352212",
"0.	c #482F18",
"a.	c #3A2616",
"b.	c #926B41",
"c.	c #C7955A",
"d.	c #A87C4C",
"e.	c #503722",
"f.	c #3C2613",
"g.	c #614329",
"h.	c #332011",
"i.	c #28180C",
"j.	c #402916",
"k.	c #3C2615",
"l.	c #604128",
"m.	c #573B23",
"n.	c #382413",
"o.	c #4E3620",
"p.	c #8E6840",
"q.	c #9B7246",
"r.	c #966F44",
"s.	c #66492C",
"t.	c #362313",
"u.	c #4D331D",
"v.	c #604228",
"w.	c #4E331C",
"x.	c #4A301A",
"y.	c #472F1B",
"z.	c #7D5A38",
"A.	c #815D3A",
"B.	c #775634",
"C.	c #65492A",
"D.	c #48311D",
"E.	c #392616",
"F.	c #382516",
"G.	c #402B19",
"H.	c #5D4326",
"I.	c #725231",
"J.	c #7F5C39",
"K.	c #805C39",
"L.	c #543A22",
"M.	c #392413",
"N.	c #523720",
"O.	c #553820",
"P.	c #452D1A",
"Q.	c #583D25",
"R.	c #392515",
"S.	c #86623C",
"T.	c #BB8C55",
"U.	c #CB985C",
"V.	c #CA975C",
"W.	c #C19158",
"X.	c #926C41",
"Y.	c #45301C",
"Z.	c #301F11",
"`.	c #7B5936",
" +	c #B78953",
".+	c #CA975B",
"++	c #C39259",
"@+	c #9C7346",
"#+	c #4A331F",
"$+	c #301E0F",
"%+	c #29190C",
"&+	c #432C18",
"*+	c #412B1A",
"=+	c #A3794A",
"-+	c #D39E60",
";+	c #CC995D",
">+	c #D5A061",
",+	c #573D25",
"'+	c #392716",
")+	c #9A7246",
"!+	c #D29D5F",
"~+	c #CC985C",
"{+	c #BA8B54",
"]+	c #593E27",
"^+	c #4C311B",
"/+	c #4F331C",
"(+	c #A4794A",
"_+	c #D39E5F",
":+	c #342010",
"<+	c #563B24",
"[+	c #583B23",
"}+	c #301E0E",
"|+	c #56391F",
"1+	c #462D18",
"2+	c #A57A4B",
"3+	c #B68853",
"4+	c #3A2716",
"5+	c #5A3F27",
"6+	c #362211",
"7+	c #593D25",
"8+	c #5D3E24",
"9+	c #3D2714",
"0+	c #382415",
"a+	c #85613C",
"b+	c #BF8E57",
"c+	c #CC995C",
"d+	c #C5945A",
"e+	c #987045",
"f+	c #47311D",
"g+	c #312011",
"h+	c #805D39",
"i+	c #BD8D56",
"j+	c #C6945A",
"k+	c #49321E",
"l+	c #5F4127",
"m+	c #5A3C23",
"n+	c #342110",
"o+	c #5B3D24",
"p+	c #3B2716",
"q+	c #795736",
"r+	c #7E5C39",
"s+	c #7C5A38",
"t+	c #4F3721",
"u+	c #3E2A18",
"v+	c #735333",
"w+	c #7E5B38",
"x+	c #4C341F",
"y+	c #573A22",
"z+	c #2C1B0D",
"A+	c #4A311B",
"B+	c #67482E",
"C+	c #69492E",
"D+	c #593E26",
"E+	c #2E1D10",
"F+	c #2A1A0E",
"G+	c #372314",
"H+	c #533923",
"I+	c #573C25",
"J+	c #291A0E",
"K+	c #352213",
"L+	c #553A24",
"M+	c #5D4027",
"N+	c #66472B",
"O+	c #2D1D0F",
"P+	c #6C4D2F",
"Q+	c #AB7F4E",
"R+	c #B78853",
"S+	c #B38651",
"T+	c #291A0D",
"U+	c #66482C",
"V+	c #A97E4D",
"W+	c #B28451",
"X+	c #62452A",
"Y+	c #AB7F4D",
"Z+	c #B48652",
"`+	c #84603A",
" @	c #3C2716",
".@	c #412C1A",
"+@	c #9E7548",
"@@	c #D59F60",
"#@	c #513823",
"$@	c #9E7547",
"%@	c #CD995D",
"&@	c #B28551",
"*@	c #362315",
"=@	c #D6A061",
"-@	c #D49E60",
";@	c #5E4329",
">@	c #412D1A",
",@	c #A27849",
"'@	c #392517",
")@	c #573D26",
"!@	c #BC8C55",
"~@	c #CE9A5D",
"{@	c #CE9A5E",
"]@	c #3E2A19",
"^@	c #987044",
"/@	c #C9975B",
"(@	c #AD814E",
"_@	c #4D3521",
":@	c #362415",
"<@	c #976F44",
"[@	c #C8965B",
"}@	c #533A23",
"|@	c #342214",
"1@	c #966E43",
"2@	c #AF824F",
"3@	c #5A3F26",
"4@	c #2C1C0F",
"5@	c #5A4026",
"6@	c #977044",
"7@	c #A3784A",
"8@	c #9F7648",
"9@	c #311F11",
"0@	c #553C24",
"a@	c #6D4F30",
"b@	c #332112",
"c@	c #523922",
"d@	c #715131",
"e@	c #352313",
"f@	c #422D1A",
"g@	c #402C1A",
"                              . . .                             ",
"                          + @ # # $ % &                         ",
"                        * = - ; > , ' )                         ",
"                        + ! ~ { ] ^ / )                         ",
"                        ( _ : < [ } - |                         ",
"                        1 2 3 4 5 6 7 8                         ",
"                        9 0 a b c d e f                         ",
"                    g h i j k l k 4 m n o p                     ",
"                p ) q # 1 r s { t u v w x y z A                 ",
"                ( B C D i r E F G H I 9 J K L M                 ",
"                ( N O D M P Q R S T K 9 J U V M                 ",
"                ( $ W D X Y Z ` `  ...+.J @.2 M                 ",
"                i #.0 $.%.&.*.=.-.;.>.,.z '.).y                 ",
"                !.~.{.$ ].^./.(.;._.:.<.z [.}.|.                ",
"              1.% 2.3.B ].^.=./.(.(.4.5.9 W 6.y 7.              ",
"          8.9.J 8.@.< 0.a.b.c.(.*.-.d.e.f.g.~ h.| D i i.        ",
"        p #.j.k.z B l.m.n.o.p.q.q.r.s.t.u.v.w.y J B @.|         ",
"        p x.L $ | y.z.A.B.C.D.E.F.G.H.I.J.K.L.M.8 N.O.w         ",
"        g P.Q.$ R.S.T.U.V.W.X.Y.Z.`. +.+U.++@+#+z x.! $+        ",
"        %+&+w.$ *+=+-+/.;+>+ .,+'+)+!+/.~+>+{+]+M ^+7 )         ",
"        % ~./+$ *+(+-+_._+*. +,+'+@+*.*.;.=.T.]+:+<+[+n         ",
"        }+|+d 1+*+2+!+!+/.;.3+5.4+@+=.!+/.;.T.5+6+7+8+9+        ",
"        %+w.8+B 0+a+b+c+~+d+e+f+g+h+i+U.U.j+@+k+f.l+m+n+        ",
"        + @.G o+9+p+q+r+r+s+t+h.J u+v+r+r+w+x+J w.v.y+z         ",
"        z+A+B+C+v.D+p+E+F+G+H+[.5+I+G.E+J+K+L+M+N+t K 6+        ",
"        O+P+Q+R+R+S+q+t.T+U+V+R+R+W+h+R.p X+Y+R+R+Z+`+ @        ",
"        .@+@_.@@;./.Z+#@F.$@%@;._+!+&@,+*@&..+=@-@!+ .;@        ",
"        >@,@=.*./.;. +#@'@^.!+/.=.*.:.)@*@$@;.%@/.=.!@;@        ",
"        >@,@_+~@~@@@ +#@'@^._+*.{@!+4.)@*@$@;.~@~@-+!@;@        ",
"        ]@^@/@-+!+%@(@_@:@<@[@!+=.*.Z }@|@1@d+;.!+*.2@3@        ",
"        4@5@6@7@=+8@s.9@p 0@1@=+=+$@a@b@g c@6@7@=+^.d@e@        ",
"            .@f@f@>@        g@f@f@>@        .@f@f@>@            "};
