/* XPM */
static char *_2ab1fde45574cbcb55f86b1452b3fb3zajm9dRMLNNx80ij[] = {
/* columns rows colors chars-per-pixel */
"32 32 119 2 ",
"   c None",
".  c #2C1C0E",
"X  c #301E0F",
"o  c #321F10",
"O  c #352111",
"+  c #3A2514",
"@  c #3D2817",
"#  c #3D2A18",
"$  c #422B17",
"%  c #442D19",
"&  c #482F1A",
"*  c #47311C",
"=  c #4B321C",
"-  c #52361E",
";  c #54381F",
":  c #4E3721",
">  c #4F3821",
",  c #523720",
"<  c #533A22",
"1  c #5A3D24",
"2  c #5D4027",
"3  c #5F4329",
"4  c #604127",
"5  c #62442A",
"6  c #66482C",
"7  c #694B2E",
"8  c #6F4F30",
"9  c #6F5131",
"0  c #775634",
"q  c #725232",
"w  c #785535",
"e  c #785735",
"r  c #785735",
"t  c #795835",
"y  c #7D5C37",
"u  c #7E5C37",
"i  c #7C5A36",
"p  c #825E39",
"a  c #825F39",
"s  c #825F3A",
"d  c #805D38",
"f  c #83603A",
"g  c #84603A",
"h  c #86623B",
"j  c #86623B",
"k  c #88643C",
"l  c #89643E",
"z  c #8B653E",
"x  c #8B663E",
"c  c #8C673E",
"v  c #8E683F",
"b  c #906A41",
"n  c #926C42",
"m  c #936D42",
"M  c #966F43",
"N  c #956E43",
"B  c #9A7145",
"V  c #9A7245",
"C  c #9D7446",
"Z  c #9B7346",
"A  c #A07748",
"S  c #A17749",
"D  c #A27849",
"F  c #A37949",
"G  c #A3794A",
"H  c #A47A4A",
"J  c #A67B4B",
"K  c #A77B4B",
"L  c #A57A4A",
"P  c #AA7E4D",
"I  c #AB7F4D",
"U  c #A97D4C",
"Y  c #AD804E",
"T  c #AE814E",
"R  c #AE814F",
"E  c #AF824F",
"W  c #AE814F",
"Q  c #B28450",
"!  c #B28551",
"~  c #B38551",
"^  c #B48652",
"/  c #B58752",
"(  c #B48652",
")  c #B68852",
"_  c #B78853",
"`  c #B78853",
"'  c #B88A54",
"]  c #B98A54",
"[  c #BB8B55",
"{  c #BB8C55",
"}  c #BF8F57",
"|  c #C19057",
" . c #C19058",
".. c #C29158",
"X. c #C49259",
"o. c #C49359",
"O. c #C59359",
"+. c #C6945A",
"@. c #C5945A",
"#. c #C9965B",
"$. c #C9965B",
"%. c #CB985C",
"&. c #CC985C",
"*. c #CC995C",
"=. c #CC995D",
"-. c #CD995D",
";. c #CE9A5D",
":. c #CE9A5E",
">. c #CE9B5E",
",. c #CF9B5E",
"<. c #CE9A5D",
"1. c #D09B5E",
"2. c #D09C5E",
"3. c #D19C5F",
"4. c #D19D5F",
"5. c #D29D5F",
"6. c #D29E5F",
"7. c #D39E5F",
"8. c #D19C5F",
/* pixels */
"                            . . . .                             ",
"                        . O + @ + + +                           ",
"                        O $ = < - ; % X                         ",
"                        O = 1 4 4 ; = X                         ",
"                        X & 1 4 4 ; $ X                         ",
"                        + & 1 4 4 < & o                         ",
"                        $ - 1 4 1 4 ; +                         ",
"                    . . $ ; 5 5 5 4 < + X .                     ",
"                . + + O + - 4 5 6 6 - + o @ + .                 ",
"                O = % + + = 4 4 5 5 = o + - & X                 ",
"                O & , + + 1 q w w 8 , + $ - & X                 ",
"                O % < + = h ! { { I d $ + & $ X                 ",
"                @ & & + 4 I 1.8.7.*.S 1 + , & X                 ",
"                $ - - $ 5 E 8.8.4.*.K 1 $ 1 < @                 ",
"              . @ ; 4 $ 5 W 8.8.3.*.G 1 $ 1 < O .               ",
"          O O o O - ; & 1 C X.#.#.| n , & 4 - X O + O           ",
"        o $ $ o + * 1 : * 7 b N B b 5 % < 2 = O # * $ X         ",
"        + - & + @ 3 b b y q < : * 2 q s b u 2 O # ; = X         ",
"        o & ; + : N } @.@./ f # * x ] O.@.[ k : + = $ X         ",
"        + & - + 5 ! 5.5.5.;.H > 2 I 1.7.4.;.F < # = & X         ",
"        $ - & + 5 / 7.1.5.;.H > 2 Y 1.1.1.1.U 2 $ < - +         ",
"        $ < 1 $ 3 ~ 7.1.5.-.C > 2 I 1.6.1.1.C 2 $ 1 < +         ",
"        + , 1 & : N [ X.} ~ b % : b _ ...._ b = & 1 - o         ",
"        + , 2 , # 1 y s s q : O O 1 e u f t > # ; 4 - O         ",
"        + < q 8 7 3 : # # : 3 6 6 3 : # # : 3 7 8 7 , o         ",
"        * k W ( ~ K 8 o # y I ~ ~ G q # # y U ~ ( U t %         ",
"        6 I ,.,.-.$.B % 3 U ;.5.1.$.C > > G #.1.1.*.S <         ",
"        7 _ 1.3.5.-.G * 3 R -.5.1.;.U < 1 Y ;.7.1.1.U 1         ",
"        7 ( 7.,.1.;.G : 3 ! 6.1.1.;.G < 1 Y 1.1.1.1.U 2         ",
"        5 I #.,.1.X.N * 2 C $.5.;.X.B > < C $.;.,.+.B <         ",
"        % 0 B S C B 5 O # 9 B C C N 8 O O 9 B C C B 7 #         ",
"            > < < >         > < < >         > < < >             "
};
