/* XPM */
static char * footer_right_xpm[] = {
"32 32 517 2",
"  	c #7A7E6D",
". 	c #C0BFA9",
"+ 	c #CEC6A6",
"@ 	c #C8BA90",
"# 	c #C3B688",
"$ 	c #C3BA8A",
"% 	c #C4BC8C",
"& 	c #C2B887",
"* 	c #B9AA78",
"= 	c #AAA868",
"- 	c #8FC066",
"; 	c #6AD263",
"> 	c #92BB67",
", 	c #B59F62",
"' 	c #C0B181",
") 	c #C4B889",
"! 	c #C5B98A",
"~ 	c #C5BA8A",
"{ 	c #C4BA8A",
"] 	c #C9C191",
"^ 	c #CEC394",
"/ 	c #B09F79",
"( 	c #9C9A81",
"_ 	c #DFDBB6",
": 	c #EDDEAE",
"< 	c #E2CB96",
"[ 	c #D8C392",
"} 	c #D8C899",
"| 	c #DACB9D",
"1 	c #D8C697",
"2 	c #CDB480",
"3 	c #B3AB61",
"4 	c #81BE52",
"5 	c #42CC4C",
"6 	c #7DB751",
"7 	c #C7A562",
"8 	c #D5BE8B",
"9 	c #DAC797",
"0 	c #DBC999",
"a 	c #DBC99A",
"b 	c #DBCA9A",
"c 	c #DACA99",
"d 	c #DDCD98",
"e 	c #E8D699",
"f 	c #EBD395",
"g 	c #C8AC77",
"h 	c #90896E",
"i 	c #D6C896",
"j 	c #DFC38B",
"k 	c #D0A673",
"l 	c #C6986D",
"m 	c #C59B74",
"n 	c #C69D77",
"o 	c #C69D78",
"p 	c #C79D78",
"q 	c #C79D77",
"r 	c #C59972",
"s 	c #C18D61",
"t 	c #B68E4C",
"u 	c #9EA549",
"v 	c #7BB34C",
"w 	c #9CA148",
"x 	c #BC854A",
"y 	c #C39469",
"z 	c #C69A72",
"A 	c #C79C74",
"B 	c #C79C75",
"C 	c #C79D75",
"D 	c #C69D75",
"E 	c #C59D74",
"F 	c #C8A274",
"G 	c #D6B278",
"H 	c #DBB779",
"I 	c #B89864",
"J 	c #7C6D53",
"K 	c #CDBA80",
"L 	c #D1AE76",
"M 	c #C58757",
"N 	c #C47746",
"O 	c #C57645",
"P 	c #C57746",
"Q 	c #C47745",
"R 	c #C57541",
"S 	c #C77B3F",
"T 	c #C08B45",
"U 	c #AE984C",
"V 	c #C18A44",
"W 	c #C3753C",
"X 	c #C47541",
"Y 	c #C57644",
"Z 	c #C67644",
"` 	c #C57744",
" .	c #C47744",
"..	c #C37844",
"+.	c #C27744",
"@.	c #BE7645",
"#.	c #C6915D",
"$.	c #D1AE75",
"%.	c #B0996A",
"&.	c #D68843",
"*.	c #D98C48",
"=.	c #D98B47",
"-.	c #D98944",
";.	c #D98943",
">.	c #D58241",
",.	c #D68444",
"'.	c #D78647",
").	c #D78749",
"!.	c #D68849",
"~.	c #D58849",
"{.	c #D58848",
"].	c #D78849",
"^.	c #D3894A",
"/.	c #CB8A4A",
"(.	c #D58A4B",
"_.	c #D68749",
":.	c #D78648",
"<.	c #D88648",
"[.	c #D88647",
"}.	c #D68747",
"|.	c #D58746",
"1.	c #D58543",
"2.	c #D48340",
"3.	c #D3813F",
"4.	c #CA793D",
"5.	c #CD9861",
"6.	c #DAC185",
"7.	c #BAAC7A",
"8.	c #D58944",
"9.	c #D88D48",
"0.	c #D98D47",
"a.	c #D88B45",
"b.	c #D88A44",
"c.	c #DB8C47",
"d.	c #DD9250",
"e.	c #DF9758",
"f.	c #E0995B",
"g.	c #E09A5B",
"h.	c #DF9A5B",
"i.	c #DE9A5B",
"j.	c #DD995B",
"k.	c #DE995B",
"l.	c #DF995B",
"m.	c #DE995A",
"n.	c #DE9958",
"o.	c #DE9451",
"p.	c #DC8D48",
"q.	c #D18140",
"r.	c #D39E63",
"s.	c #DDC686",
"t.	c #BCB079",
"u.	c #DC904C",
"v.	c #E09B5C",
"w.	c #E2A165",
"x.	c #E3A266",
"y.	c #E3A267",
"z.	c #E2A266",
"A.	c #E2A367",
"B.	c #E1A266",
"C.	c #E2A265",
"D.	c #E3A163",
"E.	c #E39E5D",
"F.	c #DD934F",
"G.	c #D98B44",
"H.	c #D28341",
"I.	c #D5A061",
"J.	c #DEC781",
"K.	c #BCB075",
"L.	c #D98A44",
"M.	c #DA904D",
"N.	c #DE9C5D",
"O.	c #E1A165",
"P.	c #E1A166",
"Q.	c #E2A166",
"R.	c #E3A165",
"S.	c #E2A164",
"T.	c #E1A164",
"U.	c #E2A163",
"V.	c #E29F5F",
"W.	c #DD9452",
"X.	c #D88B44",
"Y.	c #D28340",
"Z.	c #D6A15E",
"`.	c #DEC77E",
" +	c #BCB071",
".+	c #D88E4B",
"++	c #DD995A",
"@+	c #E09E60",
"#+	c #E09E61",
"$+	c #E19E61",
"%+	c #DF9E61",
"&+	c #DF9C5E",
"*+	c #DB9251",
"=+	c #D88944",
"-+	c #D3823F",
";+	c #D8A25C",
">+	c #DFC87A",
",+	c #BBB06E",
"'+	c #D78944",
")+	c #D78B49",
"!+	c #DB9656",
"~+	c #DE9B5D",
"{+	c #DE9B5E",
"]+	c #DD9B5E",
"^+	c #DC985B",
"/+	c #D98F4F",
"(+	c #D78743",
"_+	c #D8A25A",
":+	c #DFC876",
"<+	c #BBB06B",
"[+	c #D68743",
"}+	c #D68643",
"|+	c #D58946",
"1+	c #D99353",
"2+	c #DB9759",
"3+	c #DA9759",
"4+	c #DB9758",
"5+	c #DA9758",
"6+	c #DA9556",
"7+	c #D68C4C",
"8+	c #D48542",
"9+	c #D2813F",
"0+	c #D9A258",
"a+	c #DFC673",
"b+	c #BBAE68",
"c+	c #D38644",
"d+	c #D68F4F",
"e+	c #D89454",
"f+	c #D79454",
"g+	c #D79354",
"h+	c #D79353",
"i+	c #D89353",
"j+	c #D69152",
"k+	c #D28A49",
"l+	c #D08440",
"m+	c #D0823E",
"n+	c #DAA257",
"o+	c #E0C470",
"p+	c #BCAB66",
"q+	c #D08441",
"r+	c #D38C4C",
"s+	c #D49050",
"t+	c #D59050",
"u+	c #D58F50",
"v+	c #D48F50",
"w+	c #D58F4F",
"x+	c #D38D4E",
"y+	c #CF8746",
"z+	c #CD823E",
"A+	c #CE823E",
"B+	c #D9A056",
"C+	c #DDBD6E",
"D+	c #B8A362",
"E+	c #CD823F",
"F+	c #D08949",
"G+	c #D18D4D",
"H+	c #D28C4D",
"I+	c #D28B4C",
"J+	c #D18B4C",
"K+	c #D28B4D",
"L+	c #D0894A",
"M+	c #CD8443",
"N+	c #CB7F3C",
"O+	c #CE8744",
"P+	c #D3A25C",
"Q+	c #CEB56F",
"R+	c #B3A368",
"S+	c #CB7F3D",
"T+	c #CB833F",
"U+	c #CC8544",
"V+	c #CD8949",
"W+	c #CE894A",
"X+	c #CE8849",
"Y+	c #CF8849",
"Z+	c #CE8748",
"`+	c #CE8648",
" @	c #CF8747",
".@	c #CE8747",
"+@	c #CE8646",
"@@	c #CD8544",
"#@	c #CA803F",
"$@	c #CA813E",
"%@	c #CC954E",
"&@	c #C1B162",
"*@	c #ADBE6D",
"=@	c #A3B36B",
"-@	c #CA8541",
";@	c #C8803F",
">@	c #C98444",
",@	c #CA8545",
"'@	c #CB8444",
")@	c #CB8344",
"!@	c #CA8343",
"~@	c #CA8243",
"{@	c #CA8242",
"]@	c #CA8342",
"^@	c #CA8241",
"/@	c #C98140",
"(@	c #C87F3E",
"_@	c #C77D3B",
":@	c #CB8541",
"<@	c #C69E51",
"[@	c #A6BB5C",
"}@	c #7DCA5D",
"|@	c #85BE5E",
"1@	c #C8823E",
"2@	c #C47B39",
"3@	c #C57D3D",
"4@	c #C67F3F",
"5@	c #C77F3F",
"6@	c #C77F3E",
"7@	c #C67E3E",
"8@	c #C67E3D",
"9@	c #C57E3D",
"0@	c #C57E3C",
"a@	c #C57D3C",
"b@	c #C47D3B",
"c@	c #C47C3B",
"d@	c #C47A39",
"e@	c #C47937",
"f@	c #C9833F",
"g@	c #C1984B",
"h@	c #9BB34F",
"i@	c #6EC24E",
"j@	c #7AB64F",
"k@	c #C37A37",
"l@	c #C07735",
"m@	c #C07837",
"n@	c #C17938",
"o@	c #C27A39",
"p@	c #C27938",
"q@	c #C07736",
"r@	c #C07635",
"s@	c #C37A38",
"t@	c #C08840",
"u@	c #AD9E48",
"v@	c #93A94D",
"w@	c #8F9C4A",
"x@	c #BE7433",
"y@	c #BD7433",
"z@	c #BD7434",
"A@	c #BD7534",
"B@	c #BC7434",
"C@	c #BD7334",
"D@	c #BD7333",
"E@	c #C27D3B",
"F@	c #C49048",
"G@	c #B7954F",
"H@	c #A18149",
"I@	c #BA7231",
"J@	c #BA7131",
"K@	c #BA7132",
"L@	c #C57F3D",
"M@	c #D5964D",
"N@	c #D19C53",
"O@	c #AF814B",
"P@	c #B86F2F",
"Q@	c #B86F30",
"R@	c #B76E30",
"S@	c #B76F30",
"T@	c #C5803E",
"U@	c #DDA053",
"V@	c #E1AC5C",
"W@	c #BB8E50",
"X@	c #B56C2E",
"Y@	c #B46B2E",
"Z@	c #B46C2E",
"`@	c #C3803E",
" #	c #DBA154",
".#	c #E0AA5A",
"+#	c #B98B4D",
"@#	c #B26A2C",
"##	c #B2692C",
"$#	c #B26A2D",
"%#	c #C0813F",
"&#	c #D9A255",
"*#	c #DDA757",
"=#	c #B7874A",
"-#	c #AF682A",
";#	c #AE682A",
">#	c #AE682B",
",#	c #AF682B",
"'#	c #BE8240",
")#	c #D8A356",
"!#	c #DCA656",
"~#	c #B58448",
"{#	c #AC6629",
"]#	c #AC6729",
"^#	c #AC662A",
"/#	c #AC652A",
"(#	c #BB8343",
"_#	c #D6A458",
":#	c #DAA356",
"<#	c #B38047",
"[#	c #A96328",
"}#	c #A86327",
"|#	c #A86227",
"1#	c #A86228",
"2#	c #A86229",
"3#	c #A76128",
"4#	c #B78244",
"5#	c #D4A45B",
"6#	c #D9A055",
"7#	c #B17C46",
"8#	c #A76127",
"9#	c #A35C25",
"0#	c #A25C25",
"a#	c #A25C24",
"b#	c #A35D28",
"c#	c #A4602B",
"d#	c #A25B26",
"e#	c #A25B25",
"f#	c #B48147",
"g#	c #D4A45E",
"h#	c #D99F56",
"i#	c #B07A45",
"j#	c #9F5824",
"k#	c #9E5824",
"l#	c #9E5825",
"m#	c #A05D2A",
"n#	c #A56939",
"o#	c #AA7447",
"p#	c #A36432",
"q#	c #9F5926",
"r#	c #9F5825",
"s#	c #9F5925",
"t#	c #A05A25",
"u#	c #B5824D",
"v#	c #D7A968",
"w#	c #DDA45E",
"x#	c #B17D49",
"y#	c #A15A25",
"z#	c #A36535",
"A#	c #A36536",
"B#	c #A46836",
"C#	c #AB7943",
"D#	c #B2915A",
"E#	c #B29F6A",
"F#	c #B6925A",
"G#	c #A46A36",
"H#	c #A36735",
"I#	c #A36736",
"J#	c #A26736",
"K#	c #A36837",
"L#	c #A96B39",
"M#	c #BF8F5C",
"N#	c #DEB67C",
"O#	c #E3B67B",
"P#	c #B58C5E",
"Q#	c #A96C3A",
"R#	c #C79A63",
"S#	c #C89B65",
"T#	c #C79B63",
"U#	c #C59B5F",
"V#	c #BEA360",
"W#	c #AEB769",
"X#	c #99C772",
"Y#	c #B6B66B",
"Z#	c #C39B5B",
"`#	c #C79B60",
" $	c #C79D62",
".$	c #C69D63",
"+$	c #C79E65",
"@$	c #CCA26A",
"#$	c #DAB783",
"$$	c #ECD3A1",
"%$	c #EBD3A2",
"&$	c #C2AA7D",
"*$	c #9E9774",
"=$	c #E0D39B",
"-$	c #EED392",
";$	c #E8BF7B",
">$	c #E5B573",
",$	c #E7B677",
"'$	c #E9B879",
")$	c #E8B877",
"!$	c #E1B672",
"~$	c #C6B767",
"{$	c #8CC35A",
"]$	c #4CD354",
"^$	c #89B754",
"/$	c #DEBA6D",
"($	c #E7B873",
"_$	c #E8B875",
":$	c #E8B976",
"<$	c #E7B976",
"[$	c #E8BA78",
"}$	c #EBBE7E",
"|$	c #F1CF96",
"1$	c #F5E4B2",
"2$	c #F0E3B0",
"3$	c #CDBB89",
"4$	c #878162",
"5$	c #C9B57A",
"6$	c #D2AF70",
"7$	c #C68F56",
"8$	c #C07642",
"9$	c #C2713E",
"0$	c #C4723F",
"a$	c #C4733F",
"b$	c #C47440",
"c$	c #C17F44",
"d$	c #AC9649",
"e$	c #7DB24A",
"f$	c #5AC047",
"g$	c #80A947",
"h$	c #BE924D",
"i$	c #C17942",
"j$	c #C3723E",
"k$	c #C4723D",
"l$	c #C4723E",
"m$	c #C4733D",
"n$	c #C9783F",
"o$	c #D09860",
"p$	c #D9BE81",
"q$	c #D7C183",
"r$	c #B19A65",
"  . + @ # $ % % % % % % & * = - ; > , ' ) ! ! ! ! ! ~ { $ ] ^ / ",
"( _ : < [ } | | | | | | 1 2 3 4 5 6 7 8 9 0 a a a b b c d e f g ",
"h i j k l m n o o o p q r s t u v w x y z A B B C D D E F G H I ",
"J K L M N O P P P P N N Q R S T U V W X Y Z ` `  . ...+.@.#.$.%.",
"&.*.=.-.;.>.,.'.).).!.~.{.!.].^./.(._.:.<.[.'.}.|.1.2.3.4.5.6.7.",
"8.9.0.a.b.c.d.e.f.f.g.h.h.h.h.i.j.k.l.f.f.f.l.m.n.o.p.;.q.r.s.t.",
";.;.;.;.;.u.v.w.x.x.y.y.x.y.y.y.y.z.z.A.A.z.B.C.D.E.F.G.H.I.J.K.",
"G.G.G.G.L.M.N.O.P.Q.Q.Q.Q.w.R.R.R.S.S.w.C.S.T.T.U.V.W.X.Y.Z.`. +",
"X.X.X.X.X..+++@+#+#+#+#+$+$+$+$+$+#+%+%+%+%+%+%+%+&+*+=+-+;+>+,+",
"=+'+'+'+'+)+!+~+~+~+~+{+{+{+{+{+{+{+]+]+]+]+]+]+]+^+/+(+-+_+:+<+",
"(+[+[+}+}+|+1+2+2+2+2+3+3+4+4+4+4+5+5+5+5+5+5+5+5+6+7+8+9+0+a+b+",
"8+8+8+8+8+c+d+e+f+g+g+g+h+h+i+h+h+h+h+h+h+h+i+h+h+j+k+l+m+n+o+p+",
"l+l+l+l+l+q+r+s+s+t+u+v+v+v+u+u+u+u+u+u+u+u+u+u+w+x+y+z+A+B+C+D+",
"z+z+z+z+z+E+F+G+G+H+H+I+J+J+I+K+I+I+I+I+I+I+I+I+I+L+M+N+O+P+Q+R+",
"N+S+S+S+S+T+U+V+W+X+Y+Z+Z+`+Z+Z+Z+Z+Z+Z+ @ @.@.@+@@@#@$@%@&@*@=@",
"$@$@$@$@$@-@;@>@,@'@)@!@~@{@{@~@~@{@{@{@]@]@^@^@/@(@_@:@<@[@}@|@",
":@:@:@:@:@1@2@3@4@5@6@7@8@9@9@8@8@8@8@8@8@0@a@b@c@d@e@f@g@h@i@j@",
"f@f@f@f@f@k@l@m@n@o@o@p@n@n@n@n@n@n@n@n@n@n@m@m@q@r@r@s@t@u@v@w@",
"s@s@s@s@s@x@y@z@z@z@A@A@A@A@A@z@z@z@z@z@z@z@z@B@B@C@C@D@E@F@G@H@",
"D@D@D@D@D@I@J@K@K@K@K@K@K@K@K@K@K@K@K@K@K@K@K@K@K@K@K@K@L@M@N@O@",
"K@K@K@K@K@P@Q@Q@Q@Q@Q@R@R@R@R@R@R@R@R@R@R@S@Q@Q@Q@Q@Q@Q@T@U@V@W@",
"Q@Q@Q@Q@Q@X@X@X@X@X@Y@Y@Y@Y@Y@Y@X@X@X@X@X@X@X@Z@Z@Z@X@X@`@ #.#+#",
"X@X@X@X@X@@#@#@#@#@#########@#@#@#@#@#@#@#@#@#$#$#$#$#$#%#&#*#=#",
"$#$#$#$#$#-#-#-#-#-#;#;#;#;#;#;#>#>#>#>#>#>#,#,#,#,#,#,#'#)#!#~#",
",#,#,#,#,#{#]#]#{#{#{#{#{#{#{#{#^#^#^#^#^#{#{#{#{#^#^#/#(#_#:#<#",
"/#/#/#/#/#[#}#|#|#|#|#|#|#|#|#|#1#1#2#1#1#|#|#|#|#1#1#3#4#5#6#7#",
"3#8#8#8#8#9#0#0#0#0#0#0#0#a#0#b#c#0#d#e#0#0#0#a#0#0#0#a#f#g#h#i#",
"a#0#0#0#0#j#k#k#k#k#k#k#k#l#m#n#o#p#q#l#l#k#k#k#k#r#s#t#u#v#w#x#",
"t#y#y#y#t#z#A#A#A#A#A#A#z#B#C#D#E#F#G#H#I#I#J#J#J#I#K#L#M#N#O#P#",
"L#Q#Q#Q#Q#R#S#S#S#S#S#S#T#U#V#W#X#Y#Z#`# $.$.$.$.$.$+$@$#$$$%$&$",
"*$=$-$;$>$,$'$'$'$'$'$'$)$!$~${$]$^$/$($_$:$<$<$<$<$[$}$|$1$2$3$",
"4$5$6$7$8$9$0$0$0$0$0$a$b$c$d$e$f$g$h$i$j$k$k$l$l$k$m$n$o$p$q$r$"};
