/* XPM */
static char * footer_left_xpm[] = {
"32 32 552 2",
"  	c #7A7E6D",
". 	c #C0BFA9",
"+ 	c #CEC6A6",
"@ 	c #C8BA90",
"# 	c #C3B688",
"$ 	c #C3BA8A",
"% 	c #C4BC8C",
"& 	c #C2B887",
"* 	c #B9AA78",
"= 	c #AAA868",
"- 	c #8FC066",
"; 	c #6AD263",
"> 	c #92BB67",
", 	c #B59F62",
"' 	c #C0B181",
") 	c #C4B889",
"! 	c #C5B98A",
"~ 	c #C5BA8A",
"{ 	c #C4BA8A",
"] 	c #C9C191",
"^ 	c #CEC394",
"/ 	c #B09F79",
"( 	c #9C9A81",
"_ 	c #DFDBB6",
": 	c #EDDEAE",
"< 	c #E2CB96",
"[ 	c #D8C392",
"} 	c #D8C899",
"| 	c #DACB9D",
"1 	c #D8C697",
"2 	c #CDB480",
"3 	c #B3AB61",
"4 	c #81BE52",
"5 	c #42CC4C",
"6 	c #7DB751",
"7 	c #C7A562",
"8 	c #D5BE8B",
"9 	c #DAC797",
"0 	c #DBC999",
"a 	c #DBC99A",
"b 	c #DBCA9A",
"c 	c #DACA99",
"d 	c #DDCD98",
"e 	c #E8D699",
"f 	c #EBD395",
"g 	c #C8AC77",
"h 	c #90896E",
"i 	c #D6C896",
"j 	c #DFC38B",
"k 	c #D0A673",
"l 	c #C6986D",
"m 	c #C59B74",
"n 	c #C69D77",
"o 	c #C69D78",
"p 	c #C79D78",
"q 	c #C79D77",
"r 	c #C59972",
"s 	c #C18D61",
"t 	c #B68E4C",
"u 	c #9EA549",
"v 	c #7BB34C",
"w 	c #9CA148",
"x 	c #BC854A",
"y 	c #C39469",
"z 	c #C69A72",
"A 	c #C79C74",
"B 	c #C79C75",
"C 	c #C79D75",
"D 	c #C69D75",
"E 	c #C59D74",
"F 	c #C8A274",
"G 	c #D6B076",
"H 	c #DBB577",
"I 	c #B99763",
"J 	c #776C53",
"K 	c #CCBC82",
"L 	c #D1B078",
"M 	c #C48858",
"N 	c #C37646",
"O 	c #C57645",
"P 	c #C57746",
"Q 	c #C47746",
"R 	c #C47745",
"S 	c #C57541",
"T 	c #C77B3F",
"U 	c #C08B45",
"V 	c #AE984C",
"W 	c #C18A44",
"X 	c #C3753C",
"Y 	c #C47541",
"Z 	c #C57644",
"` 	c #C67644",
" .	c #C57744",
"..	c #C47744",
"+.	c #C37844",
"@.	c #C27744",
"#.	c #BF7745",
"$.	c #D88944",
"%.	c #D98A46",
"&.	c #D88945",
"*.	c #6E654E",
"=.	c #D2C88B",
"-.	c #D7BB82",
";.	c #CD905D",
">.	c #D18144",
",.	c #D58241",
"'.	c #D68444",
").	c #D78647",
"!.	c #D78749",
"~.	c #D68849",
"{.	c #D58849",
"].	c #D58848",
"^.	c #D78849",
"/.	c #D3894A",
"(.	c #CB8A4A",
"_.	c #D58A4B",
":.	c #D68749",
"<.	c #D78648",
"[.	c #D88648",
"}.	c #D88647",
"|.	c #D68747",
"1.	c #D58746",
"2.	c #D58543",
"3.	c #D48340",
"4.	c #D3813F",
"5.	c #CD7D3F",
"6.	c #D98943",
"7.	c #D98843",
"8.	c #6E634C",
"9.	c #D4CA8A",
"0.	c #DBBF80",
"a.	c #D3975D",
"b.	c #D88A47",
"c.	c #DB8C47",
"d.	c #DD9250",
"e.	c #DF9758",
"f.	c #E0995B",
"g.	c #E09A5B",
"h.	c #DF9A5B",
"i.	c #DE9A5B",
"j.	c #DD995B",
"k.	c #DE995B",
"l.	c #DF995B",
"m.	c #DE995A",
"n.	c #DE9958",
"o.	c #DE9451",
"p.	c #DC8D48",
"q.	c #DA8943",
"r.	c #DA8A45",
"s.	c #71614A",
"t.	c #D5C984",
"u.	c #DDC07B",
"v.	c #D5995A",
"w.	c #D98B47",
"x.	c #DC904C",
"y.	c #E09B5C",
"z.	c #E2A165",
"A.	c #E3A266",
"B.	c #E3A267",
"C.	c #E2A266",
"D.	c #E2A367",
"E.	c #E1A266",
"F.	c #E2A265",
"G.	c #E3A163",
"H.	c #E39E5D",
"I.	c #DD934F",
"J.	c #D98B44",
"K.	c #D98C46",
"L.	c #D98B45",
"M.	c #726148",
"N.	c #D5C981",
"O.	c #DEC078",
"P.	c #D69958",
"Q.	c #D88B47",
"R.	c #DA904D",
"S.	c #DE9C5D",
"T.	c #E1A165",
"U.	c #E1A166",
"V.	c #E2A166",
"W.	c #E3A165",
"X.	c #E2A164",
"Y.	c #E1A164",
"Z.	c #E2A163",
"`.	c #E29F5F",
" +	c #DD9452",
".+	c #D88B45",
"++	c #D98C47",
"@+	c #D88B44",
"#+	c #715F46",
"$+	c #D5C87D",
"%+	c #DFC175",
"&+	c #D69957",
"*+	c #D68946",
"=+	c #D88E4B",
"-+	c #DD995A",
";+	c #E09E60",
">+	c #E09E61",
",+	c #E19E61",
"'+	c #DF9E61",
")+	c #DF9C5E",
"!+	c #DB9251",
"~+	c #D88A46",
"{+	c #D88A45",
"]+	c #6F5D44",
"^+	c #D4C77A",
"/+	c #E0C173",
"(+	c #D79A55",
"_+	c #D58844",
":+	c #D78B49",
"<+	c #DB9656",
"[+	c #DE9B5D",
"}+	c #DE9B5E",
"|+	c #DD9B5E",
"1+	c #DC985B",
"2+	c #D98F4F",
"3+	c #D78744",
"4+	c #D78745",
"5+	c #D78743",
"6+	c #6E5C42",
"7+	c #D4C678",
"8+	c #E1C170",
"9+	c #D79A53",
"0+	c #D48743",
"a+	c #D58946",
"b+	c #D99353",
"c+	c #DB9759",
"d+	c #DA9759",
"e+	c #DB9758",
"f+	c #DA9758",
"g+	c #DA9556",
"h+	c #D68C4C",
"i+	c #D48542",
"j+	c #D48643",
"k+	c #D48543",
"l+	c #D3C375",
"m+	c #E3C06E",
"n+	c #D89A52",
"o+	c #D28641",
"p+	c #D38644",
"q+	c #D68F4F",
"r+	c #D89454",
"s+	c #D79454",
"t+	c #D79354",
"u+	c #D79353",
"v+	c #D89353",
"w+	c #D69152",
"x+	c #D28A49",
"y+	c #D08440",
"z+	c #D08441",
"A+	c #6B5941",
"B+	c #CDBA71",
"C+	c #E0B86A",
"D+	c #D6974F",
"E+	c #D0843F",
"F+	c #D38C4C",
"G+	c #D49050",
"H+	c #D59050",
"I+	c #D58F50",
"J+	c #D48F50",
"K+	c #D58F4F",
"L+	c #D38D4E",
"M+	c #CF8746",
"N+	c #CD823F",
"O+	c #CD823E",
"P+	c #7E7152",
"Q+	c #BEAF70",
"R+	c #D4B36D",
"S+	c #D39C57",
"T+	c #CE8642",
"U+	c #D08949",
"V+	c #D18D4D",
"W+	c #D28C4D",
"X+	c #D28B4C",
"Y+	c #D18B4C",
"Z+	c #D28B4D",
"`+	c #D0894A",
" @	c #CD8443",
".@	c #CB7F3D",
"+@	c #CB803D",
"@@	c #CB7F3C",
"#@	c #979562",
"$@	c #A0B96C",
"%@	c #B4BD6C",
"&@	c #C6AB5F",
"*@	c #CD914B",
"=@	c #CB833F",
"-@	c #CC8544",
";@	c #CD8949",
">@	c #CE894A",
",@	c #CE8849",
"'@	c #CF8849",
")@	c #CE8748",
"!@	c #CE8648",
"~@	c #CF8747",
"{@	c #CE8747",
"]@	c #CE8646",
"^@	c #CD8544",
"/@	c #CA803F",
"(@	c #CA813E",
"_@	c #9EA85F",
":@	c #7CC85F",
"<@	c #81C65D",
"[@	c #B0B35A",
"}@	c #CB9B50",
"|@	c #CA8541",
"1@	c #C8803F",
"2@	c #C98444",
"3@	c #CA8545",
"4@	c #CB8444",
"5@	c #CB8344",
"6@	c #CA8343",
"7@	c #CA8243",
"8@	c #CA8242",
"9@	c #CA8342",
"0@	c #CA8241",
"a@	c #C98140",
"b@	c #C87F3E",
"c@	c #C77D3B",
"d@	c #CB8541",
"e@	c #CA8540",
"f@	c #98A151",
"g@	c #71C04F",
"h@	c #71BC4D",
"i@	c #A7AB4E",
"j@	c #C8974A",
"k@	c #C8823E",
"l@	c #C47B39",
"m@	c #C57D3D",
"n@	c #C67F3F",
"o@	c #C77F3F",
"p@	c #C77F3E",
"q@	c #C67E3E",
"r@	c #C67E3D",
"s@	c #C57E3D",
"t@	c #C57E3C",
"u@	c #C57D3C",
"v@	c #C47D3B",
"w@	c #C47C3B",
"x@	c #C47A39",
"y@	c #C47937",
"z@	c #C9833F",
"A@	c #C9823F",
"B@	c #8A8346",
"C@	c #8CA54D",
"D@	c #9BA84D",
"E@	c #B59947",
"F@	c #C3863F",
"G@	c #C37A37",
"H@	c #C07735",
"I@	c #C07837",
"J@	c #C17938",
"K@	c #C27A39",
"L@	c #C27938",
"M@	c #C07736",
"N@	c #C07635",
"O@	c #C37A38",
"P@	c #C27A38",
"Q@	c #765C3E",
"R@	c #A88C4F",
"S@	c #C29951",
"T@	c #C68D47",
"U@	c #C17A38",
"V@	c #BE7433",
"W@	c #BD7433",
"X@	c #BD7434",
"Y@	c #BD7534",
"Z@	c #BC7434",
"`@	c #BD7334",
" #	c #BD7333",
".#	c #66493A",
"+#	c #BF8F53",
"@#	c #DAA357",
"##	c #D0944A",
"$#	c #C07B38",
"%#	c #BA7231",
"&#	c #BA7131",
"*#	c #BA7132",
"=#	c #654B38",
"-#	c #CFA15C",
";#	c #E6B360",
">#	c #D59D4F",
",#	c #BE7C38",
"'#	c #B86F2F",
")#	c #B86F30",
"!#	c #B76E30",
"~#	c #B76F30",
"{#	c #B86F31",
"]#	c #634737",
"^#	c #CE9D59",
"/#	c #E6B260",
"(#	c #D49D50",
"_#	c #BC7A38",
":#	c #B56C2E",
"<#	c #B46B2E",
"[#	c #B46C2E",
"}#	c #B56C2F",
"|#	c #614235",
"1#	c #CC9855",
"2#	c #E6B15E",
"3#	c #D49E50",
"4#	c #BA7937",
"5#	c #B26A2C",
"6#	c #B2692C",
"7#	c #B26A2D",
"8#	c #5F3F34",
"9#	c #CB9552",
"0#	c #D39E51",
"a#	c #B87837",
"b#	c #AF682A",
"c#	c #AE682A",
"d#	c #AE682B",
"e#	c #AF682B",
"f#	c #5B3C32",
"g#	c #CA9050",
"h#	c #E4AF5F",
"i#	c #D29F53",
"j#	c #B67737",
"k#	c #AC6629",
"l#	c #AC6729",
"m#	c #AC662A",
"n#	c #AC652A",
"o#	c #563830",
"p#	c #C78A4D",
"q#	c #E2AE60",
"r#	c #CF9F55",
"s#	c #B27537",
"t#	c #A96328",
"u#	c #A86327",
"v#	c #A86227",
"w#	c #A86228",
"x#	c #A86229",
"y#	c #A76128",
"z#	c #A76127",
"A#	c #51362F",
"B#	c #C6864A",
"C#	c #E0AD61",
"D#	c #CC9F57",
"E#	c #AD7237",
"F#	c #A35C25",
"G#	c #A25C25",
"H#	c #A25C24",
"I#	c #A35D28",
"J#	c #A4602B",
"K#	c #A25B26",
"L#	c #A25B25",
"M#	c #4F352F",
"N#	c #C5844A",
"O#	c #DFAD63",
"P#	c #C99E5A",
"Q#	c #A96F38",
"R#	c #9F5824",
"S#	c #9E5824",
"T#	c #9E5825",
"U#	c #A05D2A",
"V#	c #A56939",
"W#	c #AA7447",
"X#	c #A36432",
"Y#	c #9F5926",
"Z#	c #9F5825",
"`#	c #9F5925",
" $	c #A05A25",
".$	c #564439",
"+$	c #C7965E",
"@$	c #DFB46E",
"#$	c #CAA25F",
"$$	c #AC7742",
"%$	c #A36535",
"&$	c #A36536",
"*$	c #A46836",
"=$	c #AB7943",
"-$	c #B2915A",
";$	c #B29F6A",
">$	c #B6925A",
",$	c #A46A36",
"'$	c #A36735",
")$	c #A36736",
"!$	c #A26736",
"~$	c #A36837",
"{$	c #A96B39",
"]$	c #A96B3A",
"^$	c #7D745B",
"/$	c #D3BC86",
"($	c #E7C986",
"_$	c #DAB572",
":$	c #CA9F63",
"<$	c #C79A63",
"[$	c #C89B65",
"}$	c #C79B63",
"|$	c #C59B5F",
"1$	c #BEA360",
"2$	c #AEB769",
"3$	c #99C772",
"4$	c #B6B66B",
"5$	c #C39B5B",
"6$	c #C79B60",
"7$	c #C79D62",
"8$	c #C69D63",
"9$	c #C79E65",
"0$	c #CCA26A",
"a$	c #DAB783",
"b$	c #EBD2A0",
"c$	c #EAD2A1",
"d$	c #C3A97D",
"e$	c #9D9775",
"f$	c #E0D39B",
"g$	c #EED492",
"h$	c #E9BF7B",
"i$	c #E5B573",
"j$	c #E7B677",
"k$	c #E9B879",
"l$	c #E8B877",
"m$	c #E1B672",
"n$	c #C6B767",
"o$	c #8CC35A",
"p$	c #4CD354",
"q$	c #89B754",
"r$	c #DEBA6D",
"s$	c #E7B873",
"t$	c #E8B875",
"u$	c #E8B976",
"v$	c #E7B976",
"w$	c #E8BA78",
"x$	c #EBBE7E",
"y$	c #F1CF96",
"z$	c #F5E4B2",
"A$	c #F0E3B0",
"B$	c #CDBB89",
"C$	c #878162",
"D$	c #C9B57A",
"E$	c #D2AF70",
"F$	c #C68F56",
"G$	c #C07642",
"H$	c #C2713E",
"I$	c #C4723F",
"J$	c #C4733F",
"K$	c #C47440",
"L$	c #C17F44",
"M$	c #AC9649",
"N$	c #7DB24A",
"O$	c #5AC047",
"P$	c #80A947",
"Q$	c #BE924D",
"R$	c #C17942",
"S$	c #C3723E",
"T$	c #C4723D",
"U$	c #C4723E",
"V$	c #C4733D",
"W$	c #C9783F",
"X$	c #D09860",
"Y$	c #D9BE81",
"Z$	c #D7C183",
"`$	c #B19A65",
"  . + @ # $ % % % % % % & * = - ; > , ' ) ! ! ! ! ! ~ { $ ] ^ / ",
"( _ : < [ } | | | | | | 1 2 3 4 5 6 7 8 9 0 a a a b b c d e f g ",
"h i j k l m n o o o p q r s t u v w x y z A B B C D D E F G H I ",
"J K L M N O P P P P Q Q R S T U V W X Y Z `  . .....+.@.#.$.%.&.",
"*.=.-.;.>.,.'.).!.!.~.{.].~.^./.(._.:.<.[.}.).|.1.2.3.4.5.6.6.7.",
"8.9.0.a.b.c.d.e.f.f.g.h.h.h.h.i.j.k.l.f.f.f.l.m.n.o.p.q.r.q.q.6.",
"s.t.u.v.w.x.y.z.A.A.B.B.A.B.B.B.B.C.C.D.D.C.E.F.G.H.I.J.K.J.L.J.",
"M.N.O.P.Q.R.S.T.U.V.V.V.V.z.W.W.W.X.X.z.F.X.Y.Y.Z.`. +.+++.+L.@+",
"#+$+%+&+*+=+-+;+>+>+>+>+,+,+,+,+,+>+'+'+'+'+'+'+'+)+!+&.~+$.{+$.",
"]+^+/+(+_+:+<+[+[+[+[+}+}+}+}+}+}+}+|+|+|+|+|+|+|+1+2+3+4+3+3+5+",
"6+7+8+9+0+a+b+c+c+c+c+d+d+e+e+e+e+f+f+f+f+f+f+f+f+g+h+i+j+i+k+i+",
"6+l+m+n+o+p+q+r+s+t+t+t+u+u+v+u+u+u+u+u+u+u+v+u+u+w+x+y+z+y+z+y+",
"A+B+C+D+E+z+F+G+G+H+I+J+J+J+I+I+I+I+I+I+I+I+I+I+K+L+M+N+N+N+N+O+",
"P+Q+R+S+T+N+U+V+V+W+W+X+Y+Y+X+Z+X+X+X+X+X+X+X+X+X+`+ @.@+@.@.@@@",
"#@$@%@&@*@=@-@;@>@,@'@)@)@!@)@)@)@)@)@)@~@~@{@{@]@^@/@(@(@(@(@(@",
"_@:@<@[@}@|@1@2@3@4@5@6@7@8@8@7@7@8@8@8@9@9@0@0@a@b@c@d@e@d@d@d@",
"f@g@h@i@j@k@l@m@n@o@p@q@r@s@s@r@r@r@r@r@r@t@u@v@w@x@y@z@k@A@A@z@",
"B@C@D@E@F@G@H@I@J@K@K@L@J@J@J@J@J@J@J@J@J@J@I@I@M@N@N@O@P@O@O@O@",
"Q@R@S@T@U@V@W@X@X@X@Y@Y@Y@Y@Y@X@X@X@X@X@X@X@X@Z@Z@`@`@ # # # # #",
".#+#@###$#%#&#*#*#*#*#*#*#*#*#*#*#*#*#*#*#*#*#*#*#*#*#*#*#*#*#*#",
"=#-#;#>#,#'#)#)#)#)#)#!#!#!#!#!#!#!#!#!#!#~#)#)#)#)#)#)#{#)#)#)#",
"]#^#/#(#_#:#:#:#:#:#<#<#<#<#<#<#:#:#:#:#:#:#:#[#[#[#:#:#}#:#:#:#",
"|#1#2#3#4#5#5#5#5#5#6#6#6#6#5#5#5#5#5#5#5#5#5#7#7#7#7#7#7#7#7#7#",
"8#9#2#0#a#b#b#b#b#b#c#c#c#c#c#c#d#d#d#d#d#d#e#e#e#e#e#e#e#e#e#e#",
"f#g#h#i#j#k#l#l#k#k#k#k#k#k#k#k#m#m#m#m#m#k#k#k#k#m#m#n#m#n#n#n#",
"o#p#q#r#s#t#u#v#v#v#v#v#v#v#v#v#w#w#x#w#w#v#v#v#v#w#w#y#w#z#z#y#",
"A#B#C#D#E#F#G#G#G#G#G#G#G#H#G#I#J#G#K#L#G#G#G#H#G#G#G#H#G#H#H#H#",
"M#N#O#P#Q#R#S#S#S#S#S#S#S#T#U#V#W#X#Y#T#T#S#S#S#S#Z#`# $ $ $ $ $",
".$+$@$#$$$%$&$&$&$&$&$&$%$*$=$-$;$>$,$'$)$)$!$!$!$)$~${$]${${${$",
"^$/$($_$:$<$[$[$[$[$[$[$}$|$1$2$3$4$5$6$7$8$8$8$8$8$9$0$a$b$c$d$",
"e$f$g$h$i$j$k$k$k$k$k$k$l$m$n$o$p$q$r$s$t$u$v$v$v$v$w$x$y$z$A$B$",
"C$D$E$F$G$H$I$I$I$I$I$J$K$L$M$N$O$P$Q$R$S$T$T$U$U$T$V$W$X$Y$Z$`$"};
