/* XPM */
static char * footer_mid_xpm[] = {
"32 32 440 2",
"  	c #7A7E6D",
". 	c #C0BFA9",
"+ 	c #CEC6A6",
"@ 	c #C8BA90",
"# 	c #C3B688",
"$ 	c #C3BA8A",
"% 	c #C4BC8C",
"& 	c #C2B887",
"* 	c #B9AA78",
"= 	c #AAA868",
"- 	c #8FC066",
"; 	c #6AD263",
"> 	c #92BB67",
", 	c #B59F62",
"' 	c #C0B181",
") 	c #C4B889",
"! 	c #C5B98A",
"~ 	c #C5BA8A",
"{ 	c #C4BA8A",
"] 	c #C9C191",
"^ 	c #CEC394",
"/ 	c #B09F79",
"( 	c #9C9A81",
"_ 	c #DFDBB6",
": 	c #EDDEAE",
"< 	c #E2CB96",
"[ 	c #D8C392",
"} 	c #D8C899",
"| 	c #DACB9D",
"1 	c #D8C697",
"2 	c #CDB480",
"3 	c #B3AB61",
"4 	c #81BE52",
"5 	c #42CC4C",
"6 	c #7DB751",
"7 	c #C7A562",
"8 	c #D5BE8B",
"9 	c #DAC797",
"0 	c #DBC999",
"a 	c #DBC99A",
"b 	c #DBCA9A",
"c 	c #DACA99",
"d 	c #DDCD98",
"e 	c #E8D699",
"f 	c #EBD395",
"g 	c #C8AC77",
"h 	c #94896C",
"i 	c #D6C694",
"j 	c #DEC189",
"k 	c #D0A673",
"l 	c #C6986D",
"m 	c #C59B74",
"n 	c #C69D77",
"o 	c #C69D78",
"p 	c #C79D78",
"q 	c #C79D77",
"r 	c #C59973",
"s 	c #C18D61",
"t 	c #B68E4C",
"u 	c #9EA549",
"v 	c #7BB34C",
"w 	c #9CA148",
"x 	c #BC854A",
"y 	c #C39469",
"z 	c #C69A72",
"A 	c #C79C74",
"B 	c #C79C75",
"C 	c #C79D75",
"D 	c #C69D75",
"E 	c #C59D74",
"F 	c #C8A274",
"G 	c #D6B076",
"H 	c #DBB577",
"I 	c #B99763",
"J 	c #D78844",
"K 	c #D98B47",
"L 	c #D98B46",
"M 	c #C58757",
"N 	c #C37646",
"O 	c #C57645",
"P 	c #C57746",
"Q 	c #C47746",
"R 	c #C47745",
"S 	c #C57541",
"T 	c #C77B3F",
"U 	c #C08B45",
"V 	c #AE984C",
"W 	c #C18A44",
"X 	c #C3753C",
"Y 	c #C47541",
"Z 	c #C57644",
"` 	c #C67644",
" .	c #C57744",
"..	c #C47744",
"+.	c #C37844",
"@.	c #C27744",
"#.	c #BF7745",
"$.	c #D88944",
"%.	c #D98A46",
"&.	c #D88945",
"*.	c #D98A44",
"=.	c #D98B44",
"-.	c #D18144",
";.	c #D58241",
">.	c #D68444",
",.	c #D78647",
"'.	c #D78749",
").	c #D68849",
"!.	c #D58849",
"~.	c #D58848",
"{.	c #D78849",
"].	c #D3894A",
"^.	c #CB8A4A",
"/.	c #D58A4B",
"(.	c #D68749",
"_.	c #D78648",
":.	c #D88648",
"<.	c #D88647",
"[.	c #D68747",
"}.	c #D58746",
"|.	c #D58543",
"1.	c #D48340",
"2.	c #D3813F",
"3.	c #CD7D3F",
"4.	c #D98943",
"5.	c #D98843",
"6.	c #D88B44",
"7.	c #DB8C47",
"8.	c #DD9250",
"9.	c #DF9758",
"0.	c #E0995B",
"a.	c #E09A5B",
"b.	c #DF9A5B",
"c.	c #DE9A5B",
"d.	c #DD995B",
"e.	c #DE995B",
"f.	c #DF995B",
"g.	c #DE995A",
"h.	c #DE9958",
"i.	c #DE9451",
"j.	c #DC8D48",
"k.	c #DA8943",
"l.	c #DA8A45",
"m.	c #DC904C",
"n.	c #E09B5C",
"o.	c #E2A165",
"p.	c #E3A266",
"q.	c #E3A267",
"r.	c #E2A266",
"s.	c #E2A367",
"t.	c #E1A266",
"u.	c #E2A265",
"v.	c #E3A163",
"w.	c #E39E5D",
"x.	c #DD934F",
"y.	c #D98C46",
"z.	c #D98B45",
"A.	c #D78743",
"B.	c #DA904D",
"C.	c #DE9C5D",
"D.	c #E1A165",
"E.	c #E1A166",
"F.	c #E2A166",
"G.	c #E3A165",
"H.	c #E2A164",
"I.	c #E1A164",
"J.	c #E2A163",
"K.	c #E29F5F",
"L.	c #DD9452",
"M.	c #D88B45",
"N.	c #D98C47",
"O.	c #D48542",
"P.	c #D78944",
"Q.	c #D88E4B",
"R.	c #DD995A",
"S.	c #E09E60",
"T.	c #E09E61",
"U.	c #E19E61",
"V.	c #DF9E61",
"W.	c #DF9C5E",
"X.	c #DB9251",
"Y.	c #D88A46",
"Z.	c #D88A45",
"`.	c #D08440",
" +	c #D78B49",
".+	c #DB9656",
"++	c #DE9B5D",
"@+	c #DE9B5E",
"#+	c #DD9B5E",
"$+	c #DC985B",
"%+	c #D98F4F",
"&+	c #D78744",
"*+	c #D78745",
"=+	c #CD823F",
"-+	c #D58946",
";+	c #D99353",
">+	c #DB9759",
",+	c #DA9759",
"'+	c #DB9758",
")+	c #DA9758",
"!+	c #DA9556",
"~+	c #D68C4C",
"{+	c #D48643",
"]+	c #D48543",
"^+	c #CB7F3D",
"/+	c #D38644",
"(+	c #D68F4F",
"_+	c #D89454",
":+	c #D79454",
"<+	c #D79354",
"[+	c #D79353",
"}+	c #D89353",
"|+	c #D69152",
"1+	c #D28A49",
"2+	c #D08441",
"3+	c #CA813E",
"4+	c #CD823E",
"5+	c #D38C4C",
"6+	c #D49050",
"7+	c #D59050",
"8+	c #D58F50",
"9+	c #D48F50",
"0+	c #D58F4F",
"a+	c #D38D4E",
"b+	c #CF8746",
"c+	c #CB8541",
"d+	c #CB7F3C",
"e+	c #D08949",
"f+	c #D18D4D",
"g+	c #D28C4D",
"h+	c #D28B4C",
"i+	c #D18B4C",
"j+	c #D28B4D",
"k+	c #D0894A",
"l+	c #CD8443",
"m+	c #CB803D",
"n+	c #C9833F",
"o+	c #CA823E",
"p+	c #CB833F",
"q+	c #CC8544",
"r+	c #CD8949",
"s+	c #CE894A",
"t+	c #CE8849",
"u+	c #CF8849",
"v+	c #CE8748",
"w+	c #CE8648",
"x+	c #CF8747",
"y+	c #CE8747",
"z+	c #CE8646",
"A+	c #CD8544",
"B+	c #CA803F",
"C+	c #C37A39",
"D+	c #CB8641",
"E+	c #CA8541",
"F+	c #C8803F",
"G+	c #C98444",
"H+	c #CA8545",
"I+	c #CB8444",
"J+	c #CB8344",
"K+	c #CA8343",
"L+	c #CA8243",
"M+	c #CA8242",
"N+	c #CA8342",
"O+	c #CA8241",
"P+	c #C98140",
"Q+	c #C87F3E",
"R+	c #C77D3B",
"S+	c #CA8540",
"T+	c #BD7434",
"U+	c #C8823E",
"V+	c #C47B39",
"W+	c #C57D3D",
"X+	c #C67F3F",
"Y+	c #C77F3F",
"Z+	c #C77F3E",
"`+	c #C67E3E",
" @	c #C67E3D",
".@	c #C57E3D",
"+@	c #C57E3C",
"@@	c #C57D3C",
"#@	c #C47D3B",
"$@	c #C47C3B",
"%@	c #C47A39",
"&@	c #C47937",
"*@	c #C9823F",
"=@	c #BB7132",
"-@	c #C37A38",
";@	c #C37A37",
">@	c #C07735",
",@	c #C07837",
"'@	c #C17938",
")@	c #C27A39",
"!@	c #C27938",
"~@	c #C07736",
"{@	c #C07635",
"]@	c #C27A38",
"^@	c #B86F31",
"/@	c #BD7333",
"(@	c #BE7433",
"_@	c #BD7433",
":@	c #BD7534",
"<@	c #BC7434",
"[@	c #BD7334",
"}@	c #B56C2E",
"|@	c #BA7132",
"1@	c #BA7231",
"2@	c #BA7131",
"3@	c #B26A2D",
"4@	c #B86F30",
"5@	c #B86F2F",
"6@	c #B76E30",
"7@	c #B76F30",
"8@	c #AF682B",
"9@	c #B56C2F",
"0@	c #B46B2E",
"a@	c #B46C2E",
"b@	c #AC662A",
"c@	c #B26A2C",
"d@	c #B2692C",
"e@	c #A86128",
"f@	c #AF682A",
"g@	c #AE682A",
"h@	c #AE682B",
"i@	c #A25C24",
"j@	c #AC652A",
"k@	c #AC6629",
"l@	c #AC6729",
"m@	c #A05A25",
"n@	c #A76128",
"o@	c #A86228",
"p@	c #A96328",
"q@	c #A86327",
"r@	c #A86227",
"s@	c #A86229",
"t@	c #A76127",
"u@	c #A86B39",
"v@	c #A25C25",
"w@	c #A35C25",
"x@	c #A35D28",
"y@	c #A4602B",
"z@	c #A25B26",
"A@	c #A25B25",
"B@	c #A15B26",
"C@	c #9F5824",
"D@	c #9E5824",
"E@	c #9E5825",
"F@	c #A05D2A",
"G@	c #A56939",
"H@	c #AA7447",
"I@	c #A36432",
"J@	c #9F5926",
"K@	c #9F5825",
"L@	c #9F5925",
"M@	c #A96C3A",
"N@	c #A96B39",
"O@	c #A36535",
"P@	c #A36536",
"Q@	c #A46836",
"R@	c #AB7943",
"S@	c #B2915A",
"T@	c #B29F6A",
"U@	c #B6925A",
"V@	c #A46A36",
"W@	c #A36735",
"X@	c #A36736",
"Y@	c #A26736",
"Z@	c #A36837",
"`@	c #A96B3A",
" #	c #7E745B",
".#	c #D3BC86",
"+#	c #E7C986",
"@#	c #DAB572",
"##	c #CB9F63",
"$#	c #C79A63",
"%#	c #C89B65",
"&#	c #C79B63",
"*#	c #C59B5F",
"=#	c #BEA360",
"-#	c #AEB769",
";#	c #99C772",
">#	c #B6B66B",
",#	c #C39B5B",
"'#	c #C79B60",
")#	c #C79D62",
"!#	c #C69D63",
"~#	c #C79E65",
"{#	c #CCA26A",
"]#	c #DAB783",
"^#	c #EBD2A0",
"/#	c #EAD2A1",
"(#	c #C3A97D",
"_#	c #9D9775",
":#	c #E0D39B",
"<#	c #EED492",
"[#	c #E9BF7B",
"}#	c #E5B573",
"|#	c #E7B677",
"1#	c #E9B879",
"2#	c #E8B877",
"3#	c #E1B672",
"4#	c #C6B767",
"5#	c #8CC35A",
"6#	c #4CD354",
"7#	c #89B754",
"8#	c #DEBA6D",
"9#	c #E7B873",
"0#	c #E8B875",
"a#	c #E8B976",
"b#	c #E7B976",
"c#	c #E8BA78",
"d#	c #EBBE7E",
"e#	c #F1CF96",
"f#	c #F5E4B2",
"g#	c #F0E3B0",
"h#	c #CDBB89",
"i#	c #878162",
"j#	c #C9B57A",
"k#	c #D2AF70",
"l#	c #C68F56",
"m#	c #C07642",
"n#	c #C2713E",
"o#	c #C4723F",
"p#	c #C4733F",
"q#	c #C47440",
"r#	c #C17F44",
"s#	c #AC9649",
"t#	c #7DB24A",
"u#	c #5AC047",
"v#	c #80A947",
"w#	c #BE924D",
"x#	c #C17942",
"y#	c #C3723E",
"z#	c #C4723D",
"A#	c #C4723E",
"B#	c #C4733D",
"C#	c #C9783F",
"D#	c #D09860",
"E#	c #D9BE81",
"F#	c #D7C183",
"G#	c #B19A65",
"  . + @ # $ % % % % % % & * = - ; > , ' ) ! ! ! ! ! ~ { $ ] ^ / ",
"( _ : < [ } | | | | | | 1 2 3 4 5 6 7 8 9 0 a a a b b c d e f g ",
"h i j k l m n o o o p q r s t u v w x y z A B B C D D E F G H I ",
"J K L M N O P P P P Q Q R S T U V W X Y Z `  . .....+.@.#.$.%.&.",
"*.=.=.$.-.;.>.,.'.'.).!.~.).{.].^./.(._.:.<.,.[.}.|.1.2.3.4.4.5.",
"6.6.6.4.4.7.8.9.0.0.a.b.b.b.b.c.d.e.f.0.0.0.f.g.h.i.j.k.l.k.k.4.",
"$.$.$.=.=.m.n.o.p.p.q.q.p.q.q.q.q.r.r.s.s.r.t.u.v.w.x.=.y.=.z.=.",
"A.A.A.6.6.B.C.D.E.F.F.F.F.o.G.G.G.H.H.o.u.H.I.I.J.K.L.M.N.M.z.6.",
"O.O.O.$.P.Q.R.S.T.T.T.T.U.U.U.U.U.T.V.V.V.V.V.V.V.W.X.&.Y.$.Z.$.",
"`.`.`.A.A. +.+++++++++@+@+@+@+@+@+@+#+#+#+#+#+#+#+$+%+&+*+&+&+A.",
"=+=+=+O.O.-+;+>+>+>+>+,+,+'+'+'+'+)+)+)+)+)+)+)+)+!+~+O.{+O.]+O.",
"^+^+^+`.`./+(+_+:+<+<+<+[+[+}+[+[+[+[+[+[+[+}+[+[+|+1+`.2+`.2+`.",
"3+3+3+4+4+2+5+6+6+7+8+9+9+9+8+8+8+8+8+8+8+8+8+8+0+a+b+=+=+=+=+4+",
"c+c+c+d+^+=+e+f+f+g+g+h+i+i+h+j+h+h+h+h+h+h+h+h+h+k+l+^+m+^+^+d+",
"n+n+n+3+o+p+q+r+s+t+u+v+v+w+v+v+v+v+v+v+x+x+y+y+z+A+B+3+3+3+3+3+",
"C+C+C+c+D+E+F+G+H+I+J+K+L+M+M+L+L+M+M+M+N+N+O+O+P+Q+R+c+S+c+c+c+",
"T+T+T+n+n+U+V+W+X+Y+Z+`+ @.@.@ @ @ @ @ @ @+@@@#@$@%@&@n+U+*@*@n+",
"=@=@=@-@C+;@>@,@'@)@)@!@'@'@'@'@'@'@'@'@'@'@,@,@~@{@{@-@]@-@-@-@",
"^@^@^@/@/@(@_@T+T+T+:@:@:@:@:@T+T+T+T+T+T+T+T+<@<@[@[@/@/@/@/@/@",
"}@}@}@|@=@1@2@|@|@|@|@|@|@|@|@|@|@|@|@|@|@|@|@|@|@|@|@|@|@|@|@|@",
"3@3@3@4@^@5@4@4@4@4@4@6@6@6@6@6@6@6@6@6@6@7@4@4@4@4@4@4@^@4@4@4@",
"8@8@8@}@9@}@}@}@}@}@0@0@0@0@0@0@}@}@}@}@}@}@}@a@a@a@}@}@9@}@}@}@",
"b@b@b@3@3@c@c@c@c@c@d@d@d@d@c@c@c@c@c@c@c@c@c@3@3@3@3@3@3@3@3@3@",
"e@e@e@8@8@f@f@f@f@f@g@g@g@g@g@g@h@h@h@h@h@h@8@8@8@8@8@8@8@8@8@8@",
"i@i@i@j@b@k@l@l@k@k@k@k@k@k@k@k@b@b@b@b@b@k@k@k@k@b@b@j@b@j@j@j@",
"m@m@m@n@o@p@q@r@r@r@r@r@r@r@r@r@o@o@s@o@o@r@r@r@r@o@o@n@o@t@t@n@",
"u@u@u@i@v@w@v@v@v@v@v@v@v@v@v@x@y@v@z@A@v@v@v@i@v@v@v@i@v@i@i@i@",
"B@B@B@m@m@C@D@D@D@D@D@D@D@E@F@G@H@I@J@E@E@D@D@D@D@K@L@m@m@m@m@m@",
"u@M@M@N@N@O@P@P@P@P@P@P@O@Q@R@S@T@U@V@W@X@X@Y@Y@Y@X@Z@N@`@N@N@N@",
" #.#+#@###$#%#%#%#%#%#%#&#*#=#-#;#>#,#'#)#!#!#!#!#!#~#{#]#^#/#(#",
"_#:#<#[#}#|#1#1#1#1#1#1#2#3#4#5#6#7#8#9#0#a#b#b#b#b#c#d#e#f#g#h#",
"i#j#k#l#m#n#o#o#o#o#o#p#q#r#s#t#u#v#w#x#y#z#z#A#A#z#B#C#D#E#F#G#"};
