/* XPM */
static char * open_exit_xpm[] = {
"32 32 347 2",
"  	c #2E2314",
". 	c #4C331E",
"+ 	c #543A23",
"@ 	c #533923",
"# 	c #513722",
"$ 	c #4F3621",
"% 	c #4B321E",
"& 	c #412A16",
"* 	c #3D2714",
"= 	c #3C2614",
"- 	c #3A382C",
"; 	c #39382C",
"> 	c #3F2C1B",
", 	c #3D2B1A",
"' 	c #362516",
") 	c #332416",
"! 	c #312317",
"~ 	c #302217",
"{ 	c #322416",
"] 	c #342515",
"^ 	c #3D4A20",
"/ 	c #42571E",
"( 	c #3F511D",
"_ 	c #322514",
": 	c #312818",
"< 	c #2C271B",
"[ 	c #2A2A20",
"} 	c #2A2C22",
"| 	c #2D2E24",
"1 	c #2C2F25",
"2 	c #2B2D24",
"3 	c #22B1A4",
"4 	c #322011",
"5 	c #5A3D24",
"6 	c #614227",
"7 	c #64452A",
"8 	c #65452B",
"9 	c #65462B",
"0 	c #63442A",
"a 	c #5C3E24",
"b 	c #583A20",
"c 	c #57381E",
"d 	c #56381E",
"e 	c #593A21",
"f 	c #65462C",
"g 	c #5E4026",
"h 	c #5B3D24",
"i 	c #54371E",
"j 	c #583B22",
"k 	c #5E4128",
"l 	c #5D4028",
"m 	c #5B3F27",
"n 	c #553A22",
"o 	c #4B311A",
"p 	c #482E18",
"q 	c #472E18",
"r 	c #462D18",
"s 	c #533921",
"t 	c #62462A",
"u 	c #61452A",
"v 	c #3E3324",
"w 	c #342213",
"x 	c #5E4127",
"y 	c #624329",
"z 	c #604127",
"A 	c #604227",
"B 	c #614228",
"C 	c #5B3D23",
"D 	c #6A4B30",
"E 	c #67482D",
"F 	c #5D3F25",
"G 	c #593B21",
"H 	c #5A3C22",
"I 	c #624328",
"J 	c #5D3F24",
"K 	c #5E4025",
"L 	c #7F5B38",
"M 	c #A27849",
"N 	c #A2784A",
"O 	c #5C4328",
"P 	c #5C3E25",
"Q 	c #67472D",
"R 	c #5C3D23",
"S 	c #64442A",
"T 	c #69492E",
"U 	c #5F4026",
"V 	c #57391F",
"W 	c #68492E",
"X 	c #694A2E",
"Y 	c #906941",
"Z 	c #C19058",
"` 	c #C09057",
" .	c #694E2F",
"..	c #311F0F",
"+.	c #55371E",
"@.	c #68482D",
"#.	c #68482E",
"$.	c #64452B",
"%.	c #5E3F25",
"&.	c #5A3B21",
"*.	c #5B3C22",
"=.	c #5D3E24",
"-.	c #6B4B30",
";.	c #6D4D31",
">.	c #926B42",
",.	c #C8965B",
"'.	c #C29258",
").	c #654B2C",
"!.	c #342111",
"~.	c #583B21",
"{.	c #614328",
"].	c #634429",
"^.	c #66472C",
"/.	c #5F4127",
"(.	c #66462C",
"_.	c #624429",
":.	c #6E4D31",
"<.	c #946D43",
"[.	c #CC985C",
"}.	c #C29158",
"|.	c #61482A",
"1.	c #3B2817",
"2.	c #58391F",
"3.	c #5B3C23",
"4.	c #66472D",
"5.	c #704F33",
"6.	c #966F44",
"7.	c #CB985C",
"8.	c #BF8F57",
"9.	c #5C4427",
"0.	c #402C1A",
"a.	c #6C4C31",
"b.	c #69492F",
"c.	c #6E4E31",
"d.	c #987045",
"e.	c #C6945A",
"f.	c #BA8B54",
"g.	c #584124",
"h.	c #382616",
"i.	c #4F3722",
"j.	c #48301B",
"k.	c #4B311C",
"l.	c #4D331D",
"m.	c #533822",
"n.	c #5A3E26",
"o.	c #5C4028",
"p.	c #52361D",
"q.	c #5B3E25",
"r.	c #61432A",
"s.	c #62442A",
"t.	c #63452B",
"u.	c #5F4126",
"v.	c #654529",
"w.	c #8B653E",
"x.	c #AD814F",
"y.	c #A47A4A",
"z.	c #4E391F",
"A.	c #322213",
"B.	c #563B24",
"C.	c #4E341E",
"D.	c #49301B",
"E.	c #472F1A",
"F.	c #4E3520",
"G.	c #422B17",
"H.	c #412B17",
"I.	c #312012",
"J.	c #2F7A6F",
"K.	c #32281C",
"L.	c #3F2A18",
"M.	c #3E2917",
"N.	c #422D1B",
"O.	c #402A19",
"P.	c #3B2614",
"Q.	c #392514",
"R.	c #3D362F",
"S.	c #46301E",
"T.	c #4A321E",
"U.	c #4C331F",
"V.	c #4B331E",
"W.	c #442C17",
"X.	c #482F1A",
"Y.	c #5C4126",
"Z.	c #705031",
"`.	c #6B4D2F",
" +	c #392B15",
".+	c #412B19",
"++	c #3D2918",
"@+	c #48311E",
"#+	c #412A17",
"$+	c #432B16",
"%+	c #2A1B0E",
"&+	c #24A89C",
"*+	c #303127",
"=+	c #583D25",
"-+	c #563B23",
";+	c #543821",
">+	c #51351D",
",+	c #5F4129",
"'+	c #51351C",
")+	c #4F341B",
"!+	c #4F331B",
"~+	c #2B3229",
"{+	c #23BDB0",
"]+	c #32342A",
"^+	c #593D26",
"/+	c #543922",
"(+	c #4F351F",
"_+	c #492F19",
":+	c #513822",
"<+	c #2E2810",
"[+	c #2F1E10",
"}+	c #4D341E",
"|+	c #3C2613",
"1+	c #3A2614",
"2+	c #3A2514",
"3+	c #402B19",
"4+	c #3D2917",
"5+	c #372313",
"6+	c #352211",
"7+	c #332010",
"8+	c #322010",
"9+	c #342112",
"0+	c #372515",
"a+	c #342516",
"b+	c #33483E",
"c+	c #332517",
"d+	c #392615",
"e+	c #372413",
"f+	c #422C1A",
"g+	c #3D2715",
"h+	c #2E2710",
"i+	c #312011",
"j+	c #593A20",
"k+	c #44311B",
"l+	c #5E4428",
"m+	c #332112",
"n+	c #6C4F2E",
"o+	c #C39258",
"p+	c #684C2C",
"q+	c #342211",
"r+	c #654A2A",
"s+	c #3C2817",
"t+	c #C08F57",
"u+	c #614628",
"v+	c #412C1B",
"w+	c #5D4427",
"x+	c #392616",
"y+	c #4F3622",
"z+	c #5C4027",
"A+	c #523B22",
"B+	c #2C1D10",
"C+	c #402A17",
"D+	c #3A2513",
"E+	c #362312",
"F+	c #382514",
"G+	c #332213",
"H+	c #32483E",
"I+	c #322214",
"J+	c #311F10",
"K+	c #362313",
"L+	c #3B2717",
"M+	c #3C2818",
"N+	c #3C2716",
"O+	c #392413",
"P+	c #47301D",
"Q+	c #49321E",
"R+	c #4B331F",
"S+	c #6D4E30",
"T+	c #3D2C1B",
"U+	c #462E18",
"V+	c #442C18",
"W+	c #543A24",
"X+	c #4A311B",
"Y+	c #4F351E",
"Z+	c #533821",
"`+	c #302113",
" @	c #2C3229",
".@	c #50341C",
"+@	c #5F422A",
"@@	c #563A22",
"#@	c #583C25",
"$@	c #25A89C",
"%@	c #2E2D23",
"&@	c #462E19",
"*@	c #432B17",
"=@	c #402A16",
"-@	c #462F1C",
";@	c #3B2613",
">@	c #3B2615",
",@	c #3B2716",
"'@	c #313328",
")@	c #302012",
"!@	c #3E2814",
"~@	c #3A2716",
"{@	c #432D1B",
"]@	c #3B2715",
"^@	c #392513",
"/@	c #372D1F",
"(@	c #458575",
"_@	c #342D20",
":@	c #48311D",
"<@	c #442D18",
"[@	c #4C341F",
"}@	c #4B321C",
"|@	c #503620",
"1@	c #553A24",
"2@	c #31372D",
"3@	c #322112",
"4@	c #3E3425",
"5@	c #694E2E",
"6@	c #654B2D",
"7@	c #61492C",
"8@	c #3C2917",
"9@	c #5C442A",
"0@	c #412C1A",
"a@	c #584329",
"b@	c #392A17",
"c@	c #503722",
"d@	c #4D341F",
"e@	c #53361D",
"f@	c #4E3B25",
"g@	c #4F7C28",
"h@	c #393121",
"i@	c #453D2C",
"j@	c #423B2A",
"k@	c #413928",
"l@	c #3F3727",
"m@	c #3F3626",
"n@	c #403626",
"o@	c #362D20",
"p@	c #2F7167",
"q@	c #357262",
"r@	c #38543B",
"s@	c #332312",
"t@	c #3B2A16",
"u@	c #3D2B18",
"v@	c #3E2B18",
"w@	c #3E2C19",
"x@	c #3F2C19",
"y@	c #3E2A17",
"z@	c #392614",
"A@	c #3D3522",
"B@	c #3F3A29",
"C@	c #473A28",
"D@	c #4B3420",
"E@	c #6B4D30",
"F@	c #358377",
"  . + @ # $ % & * = - ; > , ' ) ! ~ { ] ^ / ( _ : < [ } | 1 2 3 ",
"4 5 6 7 8 9 0 a b c d e 9 f g a h i j k k l m n o p q r s t u v ",
"w x 0 y z z A B C d d C f D 8 y E y F G H B 0 I g J b K L M N O ",
"4 P f Q 7 y R C a R a S T 7 H b F U C V d F U 0 W W y X Y Z `  .",
"..+.C B @.#.z g $.9 7 U %.R &.G *.Q Q 9 $.C =.E -.9 y ;.>.,.'.).",
"!.~.H H U B {.y ].a C 9 ^.^.^.#./.E y a (.9 _.z A C a :.<.[.}.|.",
"1.f Q f %.C H 2.d =.U U g 3.%.T ^.&.C a *.C z 4.7 y f 5.6.7.8.9.",
"0.a.b.(.y I ].I =.I 0 y z =.z y z R (.#.H d C $./.%.^.c.d.e.f.g.",
"h.i.. j.k.l.m.m n.m o.5 p.q.r.s.t.f $.U b &.].$.y u.a v.w.x.y.z.",
"A.B.C.D.E.F.& G.H.I.J.K.L.M.L.L.N.O.M.P.Q.R.S.T.U.V.W.X.Y.Z.`. +",
"I..+++L.M.@+#+& $+%+&+*+=+-+;+>+,+'+)+!+~+{+]+^+/+(+_+:+W.G.r <+",
"[+}++ @ # $ % & * |+1+2+3+4+5+6+7+8+9+0+a+b+c+d+e+5+4+2+f+g+#+h+",
"i+5 6 7 8 9 0 a b c d j+9 f g a h i j k k l m n o p q r s t u k+",
"w x 0 y z z A B C d d C f D 8 y E y F G H B 0 I g J b K L M N l+",
"m+P f Q 7 y R C a R a S T 7 H b F U C V d F U 0 W W y X Y Z ` n+",
"..+.C B @.#.z g $.9 7 U %.R &.G *.Q Q 9 $.C =.E -.9 y ;.>.,.o+p+",
"q+~.H H U B {.y ].a C 9 ^.^.^.#./.E y a (.9 _.z A C a :.<.[.o+r+",
"s+f Q f %.C H 2.d =.U U g 3.%.T ^.&.C a *.C z 4.7 y f 5.6.7.t+u+",
"v+a.b.(.y I ].I =.I 0 y z =.z y z R (.#.H d C $./.%.^.c.d.e.f.w+",
"x+y+. j.k.l.m.m n.m z+5 p.q.r.s.t.f $.U b &.].$.y u.a v.w.x.y.A+",
"B+G.C+D+L.4+E+F+1.G+H+I+J+K+x+L+M+++N+O+O+4+P+Q+R+V.W.X.Y.Z.S+T+",
"B+U+V+r W+X+Y+Z+=+`+{+ @>+.@)++@>+;+@@#@*+$@%@&@*@=@-@;@>@,@f+'@",
")@(++ @ # $ V.& !@|+- ~@{@L.P.]@^@D+M.{@/@(@_@:@& <@[@E.}@|@1@2@",
"3@5 6 7 8 9 0 a b c d e 9 f g a h i j k k l m n o p q r s t u 4@",
"w x 0 y z z A B C d d C f D 8 y E y F G H B 0 I g J b K L M N O ",
"m+P f Q 7 y R C a R a S T 7 H b F U C V d F U 0 W W y X Y Z ` 5@",
"..+.C B @.#.z g $.9 7 U %.R &.G *.Q Q 9 $.C =.E -.9 y ;.>.,.}.6@",
"w ~.H H U B {.y ].a C 9 ^.^.^.#./.E y a (.9 _.z A C a :.<.[.}.7@",
"8@f Q f %.C H 2.d =.U U g 3.%.T ^.&.C a *.C z 4.7 y f 5.6.7.8.9@",
"0@a.b.(.y I ].I =.I 0 y z =.z y z R (.#.H d C $./.%.^.c.d.e.f.a@",
"b@c@d@D.k.l.m.m n.m o.5 e@P s.0 $.f $.U b &.].$.y u.a v.w.x.y.f@",
"g@h@i@j@k@l@m@n@o@p@q@r@s@t@u@v@w@x@y@z@A@B@C@Q+D@R+W.X.Y.Z.E@F@"};
