/* XPM */
static char * open_exit_xpm[] = {
"32 32 202 2",
"  	c #4FAD7A",
". 	c #21C8BA",
"+ 	c #2D453C",
"@ 	c #2D2317",
"# 	c #2A2015",
"$ 	c #281E13",
"% 	c #291F14",
"& 	c #2B2115",
"* 	c #292015",
"= 	c #28443B",
"- 	c #21BBAE",
"; 	c #334B40",
"> 	c #2F2418",
", 	c #2A1B0E",
"' 	c #28190C",
") 	c #291A0D",
"! 	c #2B1C0F",
"~ 	c #291C0D",
"{ 	c #2E3111",
"] 	c #52832A",
"^ 	c #33391D",
"/ 	c #38402B",
"( 	c #2C3F32",
"_ 	c #27443B",
": 	c #28453D",
"< 	c #2B463D",
"[ 	c #2A463D",
"} 	c #284840",
"| 	c #20C8BA",
"1 	c #589E54",
"2 	c #294E46",
"3 	c #6C4C31",
"4 	c #5E4026",
"5 	c #56381E",
"6 	c #5A3B21",
"7 	c #65462B",
"8 	c #604127",
"9 	c #301F10",
"0 	c #2A2419",
"a 	c #362415",
"b 	c #352414",
"c 	c #2D1C0D",
"d 	c #2E1D0F",
"e 	c #332112",
"f 	c #312011",
"g 	c #2A241A",
"h 	c #264E45",
"i 	c #5B983C",
"j 	c #274E45",
"k 	c #64452B",
"l 	c #6D4C31",
"m 	c #634429",
"n 	c #69492F",
"o 	c #5A3C22",
"p 	c #67482D",
"q 	c #342314",
"r 	c #2A1C10",
"s 	c #28190D",
"t 	c #282319",
"u 	c #5C9631",
"v 	c #41594A",
"w 	c #5B3D23",
"x 	c #6D4D32",
"y 	c #57391F",
"z 	c #694A2F",
"A 	c #63442A",
"B 	c #342214",
"C 	c #281A0E",
"D 	c #262118",
"E 	c #335549",
"F 	c #27493E",
"G 	c #26180C",
"H 	c #2C413F",
"I 	c #28483C",
"J 	c #64452A",
"K 	c #55371D",
"L 	c #66472C",
"M 	c #30402A",
"N 	c #2A473A",
"O 	c #624329",
"P 	c #68492E",
"Q 	c #5F4026",
"R 	c #604227",
"S 	c #614228",
"T 	c #322011",
"U 	c #282218",
"V 	c #303917",
"W 	c #2C4A3E",
"X 	c #291B0F",
"Y 	c #2E3712",
"Z 	c #2B4C41",
"` 	c #583A20",
" .	c #26180B",
"..	c #2B251B",
"+.	c #2A4D44",
"@.	c #27180B",
"#.	c #2A221B",
"$.	c #56A15C",
"%.	c #5D3E24",
"&.	c #5B3C23",
"*.	c #55371E",
"=.	c #5EB886",
"-.	c #325449",
";.	c #604228",
">.	c #69492E",
",.	c #6A4A2F",
"'.	c #5F4127",
").	c #282219",
"!.	c #303813",
"~.	c #3FAEAC",
"{.	c #254449",
"].	c #5B3C22",
"^.	c #6B4B30",
"/.	c #352314",
"(.	c #323914",
"_.	c #2AD1BF",
":.	c #2F1E0F",
"<.	c #26190D",
"[.	c #2D271C",
"}.	c #2F3712",
"|.	c #20D6C7",
"1.	c #5A3B22",
"2.	c #593B21",
"3.	c #5E3F25",
"4.	c #2D1C0E",
"5.	c #6A4B30",
"6.	c #56381F",
"7.	c #2B1D10",
"8.	c #305449",
"9.	c #6D4D31",
"0.	c #67472D",
"a.	c #342213",
"b.	c #2A1B10",
"c.	c #323814",
"d.	c #63E9D1",
"e.	c #254D45",
"f.	c #55381D",
"g.	c #323A18",
"h.	c #5C3E24",
"i.	c #2F3E33",
"j.	c #26180D",
"k.	c #292319",
"l.	c #5F4126",
"m.	c #6B4B31",
"n.	c #5C3D23",
"o.	c #68482E",
"p.	c #65462C",
"q.	c #332213",
"r.	c #2A1C0F",
"s.	c #2B261B",
"t.	c #55381E",
"u.	c #264D45",
"v.	c #5D3F25",
"w.	c #272218",
"x.	c #A6FCDB",
"y.	c #27190D",
"z.	c #262117",
"A.	c #425B4C",
"B.	c #45AA9F",
"C.	c #65462A",
"D.	c #84603C",
"E.	c #845F3C",
"F.	c #435B4D",
"G.	c #5A9941",
"H.	c #C19158",
"I.	c #C9965B",
"J.	c #CD9A5D",
"K.	c #3B2817",
"L.	c #271A0E",
"M.	c #2A454A",
"N.	c #2B473D",
"O.	c #C7955B",
"P.	c #CB985C",
"Q.	c #3A2716",
"R.	c #2C1D0F",
"S.	c #2A2218",
"T.	c #2A4A42",
"U.	c #3EAC8E",
"V.	c #3D3D30",
"W.	c #563F24",
"X.	c #573F24",
"Y.	c #3F2C1A",
"Z.	c #393B2F",
"`.	c #2A3F36",
" +	c #2C1D10",
".+	c #23B1A4",
"++	c #3D4134",
"@+	c #554B36",
"#+	c #564E38",
"$+	c #22C3B5",
"%+	c #42BD9C",
"&+	c #38C8AF",
"*+	c #48A074",
"=+	c #3F361B",
"-+	c #574424",
";+	c #564424",
">+	c #574525",
",+	c #3F3922",
"'+	c #75B588",
")+	c #61D2B0",
"!+	c #62DCBF",
"~+	c #63E7CE",
"  . + @ # $ % & & * = - ; > , ' ) ! ! ) ~ { ] ^ / ( _ : < [ } | ",
"1 2 3 3 4 5 6 7 8 4 9 0 a b 9 c d e f 9 d 9 g 3 3 4 5 6 7 8 4 h ",
"i j k l 4 5 m n o p q r 3 3 4 5 6 7 8 4 s q t k l 4 5 m n o p 2 ",
"u v w x 4 y z A 8 p B C k l 4 5 m n o p ! B D w x 4 y z A 8 p E ",
"u F w 7 5 p n 4 8 p B G w x 4 y z A 8 p ! B D w 7 5 p n 4 8 p H ",
"u I w J K n L 4 8 p q G w 7 5 p n 4 8 p ! q D w J K n L 4 8 p M ",
"u N O J K P 5 Q R S T G w J K n L 4 8 p ! T U O J K P 5 Q R S V ",
"u W z w 5 P 5 Q S K c X O J K P 5 Q R S ) c g z w 5 P 5 Q S K Y ",
"u Z p 5 5 P L y ` 5 c r z w 5 P 5 Q S K  .c ..p 5 5 P L y ` 5 Y ",
"u +.p 8 4 ` P 5 5 5 c r p 5 5 P L y ` 5 @.c #.p 8 4 ` P 5 5 5 Y ",
"$.2 p 8 Q %.k &.5 *.c r p 8 4 ` P 5 5 5  .c g p 8 Q %.k &.5 *.Y ",
"=.-.4 ;.4 >.o ,.w '.f r p 8 Q %.k &.5 *.@.f ).4 ;.4 >.o ,.w '.!.",
"~.{.*.S 4 P ].3 z ^./.C 4 ;.4 >.o ,.w '., /.D *.S 4 P ].3 z ^.(.",
"_.2 L y y P y Q 3 %.:.<.*.S 4 P ].3 z ^.! :.[.L y y P y Q 3 %.}.",
"|.2 p 8 O n y 5 J w d r L y y P y Q 3 %.@.d #.p 8 O n y 5 J w Y ",
"|.2 p 8 x J 5 1.P w d r p 8 O n y 5 J w @.d g p 8 x J 5 1.P w Y ",
"|.2 p 2.3.k A 4 7 y 4.r p 8 x J 5 1.P w @.4.g p 2.3.k A 4 7 y Y ",
"|.2 5.O 5 P n 3.8 6.4.7.p 2.3.k A 4 7 y @.4.0 5.O 5 P n 3.8 6.}.",
"|.8.w 9.4 y P 5 5 0.a.b.5.O 5 P n 3.8 6.' a.D w 9.4 y P 5 5 0.c.",
"d.e.2.7 w 3.>.f.K p q G w 9.4 y P 5 5 0.! q D 2.7 w 3.>.f.K p g.",
"|.e.K 5 f.n Q w h.p B G 2.7 w 3.>.f.K p ! B D K 5 f.n Q w h.p i.",
"|.2 k 5 5 P y Q 8 p B j.K 5 f.n Q w h.p ! B k.k 5 5 P y Q 8 p Z ",
"|.2 p l.m.n.o.8 8 p.q.r.k 5 5 P y Q 8 p ! q.s.p l.m.n.o.8 8 p.2 ",
"|.2 p %.^.].3 3 8 *.c r p l.m.n.o.8 8 p., c #.p %.^.].3 3 8 *.e.",
"|.2 o.K 7 o A 9.R t.c r p %.^.].3 3 8 *. .c g o.K 7 o A 9.R t.e.",
"|.u.&.v.^.o 6 p ` 5 c r o.K 7 o A 9.R t.@.c w.&.v.^.o 6 p ` 5 e.",
"x.8.5 S 3 5.5.3 8 5 4.y.&.v.^.o 6 p ` 5 @.4.z.5 S 3 5.5.3 8 5 A.",
"B.u.C.D.D.E.E.D.D.C.f <.5 S 3 5.5.3 8 5 @.f w.C.D.D.E.E.D.D.C.F.",
"G.2 D.H.I.J.J.I.H.D.K.L.C.D.D.E.E.D.D.C.) K.g D.H.I.J.J.I.H.D.M.",
"u N.D.H.O.P.P.O.H.D.Q.r D.H.I.J.J.I.H.D.R.Q.S.D.H.O.P.P.O.H.D.T.",
"u U.V.W.W.W.W.W.X.Y.Z.`.D.H.O.P.P.O.H.D. +Z..+++@+@+#+#+@+@+++$+",
"u %+|.|.|.|.|.|.|.|.&+*+=+-+;+;+;+;+>+,+'+)+!+~+d.x.|.|.|.|.|.|."};
