/* XPM */
static char *open_exit[] = {
/* columns rows colors chars-per-pixel */
"32 32 42 1",
"  c black",
". c #010101",
"X c #040404",
"o c gray4",
"O c #0B0B0B",
"+ c #0C0C0C",
"@ c gray5",
"# c gray8",
"$ c #151515",
"% c #161616",
"& c gray9",
"* c gray11",
"= c #232323",
"- c gray14",
"; c #252525",
": c gray17",
"> c #2C2C2C",
", c #2D2D2D",
"< c #343434",
"1 c #393939",
"2 c #3A3A3A",
"3 c gray23",
"4 c #3C3C3C",
"5 c #434343",
"6 c #444444",
"7 c #4B4B4B",
"8 c #4C4C4C",
"9 c gray30",
"0 c #4E4E4E",
"q c gray31",
"w c #535353",
"e c gray33",
"r c #555555",
"t c gray36",
"y c gray38",
"u c #626262",
"i c gray47",
"p c #797979",
"a c gray48",
"s c #8D8D8D",
"d c #8E8E8E",
"f c gray56",
/* pixels */
"%$%%%%%%%%%%%%%%%%%%%%%%%%%%%%&%",
"%dddddddddddddddddddddddddddddd%",
"%dddddssddddddddddddddddddddddd%",
"%ddddddddddddddddddddddddddddsd%",
"%dddddddddddddddddddddddddddddd$",
"%ddsddddddddddddddddddddddddddd%",
"%ddd%%%%%%%%%%%%%%%%%%%%%%%%%dd%",
"%ddd$ttttttttttttttttttttttt%dd%",
"%ddd%eeeeeeeeeeweeeeereeeeee%dd%",
"&ddd%88888788888888888888888%dd%",
"%dfd%$%%%%&66666656666666666%dd%",
"%dsd%ipppa$44444444434444444%dd%",
"%ddd%pppip%<<<<<<<<<<<<<<<<<%dd%",
"%ddd%ppppp$>>>>>,,>::>>>>>>>%dd%",
"%ddd%ppppp&$%%%%$;=--;------%dd%",
"%dds%ipppp%uuyyu$***********%dd%",
"%ddd%ppppp%uuuuu%###########%dd%",
"%ddd%ppppp%uuuuu%+++@++++O++%dd%",
"%ddd%ppppp%uuuuu%$%%%%%OoOoO%dd%",
"%ddd%ppppp%uuuuu%00000%Ooooo%dd%",
"%ddd%ppppp%uuuuu$00000%.    %dd%",
"%ddd%ppppp%uuuuu%0009q%%%%&X%dd%",
"%ddd%ppppp%uuuuu%900q0%322%X%dd%",
"%ddd%ppppp%uuuuu%00000%222%X%dd%",
"%ddd%pppap$uyuuu%00000%122%%%dd%",
"%ddd%%%%%%%%%&%%%%%%%%%%%$%%%df%",
"%ddddfdddddddddddddddddsddddddd%",
"%ddddddfdddddsddddddddddddddddd%",
"%dddddddddddddddsddsddddddfddsd%",
"%ddddsdddddddddddddddddfdddfddd%",
"%ddddddddddfddddddddddddddddddd$",
"%%%%%%%%%%$%%%%%%%$%$%%%%%%%%%%%"
};
