/* XPM */
static char *player_up[] = {
/* columns rows colors chars-per-pixel */
"32 64 20 1",
"  c black",
". c #303021212222",
"X c #30302A2A2929",
"o c #3B3B2A2A2B2B",
"O c #3E3E2D2D2E2E",
"+ c #373732323131",
"@ c #4F4F37372A2A",
"# c #484835353636",
"$ c #565633333030",
"% c #5A5A3A3A3737",
"& c #5E5E43433535",
"* c #6B6B4E4E3E3E",
"= c #929235352B2B",
"- c #9B9B36362B2B",
"; c #ACAC41413636",
": c #92927E7E6A6A",
"> c #A6A68F8F7878",
", c #C2C293936D6D",
"< c #DADAACAC8787",
"1 c None",
/* pixels */
"11111111111111111111111111111111",
"11111111111111111111111111111111",
"11111111111111111111111111111111",
"11111111111111111111111111111111",
"11111111111111111111111111111111",
"111111111111++++++++111111111111",
"1111111111++++++++++++1111111111",
"111111111++++++++++++++111111111",
"11111111++++++++++++++++11111111",
"1111111++++++++++++++++++1111111",
"1111111++++++++++++++++++1111111",
"1111111++++++++++++++++++1111111",
"1111111++++++++++++++++++1111111",
"111111++++++++++++++++++++111111",
"111111++++++++++++++++++++111111",
"111111++++++++++++++++++++111111",
"111111++++++++++++++++++++111111",
"111111<++++++++++++++++++<111111",
"111111,X++++++++++++++++X,111111",
"1111111X++++++++++++++++X1111111",
"11111111X+++++++++++++XX11111111",
"111111111X+++++++++++XX111111111",
"1111111111XXX++++++XXX1111111111",
"1111111;%%;;;XXXXXX;;;%%;1111111",
"111111-;%%%;;;;;;;;;;%%%;-111111",
"11111,,-=%%%;;;;;;;;$$$;-,,11111",
"11111,,-;=$$$;;;;;=$$$;;-,,11111",
"11111,<,-;=%%$;;;=%%%=;-,<,11111",
"11111,<,-;;=$$$==$$$=;;-,<,11111",
"11111,<,-;;;=%%%%%%=;;;-,<,11111",
"11111,<<,=;OOO$$$$ooo;=,<<,11111",
"1111,<<<,.OOOOO$%Oooo..,<<<,1111",
"1111,<<<,..OOOOOOOOoo..,<<<,1111",
"1111,<<<,1.OOOOOOoOoo.1,<<<,1111",
"1111,<<<,1.OOOOOooOoo.1,<<<,1111",
"1111,<<,1.OOOOOOooOooo.1,<<,1111",
"1111,<<,1.OOOOOOoOOOoo.1,<<,1111",
"1111,<<,1.OOOOOooOOOoo.1,<<,1111",
"1111,<<,1.ooOOoooOOooO.1,<<,1111",
"1111,<<,.ooOoooooooooO..,<<,1111",
"11111,,1.OOOOOo..ooo#oO.1,,11111",
"11111111.OO#oo.11.OO#OO.11111111",
"11111111.O###O.11.OO#OO.11111111",
"11111111.OO##O.11.OO#OO.11111111",
"11111111.OOO#O.11.OO#OO.11111111",
"11111111.O#O#O.11.O##OO.11111111",
"11111111..OO#O.11.O#OOO.11111111",
"111111111.OOOO.11.OOOO.111111111",
"111111111>OOO.>11>.OOO>111111111",
"111111111&:>>:&11&:>>:&111111111",
"111111111&&**&&11&&**&&111111111",
"1111111111&**&1111&*&&1111111111",
"1111111111&*&&1111&*&&1111111111",
"1111111111&**&1111&*&&1111111111",
"1111111111&**&1111&**&1111111111",
"1111111111&*&&1111&**&1111111111",
"1111111111&*&@1111@&*&1111111111",
"1111111111@@@111111@@@1111111111",
"11111111111111111111111111111111",
"11111111111111111111111111111111",
"11111111111111111111111111111111",
"11111111111111111111111111111111",
"11111111111111111111111111111111",
"11111111111111111111111111111111"
};
