/* XPM */
static char * player_up_xpm[] = {
"32 32 270 2",
"  	c #292323",
". 	c #373231",
"+ 	c #383231",
"@ 	c #423935",
"# 	c #3E3634",
"$ 	c #383331",
"% 	c #3D3633",
"& 	c #604E42",
"* 	c #52443C",
"= 	c #3E3633",
"- 	c #3B3533",
"; 	c #4E413A",
"> 	c #604D42",
", 	c #55453B",
"' 	c #3E3532",
") 	c #3B3432",
"! 	c #504139",
"~ 	c #655042",
"{ 	c #3A3230",
"] 	c #3A3130",
"^ 	c #3A3231",
"/ 	c #393231",
"( 	c #393130",
"_ 	c #38312F",
": 	c #4F3330",
"< 	c #503230",
"[ 	c #503330",
"} 	c #463230",
"| 	c #423231",
"1 	c #453230",
"2 	c #4E322F",
"3 	c #50312E",
"4 	c #4E312E",
"5 	c #763A35",
"6 	c #803934",
"7 	c #843933",
"8 	c #703630",
"9 	c #683430",
"0 	c #673430",
"a 	c #6D342F",
"b 	c #803832",
"c 	c #823933",
"d 	c #783A35",
"e 	c #995442",
"f 	c #7F3E36",
"g 	c #7F3B35",
"h 	c #8E3C35",
"i 	c #953D33",
"j 	c #8B3931",
"k 	c #7F3731",
"l 	c #883832",
"m 	c #8F3B34",
"n 	c #823A34",
"o 	c #803D35",
"p 	c #975040",
"q 	c #AD694F",
"r 	c #C4956F",
"s 	c #BC8665",
"t 	c #AA664E",
"u 	c #934639",
"v 	c #7F3A33",
"w 	c #7E3932",
"x 	c #903C34",
"y 	c #78342E",
"z 	c #4C2C2C",
"A 	c #713430",
"B 	c #7B3732",
"C 	c #7D3832",
"D 	c #914238",
"E 	c #A85F4A",
"F 	c #B87F60",
"G 	c #C3936E",
"H 	c #C89973",
"I 	c #C5946F",
"J 	c #B77A5C",
"K 	c #A45241",
"L 	c #903D34",
"M 	c #783731",
"N 	c #743630",
"O 	c #70332D",
"P 	c #592E2B",
"Q 	c #572F2D",
"R 	c #6C3430",
"S 	c #893B32",
"T 	c #A14C3D",
"U 	c #B47257",
"V 	c #C3906E",
"W 	c #CC9D78",
"X 	c #BF8969",
"Y 	c #A6614B",
"Z 	c #8E4136",
"` 	c #713530",
" .	c #5F3432",
"..	c #613532",
"+.	c #5F3331",
"@.	c #4A2D2C",
"#.	c #582F2D",
"$.	c #7E3A31",
"%.	c #A05946",
"&.	c #BA8264",
"*.	c #CB9B77",
"=.	c #CC9E78",
"-.	c #D2A47F",
";.	c #D3A580",
">.	c #C39573",
",.	c #9A6C53",
"'.	c #6C4036",
").	c #52302E",
"!.	c #492F2F",
"~.	c #4D3130",
"{.	c #4E3231",
"].	c #472E2E",
"^.	c #412A2A",
"/.	c #55332F",
"(.	c #875D49",
"_.	c #BD8E6E",
":.	c #D3A47F",
"<.	c #D5A782",
"[.	c #D5A783",
"}.	c #C79A77",
"|.	c #967157",
"1.	c #583F35",
"2.	c #412E2D",
"3.	c #402D2E",
"4.	c #412D2E",
"5.	c #3F2C2D",
"6.	c #3D2A2B",
"7.	c #432F2C",
"8.	c #745644",
"9.	c #B78D6E",
"0.	c #D4A782",
"a.	c #D3A581",
"b.	c #C59976",
"c.	c #8F6C54",
"d.	c #4F3A33",
"e.	c #3F2D2D",
"f.	c #3E2D2E",
"g.	c #3D2C2C",
"h.	c #3D2C2D",
"i.	c #3C2B2C",
"j.	c #44322E",
"k.	c #5B4439",
"l.	c #A07B60",
"m.	c #C99E7B",
"n.	c #D0A27D",
"o.	c #C59875",
"p.	c #62493D",
"q.	c #412E2E",
"r.	c #3C2C2C",
"s.	c #4A3631",
"t.	c #775A48",
"u.	c #B28A6C",
"v.	c #CDA07D",
"w.	c #D4A681",
"x.	c #CD9F7B",
"y.	c #A98264",
"z.	c #61483C",
"A.	c #3E2C2D",
"B.	c #3B2A2B",
"C.	c #3B2B2C",
"D.	c #553E35",
"E.	c #83634E",
"F.	c #8B6B54",
"G.	c #B99070",
"H.	c #86705E",
"I.	c #8C7764",
"J.	c #D2A37E",
"K.	c #CA9D78",
"L.	c #9A765B",
"M.	c #564036",
"N.	c #3A292A",
"O.	c #4D3832",
"P.	c #8C6A53",
"Q.	c #9A755C",
"R.	c #8F6E57",
"S.	c #745B4A",
"T.	c #7F6856",
"U.	c #44312E",
"V.	c #402E2F",
"W.	c #402F30",
"X.	c #3F2E2F",
"Y.	c #3F2E2E",
"Z.	c #402F2D",
"`.	c #694C3C",
" +	c #725747",
".+	c #7E6655",
"++	c #8F7A66",
"@+	c #3C2B2B",
"#+	c #413031",
"$+	c #423132",
"%+	c #3E2E2D",
"&+	c #6B4E3E",
"*+	c #735948",
"=+	c #816A59",
"-+	c #3A2A2A",
";+	c #413030",
">+	c #412F30",
",+	c #41312F",
"'+	c #7B6858",
")+	c #816B58",
"!+	c #4A342F",
"~+	c #5A4035",
"{+	c #674B3C",
"]+	c #6C4F3F",
"^+	c #7C6452",
"/+	c #907B68",
"(+	c #3E2D2D",
"_+	c #463534",
":+	c #473634",
"<+	c #443432",
"[+	c #453432",
"}+	c #473534",
"|+	c #483834",
"1+	c #7A6757",
"2+	c #7C6553",
"3+	c #6A4E3E",
"4+	c #684B3B",
"5+	c #65493A",
"6+	c #604539",
"7+	c #674B3E",
"8+	c #715242",
"9+	c #775D4C",
"0+	c #58473F",
"a+	c #5F4D43",
"b+	c #614E45",
"c+	c #5D4C42",
"d+	c #5D4B42",
"e+	c #614E44",
"f+	c #604E44",
"g+	c #5B4840",
"h+	c #87715E",
"i+	c #6F5443",
"j+	c #6A4D3D",
"k+	c #6C4E3F",
"l+	c #6A5446",
"m+	c #6D5648",
"n+	c #685344",
"o+	c #675244",
"p+	c #6C5547",
"q+	c #6C5546",
"r+	c #685144",
"s+	c #907C68",
"t+	c #836E5B",
"u+	c #6D5141",
"v+	c #715240",
"w+	c #664C3D",
"x+	c #694E3F",
"y+	c #644B3C",
"z+	c #634A3C",
"A+	c #674D3E",
"B+	c #674C3D",
"C+	c #63493B",
"D+	c #836C5A",
"E+	c #705545",
"F+	c #725544",
"G+	c #634839",
"H+	c #654A3B",
"I+	c #614638",
"J+	c #614537",
"K+	c #644839",
"L+	c #634739",
"M+	c #5F4436",
"N+	c #947F6B",
"O+	c #86705D",
"P+	c #846D5B",
"Q+	c #5F4537",
"R+	c #634738",
"S+	c #5E4335",
"T+	c #5A4032",
"U+	c #5E4435",
"                            . . . .                             ",
"                        . . . . . . . .                         ",
"                      . . . . . . . . . .                       ",
"                      . . . . . . . . . .                       ",
"                    . . . . . . . . . . . .                     ",
"                  + . . . . . . . . . . . . +                   ",
"                  @ # $ . . . . . . . . + % @                   ",
"                  & * = . . . . . . . . - ; >                   ",
"                    , ' + . . . . . . . ) ! ~                   ",
"                      { ] ^ + + + + / ( _                       ",
"                      : < [ } | | 1 2 3 4                       ",
"                      5 6 7 8 9 0 a b c d                       ",
"                    e f g h i j k l m n o p q                   ",
"                r s t u v w x y z A B C D E F G                 ",
"                H I J K L M N O P Q R S T U V H                 ",
"                W W X Y Z `  ...+.@.#.$.%.&.*.=.                ",
"                -.;.>.,.'.).!.~.{.].^./.(._.:.;.                ",
"                <.[.}.|.1.2.3.4.4.5.6.7.8.9.0.<.                ",
"                <.a.b.c.d.e.f.f.g.h.i.j.k.l.m.<.                ",
"                <.n.o.p.q.f.f.h.i.h.r.g.s.t.u.v.                ",
"                w.x.y.z.A.h.h.i.B.h.h.C.D.E.F.G.    H.I.        ",
"                J.K.L.M.h.h.C.N.N.i.f.h.O.P.Q.R.      S.T.I.    ",
"                      U.V.W.h.    h.X.Y.Z.            `. +.+++  ",
"                      @+#+$+X.    h.W.V.%+            `.&+*+=+  ",
"                      -+;+$+f.    f.#+>+,+'+)+    !+~+{+]+]+^+/+",
"                      (+_+:+<+    [+:+}+|+1+2+3+4+5+6+7+8+  9+++",
"                      0+a+b+c+    d+e+f+g+  h+i+j+&+k+          ",
"                        l+m+n+    o+p+q+r+  s+t+u+&+v+          ",
"                        w+x+y+    z+A+B+C+    s+D+E+F+          ",
"                        G+H+I+    J+K+L+M+      N+O+P+          ",
"                        I+L+Q+    M+R+R+M+                      ",
"                        S+S+T+    T+U+M+                        "};
