/* XPM */
static char * player_up_xpm[] = {
"32 32 81 1",
" 	c None",
".	c #927E6A",
"+	c #A18B76",
"@	c #9C8672",
"#	c #917C69",
"$	c #937F6B",
"%	c #9E8974",
"&	c #8E7A66",
"*	c #6F5343",
"=	c #6A4C3C",
"-	c #6E4F3F",
";	c #694B3B",
">	c #7A6150",
",	c #96826E",
"'	c #A18C76",
")	c #8E7966",
"!	c #705444",
"~	c #6B4E3E",
"{	c #6F5040",
"]	c #705140",
"^	c #6D4F3F",
"/	c #6A4D3D",
"(	c #7B6251",
"_	c #A18C77",
":	c #8C7763",
"<	c #755442",
"[	c #795745",
"}	c #775E4D",
"|	c #95806C",
"1	c #A58F7A",
"2	c #8B7663",
"3	c #6D5141",
"4	c #755543",
"5	c #694C40",
"6	c #4B3839",
"7	c #533D3B",
"8	c #725242",
"9	c #745442",
"0	c #765D4C",
"a	c #917D69",
"b	c #917E6A",
"c	c #694C3D",
"d	c #64493B",
"e	c #654A3C",
"f	c #6A4E3E",
"g	c #65493A",
"h	c #5B4034",
"i	c #5E4336",
"j	c #684B3C",
"k	c #654839",
"l	c #4D362E",
"m	c #352527",
"n	c #402E2E",
"o	c #66493A",
"p	c #694C3C",
"q	c #6F5444",
"r	c #372627",
"s	c #3E2D2E",
"t	c #634637",
"u	c #684B3B",
"v	c #785F4E",
"w	c #362627",
"x	c #8D7965",
"y	c #6A4F3F",
"z	c #624536",
"A	c #3C2B2C",
"B	c #654838",
"C	c #664939",
"D	c #7A6251",
"E	c #907B68",
"F	c #8F7B67",
"G	c #917C68",
"H	c #3B2A2B",
"I	c #3D2C2D",
"J	c #3A292A",
"K	c #352526",
"L	c #3D2D2E",
"M	c #342425",
"N	c #3B2B2C",
"O	c #3C2C2D",
"P	c #382829",
"                                ",
"       ..+            @#$       ",
"      %&*=           -;>,'      ",
"      .)!~{         ]^/(..      ",
"     _:*~~~<       []~~~}|1     ",
"     .23~~~~]456789^~~~/0ab     ",
"     .23~~~~~~cdef~~~~~/0a.     ",
"     .23~~~~/cghijc~~~~/0a.     ",
"     .23~~~jk lmn  oop~/0a.     ",
"     .2q~~o    rs   tu~~va.     ",
"      .)!pk    ws    j/(..      ",
"      .xyz     As    BCD..      ",
"       .EF     ss     FG.       ",
"               Hs               ",
"               As               ",
"               ss               ",
"               IJ               ",
"               AK               ",
"               LA               ",
"               AM               ",
"               AK               ",
"               IN               ",
"               AM               ",
"               sI               ",
"               AM               ",
"               AM               ",
"               AM               ",
"               AM               ",
"               AM               ",
"             ssOrM              ",
"             ssIPM              ",
"               AM               "};
