/* XPM */
static char * player_right_xpm[] = {
"32 32 165 2",
"  	c #292323",
". 	c #373231",
"+ 	c #363130",
"@ 	c #463A33",
"# 	c #544237",
"$ 	c #363131",
"% 	c #353030",
"& 	c #926F54",
"* 	c #B98F6D",
"= 	c #CFA17C",
"- 	c #674F3F",
"; 	c #322E2E",
"> 	c #614C3D",
", 	c #D7A983",
"' 	c #DBAD88",
") 	c #332E2D",
"! 	c #342F2D",
"~ 	c #A27E61",
"{ 	c #2D2A2C",
"] 	c #B98E6B",
"^ 	c #DAAC87",
"/ 	c #6C5142",
"( 	c #81624F",
"_ 	c #322C2B",
": 	c #9B775B",
"< 	c #AD8360",
"[ 	c #423631",
"} 	c #725B4B",
"| 	c #D9AB86",
"1 	c #8D9495",
"2 	c #615A40",
"3 	c #302A29",
"4 	c #96755A",
"5 	c #C39672",
"6 	c #D5A884",
"7 	c #D7AA85",
"8 	c #D3A38C",
"9 	c #C88982",
"0 	c #1D1E23",
"a 	c #DAAD87",
"b 	c #DBAC87",
"c 	c #755A4B",
"d 	c #775A4B",
"e 	c #765A4A",
"f 	c #C69C7B",
"g 	c #30282B",
"h 	c #953F37",
"i 	c #BD4A3D",
"j 	c #BC4A3D",
"k 	c #B5483C",
"l 	c #512C2D",
"m 	c #923E37",
"n 	c #BC4E40",
"o 	c #BE5948",
"p 	c #BB4B3D",
"q 	c #6F3632",
"r 	c #A6735C",
"s 	c #D29877",
"t 	c #DBAE88",
"u 	c #CF9172",
"v 	c #785346",
"w 	c #AF896D",
"x 	c #7D614F",
"y 	c #624B40",
"z 	c #36262A",
"A 	c #CA9F7D",
"B 	c #38282B",
"C 	c #3A2A2C",
"D 	c #3C2B2C",
"E 	c #3D2C2D",
"F 	c #35252A",
"G 	c #D6A985",
"H 	c #3E2D2E",
"I 	c #8B7663",
"J 	c #87725F",
"K 	c #85705D",
"L 	c #8A7462",
"M 	c #8E7966",
"N 	c #372728",
"O 	c #382728",
"P 	c #382829",
"Q 	c #372729",
"R 	c #B58E70",
"S 	c #D2A682",
"T 	c #C99E7C",
"U 	c #7F6958",
"V 	c #725848",
"W 	c #6D5141",
"X 	c #705545",
"Y 	c #7B6352",
"Z 	c #8A7562",
"` 	c #98846F",
" .	c #352628",
"..	c #705748",
"+.	c #886955",
"@.	c #A88469",
"#.	c #B08A6D",
"$.	c #3B2B2C",
"%.	c #674A3B",
"&.	c #6B4E3E",
"*.	c #6C4F3F",
"=.	c #7A6150",
"-.	c #8B7662",
";.	c #3D2D2E",
">.	c #715748",
",.	c #A07D63",
"'.	c #785D4C",
").	c #3D2C2C",
"!.	c #6A4D3D",
"~.	c #6C4E3E",
"{.	c #755A49",
"].	c #87705D",
"^.	c #7A5F4E",
"/.	c #D7AB86",
"(.	c #CFA380",
"_.	c #433230",
":.	c #705140",
"<.	c #36252A",
"[.	c #93735C",
"}.	c #785D4D",
"|.	c #39282B",
"1.	c #3A292A",
"2.	c #563D33",
"3.	c #664B3D",
"4.	c #6D4F41",
"5.	c #8F7966",
"6.	c #5B4A42",
"7.	c #5C4B43",
"8.	c #6A584C",
"9.	c #9B846F",
"0.	c #5E4437",
"a.	c #5A423A",
"b.	c #644A3C",
"c.	c #7E6553",
"d.	c #78614F",
"e.	c #745C4C",
"f.	c #5E4335",
"g.	c #694C3D",
"h.	c #624738",
"i.	c #5F4436",
"j.	c #846D5B",
"k.	c #6D5242",
"l.	c #674A3A",
"m.	c #715241",
"n.	c #644839",
"o.	c #887260",
"p.	c #745A49",
"q.	c #6F5040",
"r.	c #65493A",
"s.	c #8F7B67",
"t.	c #826B59",
"u.	c #725746",
"v.	c #6E5242",
"w.	c #6D5040",
"x.	c #715444",
"y.	c #5C4134",
"z.	c #907C68",
"A.	c #8A7461",
"B.	c #7F6856",
"C.	c #8E7764",
"D.	c #583E30",
"E.	c #563D2F",
"F.	c #937F6B",
"G.	c #947F6B",
"H.	c #96816D",
"                        . . . . . . .                           ",
"                      . . . . . . . . .                         ",
"                    . . . . . . . . . .                         ",
"                    . . . . . . . + @ # $                       ",
"                    . . . . . . % & * = -                       ",
"                    . . . ; . . > , ' '                         ",
"                    ) . ! ~ % { ] ^ / (                         ",
"                    _ + : < [ } | ^ 1 2                         ",
"                      3 4 5 6 7 ^ ^ 8 9                         ",
"                        0 ^ ^ ^ ^ ^ ^ a                         ",
"                          b ' ' ' ^ ^                           ",
"                          c d d e f                             ",
"                        g h i j k l                             ",
"                        m n o o p q                             ",
"                        r s ' t u v                             ",
"                        w ^ ^ ^ ^ x                             ",
"                        y ^ ^ ^ ^ x                             ",
"                        z ^ ^ ^ A B                             ",
"                        z ^ ^ ^ A C                             ",
"                  D E   F G ^ ^ A C H     I J K L M             ",
"                  N O P Q R f S T C       U V W X Y Z `         ",
"                         ...+.@.#.$.        %.&.&.*.=.-.        ",
"                        ;.>.,.'.).D           !.&.~.{.].        ",
"                          ^./.(._.D H E       !.:.              ",
"                          <.[.}.E |.    D 1.2.3.4.              ",
"                          5.6.7.8.9.        0.a.                ",
"                          b.c.d.e.        %.&.4.                ",
"                          f.g.h.i.  j.k.l.!.*.m.                ",
"                          f.g.n.f.  o.p.&.&.&.q.                ",
"                          f.g.r.f.  s.t.u.v.w.x.                ",
"                            g.r.y.    z.A.B.B.j.C.              ",
"                            D.E.          F.G.H.                "};
