/* XPM */
static char * player_right_xpm[] = {
"32 32 81 1",
" 	c None",
".	c #927E6A",
"+	c #A18C77",
"@	c #8B7663",
"#	c #8C7763",
"$	c #9E8974",
"%	c #8D7965",
"&	c #8E7966",
"*	c #6F5444",
"=	c #6D5141",
"-	c #6F5343",
";	c #8E7A66",
">	c #907B68",
",	c #6A4F3F",
"'	c #705444",
")	c #6B4E3E",
"!	c #8F7B67",
"~	c #624536",
"{	c #694C3C",
"]	c #6A4C3C",
"^	c #A18B76",
"/	c #654839",
"(	c #66493A",
"_	c #6F5040",
":	c #684B3C",
"<	c #755442",
"[	c #6A4D3D",
"}	c #705140",
"|	c #3E2D2E",
"1	c #694C3D",
"2	c #755543",
"3	c #4D362E",
"4	c #65493A",
"5	c #694C40",
"6	c #3C2B2C",
"7	c #3D2C2D",
"8	c #3C2C2D",
"9	c #3D2D2E",
"0	c #3B2A2B",
"a	c #362627",
"b	c #372627",
"c	c #352527",
"d	c #5B4034",
"e	c #64493B",
"f	c #4B3839",
"g	c #342425",
"h	c #382829",
"i	c #3B2B2C",
"j	c #352526",
"k	c #3A292A",
"l	c #402E2E",
"m	c #5E4336",
"n	c #654A3C",
"o	c #533D3B",
"p	c #6A4E3E",
"q	c #725242",
"r	c #745442",
"s	c #6D4F3F",
"t	c #795745",
"u	c #634637",
"v	c #654838",
"w	c #684B3B",
"x	c #6E4F3F",
"y	c #664939",
"z	c #694B3B",
"A	c #9C8672",
"B	c #917C68",
"C	c #7A6251",
"D	c #7B6251",
"E	c #7A6150",
"F	c #917C69",
"G	c #785F4E",
"H	c #765D4C",
"I	c #775E4D",
"J	c #96826E",
"K	c #937F6B",
"L	c #917D69",
"M	c #95806C",
"N	c #A18C76",
"O	c #917E6A",
"P	c #A58F7A",
"                                ",
"                                ",
"                                ",
"                                ",
"                                ",
"                      .....+    ",
"                    ..@@@@@#.$  ",
"                   .%&*====-&;. ",
"                   >,'))))))'-. ",
"                   !~{)))))))]^ ",
"                     /()))))_   ",
"                       :)))<    ",
"                       /[)}     ",
" ||                     1)2     ",
" ||                    3415     ",
"67866666|6766967|60|6abcdef     ",
"ghbggggg7gijg6jk|||||||lmno     ",
" gg                     :pq     ",
"                        1)r     ",
"                       ())st    ",
"                      u()))}}   ",
"                    v:w{))))sx  ",
"                   !y[))))))[zA ",
"                   BCD)[[[[)DEF ",
"                   ...GHHHHI.JK ",
"                    ..LLLLLM.N  ",
"                      ....OP    ",
"                                ",
"                                ",
"                                ",
"                                ",
"                                "};
