/* XPM */
static char *player_down[] = {
/* columns rows colors chars-per-pixel */
"32 64 23 1",
"  c black",
". c #2D2D27272525",
"X c #303021212222",
"o c #3D3D27272727",
"O c #3E3E2D2D2E2E",
"+ c #373732323131",
"@ c #484835353636",
"# c #565633333030",
"$ c #5A5A3A3A3737",
"% c #5E5E43433535",
"& c #4D4D61613C3C",
"* c #6B6B4E4E3E3E",
"= c #9B9B36362B2B",
"- c #ACAC41413636",
"; c #92927E7E6A6A",
": c #A6A68F8F7878",
"> c #C2C293936D6D",
", c #ADADA7A79292",
"< c #CACA85858585",
"1 c #DADAACAC8787",
"2 c #C2C2BFBFB3B3",
"3 c #F0F0FAFAFFFF",
"4 c None",
/* pixels */
"44444444444444444444444444444444",
"44444444444444444444444444444444",
"44444444444444444444444444444444",
"44444444444444444444444444444444",
"44444444444444444444444444444444",
"44444444444++++++++++44444444444",
"4444444444++++++++++++4444444444",
"444444444++++++++++++++444444444",
"44444444++++++++++++++++44444444",
"44444444++++++++++++++++44444444",
"4444444++++++++++++++++++4444444",
"4444444+++++++++++++++++.4444444",
"4444444+++++++++++++++++.4444444",
"4444444+++++++++++++++++.4444444",
"4444444+++...++++++...++..444444",
"4444444++.>>>......>>>....444444",
"4444444+.>>111>>>>>11>>...444444",
"4444444.1111111111111111..444444",
"4444441>1111111111111111.1444444",
"444444>>111ooo1111ooo111>>444444",
"4444444>>11ooo1111ooo11>>4444444",
"44444444>113&&1111&&311>44444444",
"444444444>11<<1111<<11>444444444",
"4444444444>1111111111>4444444444",
"4444444-$$->111<<111>-$$-4444444",
"444444=-##-->>1111>>--##-=444444",
"44444>>=-$$--->>>>---$$-=>>44444",
"44444>>=-##----------##-=>>44444",
"44444>1>=-##--------##-=>1>44444",
"44444>1>=-$$-XXXXXX-$$-=>1>44444",
"44444>1>=X,2X@@@@@XX,2X=>1>44444",
"44444>11>X2,@@OO@@@@2,X>11>44444",
"4444>111>X@@@@OOOOOOOXX>111>4444",
"4444>111>XXOOOOOOOOOOXX>111>4444",
"4444>111>4XOOOOOOOOOXX4>111>4444",
"4444>111>4XXOOOOOOOXXX4>111>4444",
"4444>11>4XOOOO@XXXXXXXX4>11>4444",
"4444>11>4XOOOOOOOOOXXXX4>11>4444",
"4444>11>4XOOOOOOOOOOXXX4>11>4444",
"4444>11>4XXOOOOOOOOOOXX4>11>4444",
"4444>11>XXXXOOOOOOOOOOXX>11>4444",
"44444>>4XXOOOOOXXOO@OOOX4>>44444",
"44444444XOO@@OX44XXOXXOX44444444",
"44444444OOO@@OX44XX@XOOX44444444",
"44444444XXX@@OX44XXO@OOX44444444",
"44444444XXOO@OX44XOO@@OX44444444",
"44444444XOOO@OX44XOO@OOX44444444",
"44444444XXOO@OX44XXOOOXX44444444",
"444444444XOOOXX44XXXOXX444444444",
"444444444:XXXX:44:XXXX:444444444",
"444444444%;::;%44%;::;%444444444",
"444444444%%**%%44%%**%%444444444",
"4444444444%**%4444%*%%4444444444",
"4444444444%*%%4444%*%%4444444444",
"4444444444%**%4444%*%%4444444444",
"4444444444%**%4444%**%4444444444",
"4444444444%*%%4444%**%4444444444",
"4444444444%*%X4444X%*%4444444444",
"4444444444XXX444444XXX4444444444",
"44444444444444444444444444444444",
"44444444444444444444444444444444",
"44444444444444444444444444444444",
"44444444444444444444444444444444",
"44444444444444444444444444444444"
};
