/* XPM */
static char * player_down_xpm[] = {
"32 32 244 2",
"  	c #292323",
". 	c #373231",
"+ 	c #35302F",
"@ 	c #383231",
"# 	c #342F2D",
"$ 	c #3C3532",
"% 	c #524237",
"& 	c #5A4739",
"* 	c #3A3330",
"= 	c #342F2F",
"- 	c #423832",
"; 	c #493C34",
"> 	c #362F2D",
", 	c #2E2927",
"' 	c #614C3E",
") 	c #AC8363",
"! 	c #BD9474",
"~ 	c #B18B6D",
"{ 	c #A27C5E",
"] 	c #A17B5D",
"^ 	c #A98264",
"/ 	c #BB9271",
"( 	c #A98162",
"_ 	c #5B4739",
": 	c #2A2625",
"< 	c #C09776",
"[ 	c #BC9373",
"} 	c #D4A681",
"| 	c #DBAD87",
"1 	c #D8AA85",
"2 	c #D2A480",
"3 	c #D2A47F",
"4 	c #D5A782",
"5 	c #DAAC86",
"6 	c #D3A580",
"7 	c #A17F64",
"8 	c #96775E",
"9 	c #CA9C77",
"0 	c #D4A680",
"a 	c #D2A581",
"b 	c #926F56",
"c 	c #A27D63",
"d 	c #D7A985",
"e 	c #D8AA86",
"f 	c #9C7960",
"g 	c #957157",
"h 	c #D0A480",
"i 	c #C79B78",
"j 	c #BE9370",
"k 	c #CD9E78",
"l 	c #D2AA8A",
"m 	c #9F9D9A",
"n 	c #83705B",
"o 	c #D4A884",
"p 	c #D6A984",
"q 	c #766653",
"r 	c #ADA9A6",
"s 	c #D3AC8F",
"t 	c #CD9E77",
"u 	c #D1A786",
"v 	c #D2B7A4",
"w 	c #BF997C",
"x 	c #D8AB86",
"y 	c #BC9679",
"z 	c #D8BEAC",
"A 	c #D5AC8E",
"B 	c #78443A",
"C 	c #AD7056",
"D 	c #CB9674",
"E 	c #D5A582",
"F 	c #D8A787",
"G 	c #D9A887",
"H 	c #D4A482",
"I 	c #C8906E",
"J 	c #9F6851",
"K 	c #A8674D",
"L 	c #843A34",
"M 	c #834038",
"N 	c #B46850",
"O 	c #C08063",
"P 	c #C99175",
"Q 	c #CA9475",
"R 	c #BF7E61",
"S 	c #B05F4A",
"T 	c #793E37",
"U 	c #893831",
"V 	c #AC6D52",
"W 	c #C28D6B",
"X 	c #9D483A",
"Y 	c #713632",
"Z 	c #9A3930",
"` 	c #AA4739",
" .	c #B1654C",
"..	c #B1664D",
"+.	c #AA4337",
"@.	c #923730",
"#.	c #793833",
"$.	c #A0513F",
"%.	c #C4906D",
"&.	c #CC9A77",
"*.	c #9E5442",
"=.	c #845E53",
"-.	c #8B655D",
";.	c #873D37",
">.	c #853732",
",.	c #873932",
"'.	c #826357",
").	c #895B52",
"!.	c #A7664F",
"~.	c #CC9B78",
"{.	c #CD9E79",
"].	c #D0A07C",
"^.	c #AA755B",
"/.	c #867A6E",
"(.	c #887E75",
"_.	c #4A3C3B",
":.	c #3D2F31",
"<.	c #3E3031",
"[.	c #453432",
"}.	c #8D8578",
"|.	c #7A6C62",
"1.	c #AF7D61",
"2.	c #D1A07C",
"3.	c #CFA17B",
"4.	c #D6A883",
"5.	c #B9906F",
"6.	c #6B625C",
"7.	c #625850",
"8.	c #463535",
"9.	c #3F2E2F",
"0.	c #412F30",
"a.	c #453535",
"b.	c #716A64",
"c.	c #595048",
"d.	c #BE9471",
"e.	c #D7A983",
"f.	c #D0A17C",
"g.	c #B88D6A",
"h.	c #3B2927",
"i.	c #3B2A2B",
"j.	c #3E2D2E",
"k.	c #3D2C2D",
"l.	c #372628",
"m.	c #3C2B28",
"n.	c #C09572",
"o.	c #D8A984",
"p.	c #CC9D78",
"q.	c #CFA17C",
"r.	c #B58A68",
"s.	c #3C2B29",
"t.	c #39292A",
"u.	c #3C2B2C",
"v.	c #322223",
"w.	c #3C2B27",
"x.	c #BF9370",
"y.	c #D7A984",
"z.	c #CFA07B",
"A.	c #3A292A",
"B.	c #3C2C2D",
"C.	c #332324",
"D.	c #352524",
"E.	c #CA9D79",
"F.	c #B18B6C",
"G.	c #372626",
"H.	c #977255",
"I.	c #856E5C",
"J.	c #87715F",
"K.	c #8B6A54",
"L.	c #8B6B55",
"M.	c #513B32",
"N.	c #372727",
"O.	c #3D2D2E",
"P.	c #3B2A2A",
"Q.	c #735642",
"R.	c #C59A77",
"S.	c #CC9D77",
"T.	c #7D6553",
"U.	c #745A4A",
"V.	c #6C5040",
"W.	c #453334",
"X.	c #332425",
"Y.	c #362627",
"Z.	c #372728",
"`.	c #3A2A2B",
" +	c #392827",
".+	c #7B6351",
"++	c #6D5141",
"@+	c #6A4D3D",
"#+	c #352627",
"$+	c #463334",
"%+	c #3F2D2E",
"&+	c #352526",
"*+	c #684B3D",
"=+	c #583F34",
"-+	c #3D2B2B",
";+	c #3B2B2C",
">+	c #443233",
",+	c #402F30",
"'+	c #60463C",
")+	c #664A3B",
"!+	c #352626",
"~+	c #3F2F2E",
"{+	c #402F2F",
"]+	c #3D2D2D",
"^+	c #362727",
"/+	c #40312E",
"(+	c #372827",
"_+	c #6F5040",
":+	c #6C4E3E",
"<+	c #6E5242",
"[+	c #635246",
"}+	c #463631",
"|+	c #4D3E36",
"1+	c #463731",
"2+	c #443430",
"3+	c #736052",
"4+	c #715545",
"5+	c #79604F",
"6+	c #816A58",
"7+	c #87725F",
"8+	c #725B4B",
"9+	c #745E4E",
"0+	c #786151",
"a+	c #806957",
"b+	c #6F5848",
"c+	c #8F7A66",
"d+	c #8B7563",
"e+	c #654B3C",
"f+	c #6E5343",
"g+	c #674D3D",
"h+	c #674D3E",
"i+	c #614537",
"j+	c #694C3C",
"k+	c #604436",
"l+	c #614637",
"m+	c #604537",
"n+	c #674B3B",
"o+	c #5F4436",
"p+	c #624638",
"q+	c #533B30",
"r+	c #573E33",
"s+	c #48332B",
"t+	c #4B352D",
"u+	c #584034",
"                          . . . . . .                           ",
"                        . . . . . . . .                         ",
"                      . . . . . . . . . .                       ",
"                      . . . . . . . . . +                       ",
"                      . @ @ . . . . @ . #                       ",
"                      $ % & * = + - & ; > ,                     ",
"                      ' ) ! ~ { ] ^ / ( _ :                     ",
"                    < [ } | 1 2 3 4 5 6 7 8                     ",
"                    9 0 a b c d e f g h i j                     ",
"                      k l m n o p q r s t                       ",
"                        u v w e x y z A                         ",
"                      B C D E F G H I J                         ",
"                    K L M N O P Q R S T U V                     ",
"                    W X Y Z `  ...+.@.#.$.%.                    ",
"                    &.*.=.-.;.>.>.,.'.).!.~.                    ",
"                  {.].^./.(._.:.<.[.}.|.1.2.                    ",
"                  3.4.5.6.7.8.9.0.a.b.c.d.e.{.                  ",
"                  f.4.g.h.i.j.j.j.k.l.m.n.o.p.                  ",
"                  q.4.r.s.t.j.k.u.t.v.w.x.y.p.                  ",
"                  z.4   A.u.k.B.i.t.C.D.  1 p.                  ",
"                  E.F.t.t.B.j.j.j.j.t.G.H.4 p.                  ",
"    I.J.          K.L.M.N.i.O.u.u.k.u.P.Q.R.S.                  ",
"J.T.U.V.      i.      N.k.W.j.  X.Y.Z.`. +                      ",
".+++@+    u.          #+t.$+j.    Z.9.%+&+                      ",
"    *+=+-+            C.;+0.k.    B.>+,+&+                      ",
"    '+)+              !+~+{+]+    ^+k./+(+                      ",
"    _+:+<+.+            [+}+|+    1+2+3+                        ",
"    4+5+6+7+            8+6+9+    0+a+b+                        ",
"    c+d+                e+f+e+    g+h+                          ",
"                        i+j+k+    l+m+                          ",
"                        m+n+o+    p+n+                          ",
"                        q+r+s+    t+u+                          "};
