/* XPM */
static char * player_down_xpm[] = {
"32 32 81 1",
" 	c None",
".	c #3C2B2C",
"+	c #342425",
"@	c #3E2D2E",
"#	c #3D2C2D",
"$	c #382829",
"%	c #3C2C2D",
"&	c #372627",
"*	c #3B2B2C",
"=	c #352526",
"-	c #3D2D2E",
";	c #3A292A",
">	c #3B2A2B",
",	c #927E6A",
"'	c #907B68",
")	c #8F7B67",
"!	c #917C68",
"~	c #8D7965",
"{	c #6A4F3F",
"]	c #624536",
"^	c #654838",
"/	c #664939",
"(	c #7A6251",
"_	c #8E7966",
":	c #705444",
"<	c #694C3C",
"[	c #654839",
"}	c #362627",
"|	c #684B3C",
"1	c #6A4D3D",
"2	c #7B6251",
"3	c #8B7663",
"4	c #6F5444",
"5	c #6B4E3E",
"6	c #66493A",
"7	c #634637",
"8	c #684B3B",
"9	c #785F4E",
"0	c #917D69",
"a	c #6D5141",
"b	c #4D362E",
"c	c #352527",
"d	c #402E2E",
"e	c #765D4C",
"f	c #694C3D",
"g	c #65493A",
"h	c #5B4034",
"i	c #5E4336",
"j	c #64493B",
"k	c #654A3C",
"l	c #6A4E3E",
"m	c #705140",
"n	c #755543",
"o	c #694C40",
"p	c #4B3839",
"q	c #533D3B",
"r	c #725242",
"s	c #745442",
"t	c #6D4F3F",
"u	c #917E6A",
"v	c #A18C77",
"w	c #8C7763",
"x	c #6F5343",
"y	c #755442",
"z	c #795745",
"A	c #775E4D",
"B	c #95806C",
"C	c #A58F7A",
"D	c #6F5040",
"E	c #9E8974",
"F	c #8E7A66",
"G	c #6A4C3C",
"H	c #6E4F3F",
"I	c #694B3B",
"J	c #7A6150",
"K	c #96826E",
"L	c #A18C76",
"M	c #A18B76",
"N	c #9C8672",
"O	c #917C69",
"P	c #937F6B",
"               .+               ",
"             @@#$+              ",
"             @@%&+              ",
"               .+               ",
"               .+               ",
"               .+               ",
"               .+               ",
"               .+               ",
"               @#               ",
"               .+               ",
"               #*               ",
"               .=               ",
"               .+               ",
"               -.               ",
"               .=               ",
"               #;               ",
"               @@               ",
"               .@               ",
"               >@               ",
"       ,')     @@     )!,       ",
"      ,~{]     .@    ^/(,,      ",
"      ,_:<[    }@    |12,,      ",
"     ,34556    &@   785590,     ",
"     ,3a555|[ bcd  66<51e0,     ",
"     ,3a55551fghi|f55551e0,     ",
"     ,3a555555fjkl555551e0,     ",
"     ,3a5555mnopqrst5551e0u     ",
"     vwx555y       zm555ABC     ",
"      ,_:5D         mt12,,      ",
"      EFxG           HIJKL      ",
"       ,,M            NOP       ",
"                                "};
