/* XPM */
static char * player_left_xpm[] = {
"32 32 154 2",
"  	c #292323",
". 	c #373231",
"+ 	c #363131",
"@ 	c #544237",
"# 	c #463A33",
"$ 	c #363130",
"% 	c #674F3F",
"& 	c #CFA17C",
"* 	c #B98F6D",
"= 	c #926F54",
"- 	c #353030",
"; 	c #DBAD88",
"> 	c #D7A983",
", 	c #614C3D",
"' 	c #322E2E",
") 	c #81624F",
"! 	c #6C5142",
"~ 	c #DAAC87",
"{ 	c #B98E6B",
"] 	c #2D2A2C",
"^ 	c #A27E61",
"/ 	c #342F2D",
"( 	c #332E2D",
"_ 	c #615A40",
": 	c #8D9495",
"< 	c #D9AB86",
"[ 	c #725B4B",
"} 	c #423631",
"| 	c #AD8360",
"1 	c #9B775B",
"2 	c #322C2B",
"3 	c #C88982",
"4 	c #D3A38C",
"5 	c #D7AA85",
"6 	c #D5A884",
"7 	c #C39672",
"8 	c #96755A",
"9 	c #302A29",
"0 	c #DAAD87",
"a 	c #1D1E23",
"b 	c #DBAC87",
"c 	c #C69C7B",
"d 	c #765A4A",
"e 	c #775A4B",
"f 	c #755A4B",
"g 	c #512C2D",
"h 	c #B5483C",
"i 	c #BC4A3D",
"j 	c #BD4A3D",
"k 	c #953F37",
"l 	c #30282B",
"m 	c #6F3632",
"n 	c #BB4B3D",
"o 	c #BE5948",
"p 	c #BC4E40",
"q 	c #923E37",
"r 	c #785346",
"s 	c #CF9172",
"t 	c #DBAE88",
"u 	c #D29877",
"v 	c #A6735C",
"w 	c #7D614F",
"x 	c #AF896D",
"y 	c #624B40",
"z 	c #38282B",
"A 	c #CA9F7D",
"B 	c #36262A",
"C 	c #3A2A2C",
"D 	c #8E7966",
"E 	c #8A7462",
"F 	c #85705D",
"G 	c #87725F",
"H 	c #8B7663",
"I 	c #3E2D2E",
"J 	c #D6A985",
"K 	c #3D2C2D",
"L 	c #3C2B2C",
"M 	c #98846F",
"N 	c #8A7562",
"O 	c #7B6352",
"P 	c #705545",
"Q 	c #6D5141",
"R 	c #725848",
"S 	c #7F6958",
"T 	c #C99E7C",
"U 	c #D2A682",
"V 	c #B08A6D",
"W 	c #A88469",
"X 	c #382829",
"Y 	c #382728",
"Z 	c #372728",
"` 	c #8B7662",
" .	c #7A6150",
"..	c #6C4F3F",
"+.	c #6B4E3E",
"@.	c #674A3B",
"#.	c #3B2B2C",
"$.	c #87705D",
"%.	c #755A49",
"&.	c #6C4E3E",
"*.	c #6A4D3D",
"=.	c #705140",
"-.	c #433230",
";.	c #CFA380",
">.	c #D7AB86",
",.	c #7A5F4E",
"'.	c #6D4F41",
").	c #664B3D",
"!.	c #563D33",
"~.	c #3A292A",
"{.	c #39282B",
"].	c #785D4D",
"^.	c #93735C",
"/.	c #36252A",
"(.	c #5A423A",
"_.	c #5E4437",
":.	c #9B846F",
"<.	c #6A584C",
"[.	c #5C4B43",
"}.	c #5B4A42",
"|.	c #8F7966",
"1.	c #745C4C",
"2.	c #78614F",
"3.	c #7E6553",
"4.	c #644A3C",
"5.	c #715241",
"6.	c #674A3A",
"7.	c #6D5242",
"8.	c #846D5B",
"9.	c #5F4436",
"0.	c #624738",
"a.	c #694C3D",
"b.	c #5E4335",
"c.	c #6F5040",
"d.	c #745A49",
"e.	c #887260",
"f.	c #644839",
"g.	c #715444",
"h.	c #6D5040",
"i.	c #6E5242",
"j.	c #725746",
"k.	c #826B59",
"l.	c #8F7B67",
"m.	c #65493A",
"n.	c #8E7764",
"o.	c #7F6856",
"p.	c #8A7461",
"q.	c #907C68",
"r.	c #5C4134",
"s.	c #96816D",
"t.	c #947F6B",
"u.	c #937F6B",
"v.	c #563D2F",
"w.	c #583E30",
"                          . . . . . . .                         ",
"                        . . . . . . . . .                       ",
"                        . . . . . . . . . .                     ",
"                      + @ # $ . . . . . . .                     ",
"                      % & * = - . . . . . .                     ",
"                        ; ; > , . . ' . . .                     ",
"                        ) ! ~ { ] - ^ / . (                     ",
"                        _ : ~ < [ } | 1 $ 2                     ",
"                        3 4 ~ ~ 5 6 7 8 9                       ",
"                        0 ~ ~ ~ ~ ~ ~ a                         ",
"                          ~ ~ ; ; ; b                           ",
"                            c d e e f                           ",
"                            g h i j k l                         ",
"                            m n o o p q                         ",
"                            r s t ; u v                         ",
"                            w ~ ~ ~ ~ x                         ",
"                            w ~ ~ ~ ~ y                         ",
"                            z A ~ ~ ~ B                         ",
"                            C A ~ ~ ~ B                         ",
"            D E F G H     I C A ~ ~ J B   K L                   ",
"        M N O P Q R S       C T U V W B X Y Z                   ",
"        `  ...+.+.@.        #.V V V W B                         ",
"        $.%.&.+.*.          L V V V W B                         ",
"              =.*.      K I L -.;.>.,.B                         ",
"              '.).!.~.L     {.K ].^./.B                         ",
"                (._.        :.<.[.}.|.                          ",
"                '.+.@.        1.2.3.4.                          ",
"                5...*.6.7.8.  9.0.a.b.                          ",
"                c.+.+.+.d.e.  b.f.a.b.                          ",
"                g.h.i.j.k.l.  b.m.a.b.                          ",
"              n.8.o.o.p.q.    r.m.a.                            ",
"                s.t.u.          v.w.                            "};
