/* XPM */
static char * player_left_xpm[] = {
"32 32 81 1",
" 	c None",
".	c #A18C77",
"+	c #927E6A",
"@	c #9E8974",
"#	c #8C7763",
"$	c #8B7663",
"%	c #8E7A66",
"&	c #8E7966",
"*	c #6F5343",
"=	c #6D5141",
"-	c #6F5444",
";	c #8D7965",
">	c #705444",
",	c #6B4E3E",
"'	c #6A4F3F",
")	c #907B68",
"!	c #A18B76",
"~	c #6A4C3C",
"{	c #694C3C",
"]	c #624536",
"^	c #8F7B67",
"/	c #6F5040",
"(	c #66493A",
"_	c #654839",
":	c #755442",
"<	c #684B3C",
"[	c #705140",
"}	c #6A4D3D",
"|	c #755543",
"1	c #694C3D",
"2	c #3E2D2E",
"3	c #694C40",
"4	c #65493A",
"5	c #4D362E",
"6	c #4B3839",
"7	c #64493B",
"8	c #5B4034",
"9	c #352527",
"0	c #372627",
"a	c #362627",
"b	c #3C2B2C",
"c	c #3B2A2B",
"d	c #3D2C2D",
"e	c #3D2D2E",
"f	c #3C2C2D",
"g	c #533D3B",
"h	c #654A3C",
"i	c #5E4336",
"j	c #402E2E",
"k	c #3A292A",
"l	c #352526",
"m	c #342425",
"n	c #3B2B2C",
"o	c #382829",
"p	c #725242",
"q	c #6A4E3E",
"r	c #745442",
"s	c #795745",
"t	c #6D4F3F",
"u	c #634637",
"v	c #6E4F3F",
"w	c #684B3B",
"x	c #654838",
"y	c #9C8672",
"z	c #694B3B",
"A	c #664939",
"B	c #917C69",
"C	c #7A6150",
"D	c #7B6251",
"E	c #7A6251",
"F	c #917C68",
"G	c #937F6B",
"H	c #96826E",
"I	c #775E4D",
"J	c #765D4C",
"K	c #785F4E",
"L	c #A18C76",
"M	c #95806C",
"N	c #917D69",
"O	c #A58F7A",
"P	c #917E6A",
"                                ",
"                                ",
"                                ",
"                                ",
"                                ",
"    .+++++                      ",
"  @+#$$$$$++                    ",
" +%&*====-&;+                   ",
" +*>,,,,,,>')                   ",
" !~,,,,,,,{]^                   ",
"   /,,,,,(_                     ",
"    :,,,<                       ",
"     [,}_                       ",
"     |,1                     22 ",
"     3145                    22 ",
"     67890ab2cb2dbebbdb2bbbbbfdb",
"     ghij2222222klbmlnmdmmmmm0om",
"     pq<                     mm ",
"     r,1                        ",
"    st,,(                       ",
"   [[,,,(u                      ",
"  vt,,,,{w<x                    ",
" yz},,,,,,}A^                   ",
" BCD,}}}},DEF                   ",
" GH+IJJJJK+++                   ",
"  L+MNNNNN++                    ",
"    OP++++                      ",
"                                ",
"                                ",
"                                ",
"                                ",
"                                "};
