/* XPM */
static char *player_right[] = {
/* columns rows colors chars-per-pixel */
"32 64 19 1",
"  c black",
". c #30302A2A2929",
"X c #3D3D27272727",
"o c #3E3E2D2D2E2E",
"O c #373732323131",
"+ c #4F4F37372A2A",
"@ c #5E5E43433535",
"# c #4D4D61613C3C",
"$ c #6B6B4E4E3E3E",
"% c #959534342A2A",
"& c #BBBB4A4A3D3D",
"* c #A6A68F8F7878",
"= c #B8B88B8B6666",
"- c #C2C293936D6D",
"; c #C5C599997575",
": c #CACA85858585",
"> c #DADAACAC8787",
", c #F0F0FAFAFFFF",
"< c None",
/* pixels */
"<<<<<<<<<<<<<<<<<<<<<<<<<<<<<<<<",
"<<<<<<<<<<<<<<<<<<<<<<<<<<<<<<<<",
"<<<<<<<<<<<<<<<<<<<<<<<<<<<<<<<<",
"<<<<<<<<<<<<<<<<<<<<<<<<<<<<<<<<",
"<<<<<<<<<<<<<<<<<<<<<<<<<<<<<<<<",
"<<<<<<<<<<<<<<<<<<<<<<<<<<<<<<<<",
"<<<<<<<<<<OOOOOOOOOOO<<<<<<<<<<<",
"<<<<<<<<<OOOOOOOOOOOOO<<<<<<<<<<",
"<<<<<<<<OOOOOOOOOOOOOOO<<<<<<<<<",
"<<<<<<<OOOOOOOOOOOOOOOOO<<<<<<<<",
"<<<<<<<OOOOOOOOOOOOOOOOO<<<<<<<<",
"<<<<<<<OOOOOOOOOOOOOO..OO<<<<<<<",
"<<<<<<<OOOOOOOOOOOO..--.O<<<<<<<",
"<<<<<<<OOOOOOOOOOO.-->>-.<<<<<<<",
"<<<<<<<OOOOOOOOOO.->>>>><<<<<<<<",
"<<<<<<<OOOOO.OOOO.>>>>>><<<<<<<<",
"<<<<<<<.OOO.;.OO.->>XXX><<<<<<<<",
"<<<<<<<.OO.;=.OO.>>>XXX><<<<<<<<",
"<<<<<<<<.O.===..>>>>,##><<<<<<<<",
"<<<<<<<<...;=>>>>>>>>:::<<<<<<<<",
"<<<<<<<<<...>>>>>>>>>>>><<<<<<<<",
"<<<<<<<<<<..>>>>>>>>>>><<<<<<<<<",
"<<<<<<<<<<<.>>>>>>>>>><<<<<<<<<<",
"<<<<<<<<<<<;>>>>>>>>><<<<<<<<<<<",
"<<<<<<<<<<<;ooooooo><<<<<<<<<<<<",
"<<<<<<<<<<<oo&&&&&oo<<<<<<<<<<<<",
"<<<<<<<<<<oo&&&&&&&o;<<<<<<<<<<<",
"<<<<<<<<<<o&&&&&&&&o%<<<<<<<<<<<",
"<<<<<<<<<<o&&>>>>&&o%<<<<<<<<<<<",
"<<<<<<<<<<o>>>>>>>>o%<<<<<<<<<<<",
"<<<<<<<<<<o>>>>>>>>o%<<<<<<<<<<<",
"<<<<<<<<<<o>>>>>>>>o%<<<<<<<<<<<",
"<<<<<<<<<<oo>>>>>>>oo<<<<<<<<<<<",
"<<<<<<<<<<oo>>>>>>ooo<<<<<<<<<<<",
"<<<<<<<<<<oo>>>>>>ooo<<<<<<<<<<<",
"<<<<<<<<<<oo>>>>>>ooo<<<<<<<<<<<",
"<<<<<<<<<<oo>>>>>>ooo<<<<<<<<<<<",
"<<<<<<<<<<<o>>>>>>ooo<<<<<<<<<<<",
"<<<<<<<<<<<o>>>>>>oo<<<<<<<<<<<<",
"<<<<<<<<<<<o>>>>>>oo<<<<<<<<<<<<",
"<<<<<<<<<<<o>>>>>>oo<<<<<<<<<<<<",
"<<<<<<<<<<<oo>>>>ooo<<<<<<<<<<<<",
"<<<<<<<<<<<oo>>>>ooo<<<<<<<<<<<<",
"<<<<<<<<<<<oo>>>>ooo<<<<<<<<<<<<",
"<<<<<<<<<<<ooo>>oooo<<<<<<<<<<<<",
"<<<<<<<<<<<ooooooooo<<<<<<<<<<<<",
"<<<<<<<<<<<**ooooo**<<<<<<<<<<<<",
"<<<<<<<<<<<@@*****@@<<<<<<<<<<<<",
"<<<<<<<<<<<<@@$@@@@<<<<<<<<<<<<<",
"<<<<<<<<<<<<@@$$@@@<<<<<<<<<<<<<",
"<<<<<<<<<<<<@@$@@@@<<<<<<<<<<<<<",
"<<<<<<<<<<<<@@$$@@@<<<<<<<<<<<<<",
"<<<<<<<<<<<<@@$$@@<<<<<<<<<<<<<<",
"<<<<<<<<<<<<<@$$@@<<<<<<<<<<<<<<",
"<<<<<<<<<<<<<@$$@@<<<<<<<<<<<<<<",
"<<<<<<<<<<<<<@$$@+<<<<<<<<<<<<<<",
"<<<<<<<<<<<<<++++<<<<<<<<<<<<<<<",
"<<<<<<<<<<<<<<<<<<<<<<<<<<<<<<<<",
"<<<<<<<<<<<<<<<<<<<<<<<<<<<<<<<<",
"<<<<<<<<<<<<<<<<<<<<<<<<<<<<<<<<",
"<<<<<<<<<<<<<<<<<<<<<<<<<<<<<<<<",
"<<<<<<<<<<<<<<<<<<<<<<<<<<<<<<<<",
"<<<<<<<<<<<<<<<<<<<<<<<<<<<<<<<<",
"<<<<<<<<<<<<<<<<<<<<<<<<<<<<<<<<"
};
