/* XPM */
static char * wall_xpm[] = {
"32 32 686 2",
"  	c #E5A581",
". 	c #DD8F75",
"+ 	c #E09076",
"@ 	c #E79E7E",
"# 	c #E89E7E",
"$ 	c #E99C7D",
"% 	c #C27366",
"& 	c #DB8F76",
"* 	c #E99D7E",
"= 	c #E49679",
"- 	c #DB846F",
"; 	c #DA836F",
"> 	c #E79B7C",
", 	c #E99F7E",
"' 	c #D98E75",
") 	c #D3806D",
"! 	c #E18A72",
"~ 	c #E79A7C",
"{ 	c #E89F7F",
"] 	c #E59579",
"^ 	c #DD856F",
"/ 	c #DA8871",
"( 	c #E2977A",
"_ 	c #E9A07F",
": 	c #E39A7B",
"< 	c #CE826E",
"[ 	c #E19A7B",
"} 	c #F3B289",
"| 	c #CC7C6A",
"1 	c #A7635F",
"2 	c #925C5D",
"3 	c #9C6461",
"4 	c #A86562",
"5 	c #AE6561",
"6 	c #AA6361",
"7 	c #A05C5E",
"8 	c #9E5257",
"9 	c #A05D5F",
"0 	c #AA6561",
"a 	c #AF6661",
"b 	c #A66462",
"c 	c #9A5F5E",
"d 	c #91575B",
"e 	c #95575C",
"f 	c #A66361",
"g 	c #9D5C5D",
"h 	c #8D555B",
"i 	c #965A5C",
"j 	c #996260",
"k 	c #A86661",
"l 	c #AD615F",
"m 	c #A5585D",
"n 	c #A4595C",
"o 	c #AB615F",
"p 	c #A76661",
"q 	c #966260",
"r 	c #8B575B",
"s 	c #B77065",
"t 	c #D88871",
"u 	c #C67065",
"v 	c #814956",
"w 	c #543750",
"x 	c #733F52",
"y 	c #834254",
"z 	c #844052",
"A 	c #7F4053",
"B 	c #7E4153",
"C 	c #864251",
"D 	c #814354",
"E 	c #834153",
"F 	c #873F51",
"G 	c #804254",
"H 	c #673C52",
"I 	c #673F52",
"J 	c #774454",
"K 	c #824354",
"L 	c #823F51",
"M 	c #7B4152",
"N 	c #6D4153",
"O 	c #613D51",
"P 	c #6F4153",
"Q 	c #814152",
"R 	c #884152",
"S 	c #854355",
"T 	c #803F53",
"U 	c #874153",
"V 	c #673B51",
"W 	c #523951",
"X 	c #99565A",
"Y 	c #CF836F",
"Z 	c #D18470",
"` 	c #8D5259",
" .	c #774252",
"..	c #995055",
"+.	c #9A5458",
"@.	c #915157",
"#.	c #905057",
"$.	c #945157",
"%.	c #8E4E56",
"&.	c #975457",
"*.	c #965156",
"=.	c #934E55",
"-.	c #995458",
";.	c #894C55",
">.	c #904F56",
",.	c #9D5659",
"'.	c #9A5558",
").	c #8D4F56",
"!.	c #915056",
"~.	c #925157",
"{.	c #874C56",
"].	c #975458",
"^.	c #975157",
"/.	c #965056",
"(.	c #8E4D56",
"_.	c #965157",
":.	c #9A5256",
"<.	c #8B4853",
"[.	c #6B3F52",
"}.	c #9D5D5D",
"|.	c #D99D7D",
"1.	c #D28570",
"2.	c #975359",
"3.	c #844653",
"4.	c #9D5558",
"5.	c #9D595A",
"6.	c #9C5A5A",
"7.	c #965659",
"8.	c #935458",
"9.	c #9A5859",
"0.	c #985758",
"a.	c #995658",
"b.	c #9C5658",
"c.	c #9D5859",
"d.	c #965558",
"e.	c #9B5859",
"f.	c #A05B5A",
"g.	c #9A595A",
"h.	c #9A5959",
"i.	c #945457",
"j.	c #975758",
"k.	c #9B5759",
"l.	c #9D5759",
"m.	c #9E5859",
"n.	c #9E5959",
"o.	c #985558",
"p.	c #9E5A5A",
"q.	c #9C5758",
"r.	c #894854",
"s.	c #743F52",
"t.	c #A05F5E",
"u.	c #D99E7D",
"v.	c #D2836F",
"w.	c #9B5259",
"x.	c #8A4553",
"y.	c #A15457",
"z.	c #A35C5A",
"A.	c #A55E5B",
"B.	c #A35D5B",
"C.	c #9E5758",
"D.	c #A55B59",
"E.	c #A35758",
"F.	c #9F5859",
"G.	c #A45C5A",
"H.	c #A75F5B",
"I.	c #A05C5B",
"J.	c #9D5758",
"K.	c #9A5557",
"L.	c #9E5557",
"M.	c #A35958",
"N.	c #A75D59",
"O.	c #A55A59",
"P.	c #A15959",
"Q.	c #A75E5B",
"R.	c #A45B5A",
"S.	c #8F4B54",
"T.	c #793F53",
"U.	c #A15D5D",
"V.	c #D99B7B",
"W.	c #B36D64",
"X.	c #874A56",
"Y.	c #8C4954",
"Z.	c #AD5C59",
"`.	c #AD605B",
" +	c #995859",
".+	c #854E55",
"++	c #864D55",
"@+	c #A55B5A",
"#+	c #A35858",
"$+	c #985256",
"%+	c #884C55",
"&+	c #834C55",
"*+	c #9C5959",
"=+	c #AE625C",
"-+	c #A8605C",
";+	c #915558",
">+	c #824B55",
",+	c #A75A58",
"'+	c #9B5457",
")+	c #894E55",
"!+	c #874E56",
"~+	c #B1605B",
"{+	c #9F5356",
"]+	c #764054",
"^+	c #8B5159",
"/+	c #B87F6D",
"(+	c #9D605F",
"_+	c #7F4554",
":+	c #944D55",
"<+	c #B7615B",
"[+	c #B6645C",
"}+	c #955457",
"|+	c #694253",
"1+	c #5C3F52",
"2+	c #844B55",
"3+	c #925257",
"4+	c #754051",
"5+	c #523C51",
"6+	c #4A3A51",
"7+	c #7E4D56",
"8+	c #9F5C5A",
"9+	c #9A5A59",
"0+	c #684353",
"a+	c #483951",
"b+	c #7D4A55",
"c+	c #995A5A",
"d+	c #955357",
"e+	c #784453",
"f+	c #513C51",
"g+	c #5B3D51",
"h+	c #A05A59",
"i+	c #BA645C",
"j+	c #A75657",
"k+	c #794054",
"l+	c #7F4B57",
"m+	c #A16E65",
"n+	c #CD806E",
"o+	c #A55359",
"p+	c #A24952",
"q+	c #B75B58",
"r+	c #B7645D",
"s+	c #B4605B",
"t+	c #8E4F56",
"u+	c #4D3A51",
"v+	c #4D3B52",
"w+	c #523D52",
"x+	c #503C52",
"y+	c #493951",
"z+	c #423851",
"A+	c #403851",
"B+	c #4B3B52",
"C+	c #543E52",
"D+	c #523E52",
"E+	c #463A51",
"F+	c #433951",
"G+	c #513C52",
"H+	c #493A51",
"I+	c #4B3A51",
"J+	c #6E4152",
"K+	c #AC605B",
"L+	c #BB645C",
"M+	c #9F4C53",
"N+	c #8C4153",
"O+	c #A35C5D",
"P+	c #D2997A",
"Q+	c #D38571",
"R+	c #95535A",
"S+	c #C1685E",
"T+	c #C16A5F",
"U+	c #B5645D",
"V+	c #9B5658",
"W+	c #724453",
"X+	c #463951",
"Y+	c #3B3751",
"Z+	c #3D3751",
"`+	c #3E3851",
" @	c #3F3851",
".@	c #3D3851",
"+@	c #3C3751",
"@@	c #B8645C",
"#@	c #C36A5E",
"$@	c #B15D59",
"%@	c #7D4354",
"&@	c #A05E5E",
"*@	c #DA9F7E",
"=@	c #D28470",
"-@	c #9D5459",
";@	c #9C5156",
">@	c #BE675D",
",@	c #BC695E",
"'@	c #B9685F",
")@	c #9D5A5A",
"!@	c #6B4253",
"~@	c #624253",
"{@	c #A85D5A",
"]@	c #BF695F",
"^@	c #AA5858",
"/@	c #854353",
"(@	c #A35F5E",
"_@	c #D99F7E",
":@	c #CC796A",
"<@	c #A35157",
"[@	c #9F4E54",
"}@	c #B3655D",
"|@	c #B8695F",
"1@	c #9A5A5A",
"2@	c #5D4052",
"3@	c #604253",
"4@	c #A75F5C",
"5@	c #BC6A60",
"6@	c #B5635D",
"7@	c #9D5055",
"8@	c #8B4352",
"9@	c #A7605E",
"0@	c #BE645E",
"a@	c #844754",
"b@	c #884F57",
"c@	c #B2645D",
"d@	c #A6605C",
"e@	c #925658",
"f@	c #744854",
"g@	c #403951",
"h@	c #5D4153",
"i@	c #995758",
"j@	c #AF635D",
"k@	c #B4655E",
"l@	c #A75D5B",
"m@	c #744354",
"n@	c #9D5E5E",
"o@	c #CC7B6B",
"p@	c #995057",
"q@	c #8E4B54",
"r@	c #A65C5A",
"s@	c #A45E5B",
"t@	c #8C5458",
"u@	c #5A4053",
"v@	c #965759",
"w@	c #AA615C",
"x@	c #A55D5A",
"y@	c #924E55",
"z@	c #7E4152",
"A@	c #A25E5D",
"B@	c #D38671",
"C@	c #9A5359",
"D@	c #894853",
"E@	c #A15958",
"F@	c #A05C5A",
"G@	c #A15D5B",
"H@	c #895257",
"I@	c #5B3F52",
"J@	c #583F52",
"K@	c #A15B5A",
"L@	c #8F4D55",
"M@	c #794052",
"N@	c #C88670",
"O@	c #CE816E",
"P@	c #8F5158",
"Q@	c #814854",
"R@	c #A45959",
"S@	c #A55D5B",
"T@	c #9E5B5A",
"U@	c #885056",
"V@	c #664152",
"W@	c #453951",
"X@	c #583E52",
"Y@	c #8E5156",
"Z@	c #A65D5B",
"`@	c #975257",
" #	c #704053",
".#	c #925259",
"+#	c #C2796A",
"@#	c #C67567",
"##	c #924D56",
"$#	c #8B4954",
"%#	c #A95A59",
"&#	c #A95F5B",
"*#	c #8D5157",
"=#	c #603D51",
"-#	c #443951",
";#	c #5A3F52",
">#	c #955256",
",#	c #AB5E5B",
"'#	c #AB5D5A",
")#	c #985055",
"!#	c #774053",
"~#	c #9E5B5D",
"{#	c #D59679",
"]#	c #C66D63",
"^#	c #9B4B56",
"/#	c #964753",
"(#	c #AE5757",
"_#	c #B0615C",
":#	c #B3655E",
"<#	c #965658",
"[#	c #5A3B51",
"}#	c #433851",
"|#	c #A05959",
"1#	c #B6645D",
"2#	c #B15F5B",
"3#	c #9A4C54",
"4#	c #824053",
"5#	c #A35E5E",
"6#	c #CD7A6A",
"7#	c #954F57",
"8#	c #B9615B",
"9#	c #BA665E",
"0#	c #6B4052",
"a#	c #5F4053",
"b#	c #A25758",
"c#	c #BA655D",
"d#	c #BC655D",
"e#	c #A95757",
"f#	c #7C4154",
"g#	c #9F5C5D",
"h#	c #D99C7C",
"i#	c #D28571",
"j#	c #995359",
"k#	c #984F55",
"l#	c #BE655D",
"m#	c #BE685E",
"n#	c #B8675E",
"o#	c #9C5859",
"p#	c #6D4152",
"q#	c #473951",
"r#	c #614053",
"s#	c #A65958",
"t#	c #BE675E",
"u#	c #C0685D",
"v#	c #AC5958",
"w#	c #7F4254",
"x#	c #99555B",
"y#	c #CB8A72",
"z#	c #D38570",
"A#	c #A95459",
"B#	c #A54C53",
"C#	c #BA5F59",
"D#	c #BA675E",
"E#	c #C06C60",
"F#	c #5B3D52",
"G#	c #3E3751",
"H#	c #AD615C",
"I#	c #C46D60",
"J#	c #BB655C",
"K#	c #A04E54",
"L#	c #8F4152",
"M#	c #965058",
"N#	c #B47166",
"O#	c #925359",
"P#	c #935157",
"Q#	c #BF685E",
"R#	c #BF6A5F",
"S#	c #B4665E",
"T#	c #9C595A",
"U#	c #784754",
"V#	c #A45A5A",
"W#	c #BD685E",
"X#	c #7C4454",
"Y#	c #9A5A5C",
"Z#	c #D09478",
"`#	c #9E5459",
" $	c #995056",
".$	c #B6665E",
"+$	c #B4665F",
"@$	c #A45C5B",
"#$	c #BA685E",
"$$	c #B7655D",
"%$	c #A35657",
"&$	c #A45F5E",
"*$	c #D38470",
"=$	c #A15459",
"-$	c #984D54",
";$	c #AF5F5B",
">$	c #AC625D",
",$	c #A45F5C",
"'$	c #814F57",
")$	c #473A51",
"!$	c #543F52",
"~$	c #8E5559",
"{$	c #AC635D",
"]$	c #AE615C",
"^$	c #975055",
"/$	c #854252",
"($	c #A55E5D",
"_$	c #D99D7C",
":$	c #CC7D6C",
"<$	c #8B5058",
"[$	c #AB5F5B",
"}$	c #794B55",
"|$	c #4E3C52",
"1$	c #533E52",
"2$	c #4E3B52",
"3$	c #4B3B51",
"4$	c #4A3B52",
"5$	c #503D52",
"6$	c #4D3C52",
"7$	c #4F3C52",
"8$	c #4C3B52",
"9$	c #4C3A51",
"0$	c #5F4253",
"a$	c #975859",
"b$	c #AF625C",
"c$	c #714253",
"d$	c #99585C",
"e$	c #D29276",
"f$	c #B16560",
"g$	c #8D4855",
"h$	c #8E4A54",
"i$	c #A15758",
"j$	c #905156",
"k$	c #7C4954",
"l$	c #724654",
"m$	c #7C4C56",
"n$	c #8E5458",
"o$	c #7F4B55",
"p$	c #754754",
"q$	c #734754",
"r$	c #704252",
"s$	c #865057",
"t$	c #915659",
"u$	c #6A4252",
"v$	c #704654",
"w$	c #7D4B55",
"x$	c #784954",
"y$	c #714553",
"z$	c #724352",
"A$	c #885157",
"B$	c #A25D5B",
"C$	c #924D54",
"D$	c #7A3F52",
"E$	c #8F4F58",
"F$	c #B57467",
"G$	c #C27668",
"H$	c #934E57",
"I$	c #8D4854",
"J$	c #A45757",
"K$	c #955558",
"L$	c #975658",
"M$	c #A15C5A",
"N$	c #985457",
"O$	c #9A5658",
"P$	c #A45D5A",
"Q$	c #975558",
"R$	c #9D5658",
"S$	c #9B5758",
"T$	c #A85C5A",
"U$	c #934D54",
"V$	c #7A3F53",
"W$	c #98575B",
"X$	c #C88B73",
"Y$	c #8C4A54",
"Z$	c #AF5D5A",
"`$	c #B1635C",
" %	c #AC625C",
".%	c #A65B59",
"+%	c #A75D5A",
"@%	c #AA5D5A",
"#%	c #AB5B59",
"$%	c #AC5C59",
"%%	c #B0605B",
"&%	c #A25959",
"*%	c #A95E5B",
"=%	c #B5655D",
"-%	c #B0645D",
";%	c #A85F5B",
">%	c #A75C5A",
",%	c #A65B5A",
"'%	c #AE5D5A",
")%	c #B05F5B",
"!%	c #B1625B",
"~%	c #A65A59",
"{%	c #AE605C",
"]%	c #B1615B",
"^%	c #774154",
"/%	c #9F5E5E",
"(%	c #975259",
"_%	c #914B55",
":%	c #B45F5B",
"<%	c #B4615B",
"[%	c #AD5E5B",
"}%	c #A85B59",
"|%	c #A75958",
"1%	c #AD5D5B",
"2%	c #AC5959",
"3%	c #AC5757",
"4%	c #B15D5A",
"5%	c #A25658",
"6%	c #AA5B59",
"7%	c #B1625C",
"8%	c #A95C5A",
"9%	c #A75959",
"0%	c #AD5D5A",
"a%	c #AF5A58",
"b%	c #B05B58",
"c%	c #A65658",
"d%	c #B05D5A",
"e%	c #B5605A",
"f%	c #A45456",
"g%	c #7B4154",
"h%	c #D07E6D",
"i%	c #A45258",
"j%	c #964252",
"k%	c #A34B55",
"l%	c #A24D55",
"m%	c #A34E54",
"n%	c #964A54",
"o%	c #8F4854",
"p%	c #A44D54",
"q%	c #984857",
"r%	c #9C4856",
"s%	c #A54B55",
"t%	c #9E4956",
"u%	c #9E4A55",
"v%	c #A14C54",
"w%	c #9E4D55",
"x%	c #974B55",
"y%	c #9A4955",
"z%	c #964855",
"A%	c #A34C54",
"B%	c #9A4857",
"C%	c #A04A55",
"D%	c #A44C54",
"E%	c #9C4A54",
"F%	c #A64E54",
"G%	c #934453",
"H%	c #873F53",
"I%	c #A55B5D",
"J%	c #D69679",
"K%	c #BF6F65",
"L%	c #914F58",
"M%	c #743D52",
"N%	c #7A3E52",
"O%	c #793F52",
"P%	c #794152",
"Q%	c #704052",
"R%	c #6B3E52",
"S%	c #7C4052",
"T%	c #733C53",
"U%	c #753E53",
"V%	c #7B4153",
"W%	c #773F54",
"X%	c #784053",
"Y%	c #784052",
"Z%	c #723F52",
"`%	c #7A4152",
" &	c #763E53",
".&	c #733D52",
"+&	c #7B4051",
"@&	c #743D53",
"#&	c #774052",
"$&	c #723E52",
"%&	c #7B4052",
"&&	c #703B52",
"*&	c #6D3E53",
"=&	c #A0585B",
"-&	c #C77C6B",
";&	c #CD8F75",
">&	c #B27568",
",&	c #A87568",
"'&	c #B18771",
")&	c #B18671",
"!&	c #A87367",
"~&	c #A16661",
"{&	c #A47066",
"]&	c #B08570",
"^&	c #B28872",
"/&	c #A87769",
"(&	c #9E6460",
"_&	c #A56A63",
":&	c #AE806D",
"<&	c #B18871",
"[&	c #A2786A",
"}&	c #83585C",
"|&	c #A27067",
"1&	c #B0826F",
"2&	c #B28871",
"3&	c #AF826E",
"4&	c #8F6461",
"5&	c #8A605F",
"6&	c #AC806D",
"7&	c #B08771",
"8&	c #B18872",
"9&	c #B28972",
"0&	c #AD836F",
"a&	c #9B6862",
"b&	c #C0806D",
"c&	c #D99678",
"  . + @ # # $ . % & * # # = - ; > , ' ) ! ~ { ] ^ / ( _ : < [ } ",
"| 1 2 3 4 5 6 7 8 9 0 a b c d e f a g h i j k l m n o p q r s t ",
"u v w x y z A B C D E F G H I J K L M N O P Q R S T U Q V W X Y ",
"Z `  ...+.@.#.$.%.&.*.=.-.;.>.,.'.).!.~.{.].^./.-.(._.:.<.[.}.|.",
"1.2.3.4.5.6.7.8.9.0.a.b.c.d.e.f.g.h.d.i.j.k.l.m.n.o.p.q.r.s.t.u.",
"v.w.x.y.z.A.n.a.B.b.C.D.E.F.G.H.I.B.J.K.f.L.M.N.O.P.Q.R.S.T.U.V.",
"W.X.Y.Z.`. +.+++m.@+#+$+%+&+*+=+-+;+>+++0.D.,+'+)+!+G.~+{+]+^+/+",
"(+_+:+<+[+}+|+1+2+g.3+4+5+6+7+8+9+0+a+1+b+c+d+e+f+g+h+i+j+k+l+m+",
"n+o+p+q+r+s+t+u+v+w+x+y+z+A+B+C+D+E+A+F+B+D+G+H+I+J+K+L+M+N+O+P+",
"Q+R+*.S+T+U+V+W+X+Y+Z+`+ @ @.@+@+@`+ @`+.@+@+@ @1+/.@@#@$@%@&@*@",
"=@-@;@>@,@'@)@!@X+`+ @ @ @ @ @ @ @ @ @ @ @ @ @ @~@{@]@>@^@/@(@_@",
":@<@[@s+}@|@1@2@F+`+ @ @ @ @ @ @ @ @ @ @ @ @ @`+3@4@5@6@7@8@9@_@",
"0@a@b@c@}@d@e@f@H+`+ @ @ @ @ @ @ @ @ @ @ @ @ @g@h@i@j@k@l@m@n@*@",
"o@p@q@r@s@d@t@1+F+`+ @ @ @ @ @ @ @ @ @ @ @ @ @ @u@v@w@x@y@z@A@u.",
"B@C@D@E@F@G@H@I@F+`+ @ @ @ @ @ @ @ @ @ @ @ @ @ @J@;+A.K@L@M@X N@",
"O@P@Q@R@S@T@U@V@W@`+ @ @ @ @ @ @ @ @ @ @ @ @ @A+X@Y@G.Z@`@ #.#+#",
"@###$#%#&#H.*#=#-#`+ @ @ @ @ @ @ @ @ @ @ @ @ @ @;#>#,#'#)#!#~#{#",
"]#^#/#(#_#:#<#[#}#`+ @ @ @ @ @ @ @ @ @ @ @ @ @`+2@|#1#2#3#4#5#u.",
"6#7#:+8#9#k@a.0#X+`+ @ @ @ @ @ @ @ @ @ @ @ @ @A+a#b#c#d#e#f#g#h#",
"i#j#k#l#m#n#o#p#q#`+ @ @ @ @ @ @ @ @ @ @ @ @ @ @r#s#t#u#v#w#x#y#",
"z#A#B#C#D#E#F@F#F+`+ @ @ @ @ @ @ @ @ @ @ @ @ @G#~@H#I#J#K#L#M#N#",
"i#O#P#Q#R#S#T#U#H+`+ @ @ @ @ @ @ @ @ @ @ @ @ @A+~@V#W#T+2#X#Y#Z#",
"i#`# $r+.$+$g.0+X+`+ @ @ @ @ @ @ @ @ @ @ @ @ @ @3@@$#$$$%$/@&$*@",
"*$=$-$;$>$,$'$)$.@.@.@`+`+Z++@Z+`+`+`+.@+@.@.@Z+!$~${$]$^$/$($_$",
":$<$&+[$Q.}$x+|$1$2$3$4$H+5$C+5$a+H+6+6$1$7$8$H+9$0$a$b$|#c$d$e$",
"f$g$h$i$j$k$l$m$n$o$p$q$r$s$t$s$u$v$l$w$n$&+x$y$z$A$B$r@C$D$E$F$",
"G$H$I$J$n. +K$L$M$'.N$O$K.e.@$P$<#v@}+Q$T@R$V+S$V+m.&#T$U$V$W$X$",
"Q+R+Y$Z$`$ %Q..%+%@%#%$%%%&%*%=%-%;%>%,%K@'#'%)%!%~%{%]%{+^%/%*@",
"=@(%_%:%<%[%}%|%%#1%2%3%4%5%6%[+7%8%%#9%#+0%a%b%2#c%d%e%f%g%&@u.",
"h%i%j%k%l%m%n%o%p%q%r%s%t%u%v%w%x%m%y%z%A%B%C%D%^#E%F%D%G%H%I%J%",
"K%L%M%N%O%P%Q%R%S%T%U%V%W%X%Y%Z%R%`% &.&+&@& &#&$&s.%&D$&&*&=&-&",
";&>&,&'&)&!&~&{&]&^&/&(&_&:&<&[&}&|&1&2&'&3&4&5&6&7&8&9&0&a&b&c&"};
