/* XPM */
static char * wall_xpm[] = {
"32 64 487 2",
"  	c None",
". 	c #11191D",
"+ 	c #138128",
"@ 	c #11942C",
"# 	c #126524",
"$ 	c #115922",
"% 	c #4BB833",
"& 	c #108629",
"* 	c #1FA12E",
"= 	c #7FCD3C",
"- 	c #3CB131",
"; 	c #113A1F",
"> 	c #3F912D",
", 	c #94D741",
"' 	c #8DD43F",
") 	c #6FC439",
"! 	c #239D2E",
"~ 	c #1E902B",
"{ 	c #99D942",
"] 	c #73C93A",
"^ 	c #9BDB43",
"/ 	c #7ACC3B",
"( 	c #42AA32",
"_ 	c #216F26",
": 	c #146C34",
"< 	c #73BF3C",
"[ 	c #81CF3D",
"} 	c #9CDB43",
"| 	c #43B432",
"1 	c #79CC3B",
"2 	c #7ECB3C",
"3 	c #137426",
"4 	c #165930",
"5 	c #166734",
"6 	c #2E9E2E",
"7 	c #78CC3B",
"8 	c #68C638",
"9 	c #9DDC43",
"0 	c #38AE31",
"a 	c #58C035",
"b 	c #3AA42F",
"c 	c #169933",
"d 	c #14592A",
"e 	c #2A6524",
"f 	c #56BF35",
"g 	c #42B332",
"h 	c #93D741",
"i 	c #81CE3D",
"j 	c #61C336",
"k 	c #61B335",
"l 	c #133F26",
"m 	c #133C25",
"n 	c #126223",
"o 	c #37A831",
"p 	c #35A630",
"q 	c #6CC838",
"r 	c #70C839",
"s 	c #9EDC43",
"t 	c #87D23E",
"u 	c #8DD53F",
"v 	c #14982C",
"w 	c #125221",
"x 	c #32A530",
"y 	c #92D641",
"z 	c #68C538",
"A 	c #95D841",
"B 	c #8CD43F",
"C 	c #98D942",
"D 	c #62C436",
"E 	c #84D03D",
"F 	c #3BA732",
"G 	c #149B2E",
"H 	c #125D23",
"I 	c #149D2F",
"J 	c #47A237",
"K 	c #3CAF31",
"L 	c #5AC135",
"M 	c #88D23E",
"N 	c #6FC839",
"O 	c #6AC638",
"P 	c #77CB3B",
"Q 	c #61C436",
"R 	c #58C135",
"S 	c #63BE38",
"T 	c #178839",
"U 	c #168A33",
"V 	c #176435",
"W 	c #176334",
"X 	c #128C2A",
"Y 	c #4CB433",
"Z 	c #5FC336",
"` 	c #4FBB34",
" .	c #59C135",
"..	c #78CB3B",
"+.	c #66C537",
"@.	c #71C939",
"#.	c #3F8A2A",
"$.	c #166235",
"%.	c #165F32",
"&.	c #114620",
"*.	c #24A42F",
"=.	c #6DBE38",
"-.	c #5EC236",
";.	c #40AC31",
">.	c #82CF3D",
",.	c #90D540",
"'.	c #59BF35",
").	c #144129",
"!.	c #199D2F",
"~.	c #85CF3E",
"{.	c #5BB935",
"].	c #7FCE3C",
"^.	c #2BA82F",
"/.	c #69C638",
"(.	c #7EC73C",
"_.	c #83D03D",
":.	c #8BD23F",
"<.	c #03912B",
"[.	c #134127",
"}.	c #17853B",
"|.	c #4BB037",
"1.	c #57B835",
"2.	c #72C93A",
"3.	c #43B332",
"4.	c #49B633",
"5.	c #15982C",
"6.	c #123423",
"7.	c #19763C",
"8.	c #186836",
"9.	c #1E9730",
"0.	c #5DC236",
"a.	c #5BC235",
"b.	c #5CC235",
"c.	c #5BC135",
"d.	c #28A62F",
"e.	c #198639",
"f.	c #187F37",
"g.	c #11121C",
"h.	c #108729",
"i.	c #3FB031",
"j.	c #4CBA33",
"k.	c #82D03D",
"l.	c #97D942",
"m.	c #56C034",
"n.	c #37AC31",
"o.	c #57C135",
"p.	c #96D842",
"q.	c #167528",
"r.	c #165830",
"s.	c #14492A",
"t.	c #114720",
"u.	c #3AAE31",
"v.	c #91D440",
"w.	c #43B032",
"x.	c #7BCD3B",
"y.	c #2DA730",
"z.	c #21A32F",
"A.	c #56BF34",
"B.	c #86D03E",
"C.	c #8BD33F",
"D.	c #7BC63B",
"E.	c #16962C",
"F.	c #114320",
"G.	c #139B2D",
"H.	c #52BC34",
"I.	c #6EC839",
"J.	c #48B632",
"K.	c #38AC31",
"L.	c #4DB933",
"M.	c #50BB34",
"N.	c #2D8537",
"O.	c #144228",
"P.	c #179235",
"Q.	c #13852C",
"R.	c #48B633",
"S.	c #46B432",
"T.	c #42B232",
"U.	c #40B131",
"V.	c #5AC235",
"W.	c #4DB138",
"X.	c #328636",
"Y.	c #122D21",
"Z.	c #176C35",
"`.	c #1EA32E",
" +	c #1EA22E",
".+	c #109F2E",
"++	c #3BAE31",
"@+	c #2AA72F",
"#+	c #166726",
"$+	c #1F793C",
"%+	c #186D38",
"&+	c #156B35",
"*+	c #159E30",
"=+	c #14A02E",
"-+	c #178D37",
";+	c #50BA34",
">+	c #47B532",
",+	c #20A32F",
"'+	c #39AD31",
")+	c #29A72F",
"!+	c #126924",
"~+	c #267032",
"{+	c #48AA39",
"]+	c #149534",
"^+	c #18873A",
"/+	c #46B532",
"(+	c #44B332",
"_+	c #12A02E",
":+	c #2BA72F",
"<+	c #51BC34",
"[+	c #32AA30",
"}+	c #169733",
"|+	c #159B31",
"1+	c #15A02E",
"2+	c #126125",
"3+	c #1A6937",
"4+	c #45A539",
"5+	c #225F3B",
"6+	c #169633",
"7+	c #159C30",
"8+	c #1CA22F",
"9+	c #3EAF31",
"0+	c #149F2F",
"a+	c #41B132",
"b+	c #27A52F",
"c+	c #54BD34",
"d+	c #169832",
"e+	c #19803C",
"f+	c #4AB733",
"g+	c #149E2F",
"h+	c #20A12F",
"i+	c #387C27",
"j+	c #132621",
"k+	c #1B3A2D",
"l+	c #1A362D",
"m+	c #166731",
"n+	c #14A12E",
"o+	c #12A12D",
"p+	c #19843B",
"q+	c #16A12E",
"r+	c #30A930",
"s+	c #1FA32F",
"t+	c #169335",
"u+	c #25A42F",
"v+	c #167B33",
"w+	c #1F673C",
"x+	c #398E38",
"y+	c #1B3B2D",
"z+	c #149C2E",
"A+	c #188839",
"B+	c #188A38",
"C+	c #22A42F",
"D+	c #13A12E",
"E+	c #12361F",
"F+	c #121F1E",
"G+	c #111E1E",
"H+	c #111D1D",
"I+	c #178436",
"J+	c #23A42F",
"K+	c #3CAE31",
"L+	c #188C38",
"M+	c #17A12E",
"N+	c #1BA12E",
"O+	c #188939",
"P+	c #19A12E",
"Q+	c #1AA12E",
"R+	c #138D2A",
"S+	c #139A31",
"T+	c #45A639",
"U+	c #2B9837",
"V+	c #178F36",
"W+	c #13A02E",
"X+	c #3AAD31",
"Y+	c #34AA30",
"Z+	c #169534",
"`+	c #40B132",
" @	c #2EA92F",
".@	c #40B032",
"+@	c #3F9030",
"@@	c #1B733C",
"#@	c #1B783D",
"$@	c #19783C",
"%@	c #1A7A3E",
"&@	c #1A7D3D",
"*@	c #1BA22E",
"=@	c #4CB833",
"-@	c #119F2E",
";@	c #1A7C3E",
">@	c #217C3D",
",@	c #207E3E",
"'@	c #479E31",
")@	c #152C24",
"!@	c #183329",
"~@	c #183429",
"{@	c #19713A",
"]@	c #2EA830",
"^@	c #159D30",
"/@	c #1A402D",
"(@	c #22613C",
"_@	c #20603C",
":@	c #1F4A34",
"<@	c #144A2A",
"[@	c #1C763E",
"}@	c #20673C",
"|@	c #149A31",
"1@	c #1F9734",
"2@	c #179136",
"3@	c #19833B",
"4@	c #149832",
"5@	c #28A72F",
"6@	c #178F37",
"7@	c #19793C",
"8@	c #122F21",
"9@	c #133E26",
"0@	c #1A793E",
"a@	c #1A7A3D",
"b@	c #1A7B3E",
"c@	c #1A7E3C",
"d@	c #197F3C",
"e@	c #19823B",
"f@	c #159D2F",
"g@	c #229D32",
"h@	c #1DA030",
"i@	c #21633C",
"j@	c #1A783E",
"k@	c #19773C",
"l@	c #1D5034",
"m@	c #197A3E",
"n@	c #38A734",
"o@	c #225F3C",
"p@	c #179335",
"q@	c #19813C",
"r@	c #19853A",
"s@	c #14A12D",
"t@	c #1C753E",
"u@	c #1B773E",
"v@	c #1D713D",
"w@	c #178635",
"x@	c #1D4B33",
"y@	c #47A939",
"z@	c #168C38",
"A@	c #1A7E3D",
"B@	c #1B783E",
"C@	c #1B793E",
"D@	c #188F35",
"E@	c #21643C",
"F@	c #169833",
"G@	c #188638",
"H@	c #1F4C35",
"I@	c #1E6D3D",
"J@	c #21623C",
"K@	c #188B38",
"L@	c #1B773D",
"M@	c #1D703D",
"N@	c #1B7A3D",
"O@	c #225A3B",
"P@	c #1A7C3D",
"Q@	c #19813B",
"R@	c #1A743C",
"S@	c #1F4433",
"T@	c #20683D",
"U@	c #1F6A3D",
"V@	c #24523B",
"W@	c #1E4232",
"X@	c #20663C",
"Y@	c #14A22D",
"Z@	c #1E6E3D",
"`@	c #23573B",
" #	c #176635",
".#	c #1D3E2F",
"+#	c #1D3D2F",
"@#	c #1C3D2E",
"##	c #12221F",
"$#	c #12211F",
"%#	c #204A36",
"&#	c #1F6C3D",
"*#	c #225D3C",
"=#	c #197E3D",
"-#	c #178E37",
";#	c #1C753D",
">#	c #235A3C",
",#	c #123523",
"'#	c #162C25",
")#	c #1E6A3B",
"!#	c #19853B",
"~#	c #159832",
"{#	c #1F693D",
"]#	c #1C6F3C",
"^#	c #142822",
"/#	c #172E27",
"(#	c #1D723D",
"_#	c #19823C",
":#	c #179036",
"<#	c #24503B",
"[#	c #1E6C3D",
"}#	c #142923",
"|#	c #1F693C",
"1#	c #1F6B3D",
"2#	c #24533B",
"3#	c #197F3D",
"4#	c #24513B",
"5#	c #23503A",
"6#	c #23563B",
"7#	c #24513A",
"8#	c #142621",
"9#	c #172F26",
"0#	c #23523A",
"a#	c #20653C",
"b#	c #225E3C",
"c#	c #1F683D",
"d#	c #24543B",
"e#	c #1E4332",
"f#	c #1A382B",
"g#	c #19372A",
"h#	c #204835",
"i#	c #225C3C",
"j#	c #1B763E",
"k#	c #215F3C",
"l#	c #1C3F2F",
"m#	c #214B36",
"n#	c #20683C",
"o#	c #24553B",
"p#	c #1C733D",
"q#	c #23593B",
"r#	c #21613C",
"s#	c #1E4231",
"t#	c #1F4533",
"u#	c #1E6F3D",
"v#	c #23553B",
"w#	c #23583B",
"x#	c #20673D",
"y#	c #225B3C",
"z#	c #224D38",
"A#	c #224C37",
"B#	c #132521",
"C#	c #142722",
"D#	c #234E39",
"E#	c #23573C",
"F#	c #183529",
"G#	c #214C37",
"H#	c #214A36",
"I#	c #173127",
"J#	c #234F39",
"K#	c #23593C",
"L#	c #1A372B",
"M#	c #235A3B",
"N#	c #111819",
"O#	c #191E1D",
"P#	c #1C3B2C",
"Q#	c #24533C",
"R#	c #131316",
"S#	c #162D25",
"T#	c #204734",
"U#	c #1C3E2E",
"V#	c #204935",
"W#	c #1E4432",
"X#	c #224E38",
"Y#	c #181315",
"Z#	c #182420",
"`#	c #2E2825",
" $	c #211C1A",
".$	c #14231F",
"+$	c #214935",
"@$	c #122420",
"#$	c #132420",
"$$	c #2B2522",
"%$	c #1F1B1A",
"&$	c #292220",
"*$	c #251F1D",
"=$	c #27201E",
"-$	c #1F1C1B",
";$	c #1A1516",
">$	c #171315",
",$	c #2C2523",
"'$	c #221C1A",
")$	c #27211F",
"!$	c #292320",
"~$	c #241E1C",
"{$	c #1D1818",
"]$	c #241E1D",
"^$	c #181513",
"/$	c #070807",
"($	c #312A27",
"_$	c #302927",
":$	c #0B0B0A",
"<$	c #211B19",
"[$	c #1B1617",
"                                                                ",
"                                                                ",
"                                                                ",
"                                                                ",
"                                                                ",
"                                                                ",
"                                .                               ",
"                                +                               ",
"                                @ #                             ",
"                              $ % &                             ",
"                              * = - ;                           ",
"                            > , ' ) !                           ",
"                          ~ { ] ^ / ( _                         ",
"                        : < [ ^ } | 1 2 3                       ",
"                      4 5 6 7 8 9 0 a b c d                     ",
"                        e f g h / i j k l m                     ",
"                      n o p q ^ r s t u v                       ",
"                    w x y z } A B C D E F G                     ",
"                  H I J K L M N O P Q R S T U                   ",
"                  V W X Y Z ` R  ...Z +.@.#.$.%.                ",
"                    &.*.A C =.-. .s ;.>.,.'.                    ",
"                  ).!.~.{.].^./ /.t (.| _.:.<.                  ",
"                [.}.|.1.E K L +.2.@.Z 3. . .4.5.                ",
"              6.7.8.9.D L 0. .a.0.a  . .b.c.d.e.f.              ",
"                g.h.i.j.k.l.m.L  .n. .o.p.l.j.q.r.s.            ",
"                t.u.0.v.w., x.y.L z.A.R B.C.D.E.                ",
"              F.G.K a H.I...J.d. .f K.L L.H.N M.N.              ",
"            O.P.Q.R. .S.T.R U. .L  .L  . .T. .V.W.X.            ",
"              Y.Z.`. +.+ . .a  .++++ . .f  .V.@+#+$+%+          ",
"              &+*+=+-+u. . .4. .V.;+ .>+,+'+V.a )+!+            ",
"            ~+{+]+-+^+/+(+_+U.a :+<+a [+}+|+'+1+=+}+2+          ",
"          3+4+5+6+7+8+9+0+=+a+b+=+'+c+.+d+e+.+f+1+g+h+i+        ",
"        j+k+l+m+n+=+=+o+p+q+r+=+=+u.s+=+=+t+d+ +u+v+w+x+y+      ",
"              z+b+=+=+A+B+=+C+1+=+1+=+7+=+1+C+=+=+D+E+F+G+H+    ",
"            I+J+K+=+g+L+=+M+A.N+=+1+=+O+=+P+f Q+=+a+R+          ",
"          I+S+T+U+=+V+n+W+X+Y+=+=+++s+Z+p+=+[+`+W+ @.@+@        ",
"        @@#@$@%@&@=+C+=+=+*@=+|+}+1+=@-@}+7+=+=+=+;@>@,@'@      ",
"      )@!@~@{@%@6+]@A..+=+=+=+B+^@=+_+=+=+W+t+=+=+L+/@(@_@:@    ",
"          <@[@}@|@=@1@2@=+3@n+=+=+=+=+=+4@H.5@%@6@Z+7@8@        ",
"        9@0@a@b@c@d@b@P.=+e@=+g+=+Z+f@n+b@g@h@6+i@j@6+k@        ",
"        l@m@n@&@o@%@%@p@A+%@3@q@n+r@L+s@t@u@0@0@%@v@b@q@w@      ",
"      x@0@y@z@u@v@L+A@%@B@C@%@0@D@0@&@^+%@E@b@%@F@d@%@%@|+G@    ",
"    H@B@0@0@I@0@%@e+%@%@J@0@K@L@M@%@%@0@%@%@b@J@e+g+N@O@P@Q@R@  ",
"  S@T@U@V@W@X@P@q@%@b@%@%@b@Y@P@%@^+%@i@Z@%@%@`@u@0@%@ #.#+#+#@#",
"  ######$#%#P@^@r@&#*#=#}+b@-#%@%@6+b@}@*#0@6@;#>#%@d@%@,#      ",
"        '#)#2@!#%@M@0@P.~#%@%@%@%@2@A@%@{#t@e+P.%@%@^+r@]#^#    ",
"      /#T@%@%@b@(#v@O+Z+%@%@_#b@%@0@:#0@%@%@%@%@{#<#[#I@b@X@    ",
"    }#|#u@u@1#`@2#B@&@%@v@(#-+3#J@%@%@%@B@%@{#u@%@4#5#V@`@6#7#8#",
"  9#0#a#4#V@4#V@a#%@b@Z@4#V@%@A+o@I@%@I@b#%@c#d#t@E@e#f#f#f#f#g#",
"  h#h#h#h#f#V@i#{#c#V@4#i#2#j#t@4#4#u@k#4#I@{#V@V@V@V@l#        ",
"          m#E@t@4#V@V@n#(#V@o#p#4#2#q#4#I@V@6#V@V@r#(#V@e#      ",
"        s#2#{#2#t#V@d#t@E@V@*#V@V@u#V@4#j#v#V@6#w#4#x#y#z#      ",
"      e#V@V@A#B#C#V@V@d#V@2#B@d#V@r#v#5#*#p#D#q#B@E#F#A#G#H#    ",
"      I#I#I#  ^#5#h#J#V@G#z#K#f#V@V@J#^#V@V@@#L#y#M#J#          ",
"                  ~@2#H#N#G#G#O#P#Q#J#R#S#5#T#  U#V#2#W#        ",
"                  X#)@  Y#Z#U#`# $.$+$R#  @$#$H+    #$B#        ",
"                        Y#$$%$&$*$=$-$;$                        ",
"                        >$,$'$&$)$!$~${$                        ",
"                        ]$^$/$($_$:$<$[$                        ",
"                                                                ",
"                                                                ",
"                                                                ",
"                                                                ",
"                                                                "};
